<?xml version="1.0" encoding="UTF-8" standalone="no"?>
<!-- Generator: Adobe Illustrator 21.0.0, SVG Export Plug-In . SVG Version: 6.00 Build 0)  -->

<svg
   xmlns:dc="http://purl.org/dc/elements/1.1/"
   xmlns:cc="http://creativecommons.org/ns#"
   xmlns:rdf="http://www.w3.org/1999/02/22-rdf-syntax-ns#"
   xmlns:svg="http://www.w3.org/2000/svg"
   xmlns="http://www.w3.org/2000/svg"
   xmlns:sodipodi="http://sodipodi.sourceforge.net/DTD/sodipodi-0.dtd"
   xmlns:inkscape="http://www.inkscape.org/namespaces/inkscape"
   version="1.1"
   id="Layer_1"
   x="0px"
   y="0px"
   viewBox="0 0 1400 980"
   style="enable-background:new 0 0 1400 980;"
   xml:space="preserve"
   inkscape:version="0.91 r13725"
   sodipodi:docname="book.svg"><metadata
     id="metadata385"><rdf:RDF><cc:Work
         rdf:about=""><dc:format>image/svg+xml</dc:format><dc:type
           rdf:resource="http://purl.org/dc/dcmitype/StillImage" /><dc:title></dc:title></cc:Work></rdf:RDF></metadata><defs
     id="defs383" /><sodipodi:namedview
     pagecolor="#ffffff"
     bordercolor="#666666"
     borderopacity="1"
     objecttolerance="10"
     gridtolerance="10"
     guidetolerance="10"
     inkscape:pageopacity="0"
     inkscape:pageshadow="2"
     inkscape:window-width="1853"
     inkscape:window-height="1056"
     id="namedview381"
     showgrid="false"
     inkscape:zoom="0.23"
     inkscape:cx="700"
     inkscape:cy="490"
     inkscape:window-x="67"
     inkscape:window-y="24"
     inkscape:window-maximized="1"
     inkscape:current-layer="Layer_1" /><style
     type="text/css"
     id="style3">
	.st0{opacity:0.29;fill:#73C3FF;}
	.st1{fill:#73C3FF;}
	.st2{fill:#47A4DD;}
	.st3{fill:#7FB500;}
	.st4{fill:#FAE200;}
	.st5{fill:#FF7B36;}
	.st6{fill:#FC1900;}
	.st7{fill:#E0DFDE;}
	.st8{fill:#9B9A9A;}
	.st9{opacity:0.59;fill:#9B9A9A;}
	.st10{fill:#C6C5C4;}
	.st11{fill:#EFEEED;}
	.st12{opacity:0.42;fill:#E6E7E1;}
	.st13{opacity:0.57;fill:#EFEEED;}
	.st14{fill:#E6E7E1;}
	.st15{fill:#6F9604;}
	.st16{fill:#321C1F;}
	.st17{fill:#282F39;}
	.st18{fill:#ED5B1B;}
	.st19{fill:#FFFFFF;}
	.st20{fill:#F5F2E0;}
	.st21{opacity:0.75;}
	.st22{fill:#EADFA7;}
</style><g
     id="g5"><g
       id="g7"><path
         class="st0"
         d="M1343.6,362.6h-83.9c2.5-3,6.9-5,12-5h54.9c9.1,0,16.5-5.6,16.5-12.4v0c0-6.8-7.4-12.4-16.5-12.4h-171.8    c-5,0-9-3.1-9-6.8c0-3.8,4.1-6.8,9-6.8h120.6c3.9,0,7.1-2.7,7.1-6.1v-3c0-3.3-3.2-6.1-7.1-6.1H949c-3.9,0-7.1,2.7-7.1,6.1v3    c0,3.3,3.2,6.1,7.1,6.1h120.6c5,0,9,3.1,9,6.8c0,3.8-4.1,6.8-9,6.8H897.8c-9.1,0-16.5,5.6-16.5,12.4v0c0,6.8,7.4,12.4,16.5,12.4    h54.9c5,0,9.5,2,12,5H838.7c-9.6,0-17.4,6.7-17.4,14.9v7.4c0,8.2,7.8,14.9,17.4,14.9h93c7.8,0,14.2,4.8,14.2,10.7v0    c0,5.9-6.4,10.7-14.2,10.7h-54.9c-9.1,0-16.5,5.6-16.5,12.4v0c0,6.8,7.4,12.4,16.5,12.4h171.8c5,0,9,3.1,9,6.8    c0,3.8-4.1,6.8-9,6.8H928c-3.9,0-7.1,2.7-7.1,6.1v3c0,3.3,3.2,6.1,7.1,6.1h326.4c3.9,0,7.1-2.7,7.1-6.1v-3c0-3.3-3.2-6.1-7.1-6.1    h-120.6c-5,0-9-3.1-9-6.8c0-3.8,4.1-6.8,9-6.8h171.8c9.1,0,16.5-5.6,16.5-12.4v0c0-6.8-7.4-12.4-16.5-12.4h-54.9    c-7.8,0-14.2-4.8-14.2-10.7v0c0-5.9,6.4-10.7,14.2-10.7h93c9.6,0,17.4-6.7,17.4-14.9v-7.4C1361,369.3,1353.1,362.6,1343.6,362.6z"
         id="path9" /><path
         class="st0"
         d="M530.9,378.3h-67.6c2-2.4,5.6-4,9.6-4h44.2c7.3,0,13.3-4.5,13.3-10v0c0-5.5-6-10-13.3-10H378.8    c-4,0-7.3-2.5-7.3-5.5c0-3,3.3-5.5,7.3-5.5h97.1c3.1,0,5.7-2.2,5.7-4.9V336c0-2.7-2.6-4.9-5.7-4.9H213.2c-3.1,0-5.7,2.2-5.7,4.9    v2.4c0,2.7,2.6,4.9,5.7,4.9h97.1c4,0,7.3,2.5,7.3,5.5c0,3-3.3,5.5-7.3,5.5H172c-7.3,0-13.3,4.5-13.3,10v0c0,5.5,6,10,13.3,10h44.2    c4,0,7.6,1.6,9.6,4H124.5c-7.7,0-14,5.4-14,12v6c0,6.6,6.3,12,14,12h74.8c6.3,0,11.4,3.9,11.4,8.6v0c0,4.7-5.1,8.6-11.4,8.6h-44.2    c-7.3,0-13.3,4.5-13.3,10v0c0,5.5,6,10,13.3,10h138.3c4,0,7.3,2.5,7.3,5.5c0,3-3.3,5.5-7.3,5.5h-97.1c-3.1,0-5.7,2.2-5.7,4.9v2.4    c0,2.7,2.6,4.9,5.7,4.9H459c3.1,0,5.7-2.2,5.7-4.9v-2.4c0-2.7-2.6-4.9-5.7-4.9h-97.1c-4,0-7.3-2.5-7.3-5.5c0-3,3.3-5.5,7.3-5.5    h138.3c7.3,0,13.3-4.5,13.3-10v0c0-5.5-6-10-13.3-10H456c-6.3,0-11.4-3.9-11.4-8.6v0c0-4.7,5.1-8.6,11.4-8.6h74.8    c7.7,0,14-5.4,14-12v-6C544.9,383.7,538.6,378.3,530.9,378.3z"
         id="path11" /><g
         id="g13"><path
           class="st1"
           d="M881.1,729.2v-84c-6.2,0.6-9.5,4.1-12.2,7c-1.3,1.4-2.6,2.7-4,3.6c-1.5,1-3.2,1.4-5.2,1.4     c-2.1,0-3.7-0.4-5.2-1.4c-1.5-0.9-2.7-2.2-4-3.6c-3-3.2-6.7-7.1-14.1-7.1s-11.1,3.9-14.1,7.1c-1.3,1.4-2.6,2.7-4,3.6     c-1.5,1-3.2,1.4-5.2,1.4s-3.7-0.4-5.2-1.4c-1.5-0.9-2.7-2.2-4-3.6c-3-3.2-6.7-7.1-14.1-7.1c-7.4,0-11.1,3.9-14.1,7.1     c-1.3,1.4-2.6,2.7-4,3.6c-1.5,1-3.2,1.4-5.2,1.4c-2.1,0-3.7-0.4-5.2-1.4c-1.5-0.9-2.7-2.2-4-3.6c-3-3.2-6.6-7.1-14-7.1v0     c0,0-0.1,0-0.1,0c0,0-0.1,0-0.1,0v0c-7.3,0.1-11,4-14,7.1c-1.3,1.4-2.6,2.7-4,3.6c-1.5,1-3.2,1.4-5.2,1.4c-2.1,0-3.7-0.4-5.2-1.4     c-1.5-0.9-2.7-2.2-4-3.6c-3-3.2-6.7-7.1-14.1-7.1s-11.1,3.9-14.1,7.1c-1.3,1.4-2.6,2.7-4,3.6c-1.5,1-3.2,1.4-5.2,1.4     c-2.1,0-3.7-0.4-5.2-1.4c-1.5-0.9-2.7-2.2-4-3.6c-3-3.2-6.7-7.1-14.1-7.1c-7.4,0-11.1,3.9-14.1,7.1c-1.3,1.4-2.6,2.7-4,3.6     c-1.5,1-3.2,1.4-5.2,1.4s-3.7-0.4-5.2-1.4c-1.5-0.9-2.7-2.2-4-3.6c-3-3.2-6.7-7.1-14-7.1v0c0,0,0,0,0,0c0,0,0,0,0,0v0     c-7.4,0-11.1,4-14,7.1c-1.3,1.4-2.6,2.7-4,3.6c-1.5,1-3.2,1.4-5.2,1.4s-3.7-0.4-5.2-1.4c-1.5-0.9-2.7-2.2-4-3.6     c-3-3.2-6.7-7.1-14.1-7.1c-7.4,0-11.1,3.9-14.1,7.1c-1.3,1.4-2.6,2.7-4,3.6c-1.5,1-3.2,1.4-5.2,1.4c-2.1,0-3.7-0.4-5.2-1.4     c-1.5-0.9-2.7-2.2-4-3.6c-3-3.2-6.7-7.1-14.1-7.1c-7.4,0-11.1,3.9-14.1,7.1c-1.3,1.4-2.6,2.7-4,3.6c-1.5,1-3.2,1.4-5.2,1.4     c-2.1,0-3.7-0.4-5.2-1.4c-1.5-0.9-2.7-2.2-4-3.6c-3-3.2-6.6-7.1-14-7.1v0c0,0-0.1,0-0.1,0c0,0-0.1,0-0.1,0v0     c-7.3,0.1-11,4-14,7.1c-1.3,1.4-2.6,2.7-4,3.6c-1.5,1-3.2,1.4-5.2,1.4s-3.7-0.4-5.2-1.4c-1.5-0.9-2.7-2.2-4-3.6     c-3-3.2-6.7-7.1-14.1-7.1c-7.4,0-11.1,3.9-14.1,7.1c-1.3,1.4-2.6,2.7-4,3.6c-1.5,1-3.2,1.4-5.2,1.4s-3.7-0.4-5.2-1.4     c-1.5-0.9-2.7-2.2-4-3.6c-3-3.2-6.7-7.1-14.1-7.1c-7.4,0-11.1,3.9-14.1,7.1c-1.3,1.4-2.6,2.7-4,3.6c-1.5,1-3.2,1.4-5.2,1.4     c-2.1,0-3.7-0.4-5.2-1.4c-1.5-0.9-2.7-2.2-4-3.6c-3-3.2-6.7-7.1-14.1-7.1v84.1H881.1z"
           id="path15" /><path
           class="st2"
           d="M881.1,753.2v-84c-6.2,0.6-9.5,4.1-12.2,7c-1.3,1.4-2.6,2.7-4,3.6c-1.5,1-3.2,1.4-5.2,1.4     c-2.1,0-3.7-0.4-5.2-1.4c-1.5-0.9-2.7-2.2-4-3.6c-3-3.2-6.7-7.1-14.1-7.1s-11.1,3.9-14.1,7.1c-1.3,1.4-2.6,2.7-4,3.6     c-1.5,1-3.2,1.4-5.2,1.4s-3.7-0.4-5.2-1.4c-1.5-0.9-2.7-2.2-4-3.6c-3-3.2-6.7-7.1-14.1-7.1c-7.4,0-11.1,3.9-14.1,7.1     c-1.3,1.4-2.6,2.7-4,3.6c-1.5,1-3.2,1.4-5.2,1.4c-2.1,0-3.7-0.4-5.2-1.4c-1.5-0.9-2.7-2.2-4-3.6c-3-3.2-6.6-7.1-14-7.1v0     c0,0-0.1,0-0.1,0c0,0-0.1,0-0.1,0v0c-7.3,0.1-11,4-14,7.1c-1.3,1.4-2.6,2.7-4,3.6c-1.5,1-3.2,1.4-5.2,1.4c-2.1,0-3.7-0.4-5.2-1.4     c-1.5-0.9-2.7-2.2-4-3.6c-3-3.2-6.7-7.1-14.1-7.1s-11.1,3.9-14.1,7.1c-1.3,1.4-2.6,2.7-4,3.6c-1.5,1-3.2,1.4-5.2,1.4     c-2.1,0-3.7-0.4-5.2-1.4c-1.5-0.9-2.7-2.2-4-3.6c-3-3.2-6.7-7.1-14.1-7.1c-7.4,0-11.1,3.9-14.1,7.1c-1.3,1.4-2.6,2.7-4,3.6     c-1.5,1-3.2,1.4-5.2,1.4s-3.7-0.4-5.2-1.4c-1.5-0.9-2.7-2.2-4-3.6c-3-3.2-6.7-7.1-14-7.1v0c0,0,0,0,0,0c0,0,0,0,0,0v0     c-7.4,0-11.1,4-14,7.1c-1.3,1.4-2.6,2.7-4,3.6c-1.5,1-3.2,1.4-5.2,1.4s-3.7-0.4-5.2-1.4c-1.5-0.9-2.7-2.2-4-3.6     c-3-3.2-6.7-7.1-14.1-7.1c-7.4,0-11.1,3.9-14.1,7.1c-1.3,1.4-2.6,2.7-4,3.6c-1.5,1-3.2,1.4-5.2,1.4c-2.1,0-3.7-0.4-5.2-1.4     c-1.5-0.9-2.7-2.2-4-3.6c-3-3.2-6.7-7.1-14.1-7.1c-7.4,0-11.1,3.9-14.1,7.1c-1.3,1.4-2.6,2.7-4,3.6c-1.5,1-3.2,1.4-5.2,1.4     c-2.1,0-3.7-0.4-5.2-1.4c-1.5-0.9-2.7-2.2-4-3.6c-3-3.2-6.6-7.1-14-7.1v0c0,0-0.1,0-0.1,0c0,0-0.1,0-0.1,0v0     c-7.3,0.1-11,4-14,7.1c-1.3,1.4-2.6,2.7-4,3.6c-1.5,1-3.2,1.4-5.2,1.4s-3.7-0.4-5.2-1.4c-1.5-0.9-2.7-2.2-4-3.6     c-3-3.2-6.7-7.1-14.1-7.1c-7.4,0-11.1,3.9-14.1,7.1c-1.3,1.4-2.6,2.7-4,3.6c-1.5,1-3.2,1.4-5.2,1.4s-3.7-0.4-5.2-1.4     c-1.5-0.9-2.7-2.2-4-3.6c-3-3.2-6.7-7.1-14.1-7.1c-7.4,0-11.1,3.9-14.1,7.1c-1.3,1.4-2.6,2.7-4,3.6c-1.5,1-3.2,1.4-5.2,1.4     c-2.1,0-3.7-0.4-5.2-1.4c-1.5-0.9-2.7-2.2-4-3.6c-3-3.2-6.7-7.1-14.1-7.1v84.1H881.1z"
           id="path17" /><g
           id="g19"><path
             class="st3"
             d="M820.8,627.1c0-0.1,0-0.1,0-0.2c0-35.5-13.8-68.8-38.9-93.9c-25.1-25.1-58.4-38.9-93.9-38.9      s-68.8,13.8-93.9,38.9c-25.1,25.1-38.9,58.4-38.9,93.9c0,0.1,0,0.1,0,0.2h-26.3c0-0.1,0-0.1,0-0.2      c0-87.9,71.2-159.1,159.1-159.1S847.1,539,847.1,626.8c0,0.1,0,0.1,0,0.2H820.8z"
             id="path21" /><path
             class="st4"
             d="M794.5,627.1c0-0.1,0-0.1,0-0.2c0-28.4-11.1-55.2-31.2-75.3c-20.1-20.1-46.9-31.2-75.3-31.2      s-55.2,11.1-75.3,31.2c-20.1,20.1-31.2,46.9-31.2,75.3c0,0.1,0,0.1,0,0.2h-26.3c0-0.1,0-0.1,0-0.2c0-35.5,13.8-68.8,38.9-93.9      c25.1-25.1,58.4-38.9,93.9-38.9s68.8,13.8,93.9,38.9c25.1,25.1,38.9,58.4,38.9,93.9c0,0.1,0,0.1,0,0.2H794.5z"
             id="path23" /><path
             class="st5"
             d="M768.5,626.6c0-0.1,0-0.1,0-0.2c-0.1-21.4-8.6-41.5-23.8-56.6c-15.2-15.1-35.4-23.3-56.8-23.2      s-41.5,8.6-56.6,23.8c-15.1,15.2-23.3,35.4-23.2,56.8c0,0.1,0,0.1,0,0.2l-26.3,0.1c0-0.1,0-0.1,0-0.2      c-0.2-28.4,10.8-55.2,30.8-75.5c20-20.2,46.7-31.4,75.1-31.6c28.4-0.2,55.2,10.8,75.5,30.8c20.2,20,31.4,46.7,31.6,75.1      c0,0.1,0,0.1,0,0.2L768.5,626.6z"
             id="path25" /><path
             class="st6"
             d="M741.9,627.1c0-0.1,0-0.1,0-0.2c0-14.4-5.6-27.9-15.8-38.1c-10.2-10.2-23.7-15.8-38.1-15.8      s-27.9,5.6-38.1,15.8c-10.2,10.2-15.8,23.7-15.8,38.1c0,0.1,0,0.1,0,0.2h-26.3c0-0.1,0-0.1,0-0.2c0-21.4,8.3-41.6,23.5-56.7      c15.1-15.1,35.3-23.5,56.7-23.5s41.6,8.3,56.7,23.5c15.1,15.1,23.5,35.3,23.5,56.7c0,0.1,0,0.1,0,0.2H741.9z"
             id="path27" /><path
             class="st6"
             d="M607.7,741.5c0-121.9,0-114.7,0-114.7l26.4,0.2v114.4H607.7z"
             id="path29" /><path
             class="st3"
             d="M528.9,741.5c0-121.9,0-114.7,0-114.7l26.4,0.2v114.4H528.9z"
             id="path31" /><path
             class="st4"
             d="M555.2,741.5c0-121.9,0-114.7,0-114.7l26.4,0.2v114.4H555.2z"
             id="path33" /><path
             class="st5"
             d="M581.5,741.5c0-121.9,0-114.7,0-114.7l26.4,0.2v114.4H581.5z"
             id="path35" /></g><g
           id="g37"><g
             id="g39"><rect
               x="889.3"
               y="483.8"
               class="st7"
               width="120.6"
               height="78.6"
               id="rect41" /><rect
               x="884.4"
               y="484"
               class="st8"
               width="130.4"
               height="11.4"
               id="rect43" /><path
               class="st9"
               d="M957.9,521.6h-16.6c-10.9,0-19.8,8.9-19.8,19.8v21.1h56.2v-21.1C977.7,530.4,968.8,521.6,957.9,521.6z"
               id="path45" /><g
               id="g47"><rect
                 x="884.4"
                 y="467.5"
                 class="st8"
                 width="19.5"
                 height="16.4"
                 id="rect49" /><rect
                 x="921.4"
                 y="467.5"
                 class="st8"
                 width="19.5"
                 height="16.4"
                 id="rect51" /><rect
                 x="958.4"
                 y="467.5"
                 class="st8"
                 width="19.5"
                 height="16.4"
                 id="rect53" /><rect
                 x="995.4"
                 y="467.5"
                 class="st8"
                 width="19.5"
                 height="16.4"
                 id="rect55" /></g></g><g
             id="g57"><rect
               x="728.4"
               y="425.3"
               class="st10"
               width="116.3"
               height="75.8"
               id="rect59" /><rect
               x="723.7"
               y="425.5"
               class="st8"
               width="125.8"
               height="11"
               id="rect61" /><path
               class="st8"
               d="M794.6,461.8h-16c-10.5,0-19.1,8.5-19.1,19.1v20.3h54.1v-20.3C813.6,470.3,805.1,461.8,794.6,461.8z"
               id="path63" /><g
               id="g65"><rect
                 x="723.7"
                 y="409.7"
                 class="st8"
                 width="18.8"
                 height="15.9"
                 id="rect67" /><rect
                 x="759.3"
                 y="409.7"
                 class="st8"
                 width="18.8"
                 height="15.9"
                 id="rect69" /><rect
                 x="795"
                 y="409.7"
                 class="st8"
                 width="18.8"
                 height="15.9"
                 id="rect71" /><rect
                 x="830.7"
                 y="409.7"
                 class="st8"
                 width="18.8"
                 height="15.9"
                 id="rect73" /></g></g><rect
             x="843.1"
             y="562.5"
             class="st7"
             width="213"
             height="159.3"
             id="rect75" /><rect
             x="843.1"
             y="562.5"
             class="st8"
             width="213"
             height="7.5"
             id="rect77" /><path
             class="st9"
             d="M990.2,679.4v42.3H909v-42.3c0-19.9,16.2-36.1,36.1-36.1h9.1C974.1,643.3,990.2,659.5,990.2,679.4z"
             id="path79" /><rect
             x="733.5"
             y="500.8"
             class="st10"
             width="109.6"
             height="220.9"
             id="rect81" /><rect
             x="733.5"
             y="600.4"
             class="st8"
             width="109.6"
             height="5.4"
             id="rect83" /><rect
             x="733.5"
             y="500.8"
             class="st8"
             width="109.6"
             height="7.6"
             id="rect85" /><g
             id="g87"><rect
               x="1054.3"
               y="425.3"
               transform="matrix(-1 -4.492152e-11 4.492152e-11 -1 2224.9714 926.5017)"
               class="st10"
               width="116.3"
               height="75.8"
               id="rect89" /><rect
               x="1049.6"
               y="425.5"
               transform="matrix(-1 -4.487800e-11 4.487800e-11 -1 2224.9714 862.0207)"
               class="st8"
               width="125.8"
               height="11"
               id="rect91" /><path
               class="st8"
               d="M1104.5,461.8h16c10.5,0,19.1,8.5,19.1,19.1v20.3h-54.1v-20.3C1085.4,470.3,1093.9,461.8,1104.5,461.8z"
               id="path93" /><g
               id="g95"><rect
                 x="1156.6"
                 y="409.7"
                 class="st8"
                 width="18.8"
                 height="15.9"
                 id="rect97" /><rect
                 x="1120.9"
                 y="409.7"
                 class="st8"
                 width="18.8"
                 height="15.9"
                 id="rect99" /><rect
                 x="1085.3"
                 y="409.7"
                 class="st8"
                 width="18.8"
                 height="15.9"
                 id="rect101" /><rect
                 x="1049.6"
                 y="409.7"
                 class="st8"
                 width="18.8"
                 height="15.9"
                 id="rect103" /></g></g><rect
             x="1056"
             y="500.8"
             transform="matrix(-1 -4.489221e-11 4.489221e-11 -1 2221.4636 1222.5687)"
             class="st10"
             width="109.6"
             height="220.9"
             id="rect105" /><rect
             x="1056"
             y="500.8"
             transform="matrix(-1 -4.489221e-11 4.489221e-11 -1 2221.4636 1009.2357)"
             class="st8"
             width="109.6"
             height="7.6"
             id="rect107" /><rect
             x="834.8"
             y="500.8"
             class="st8"
             width="8.3"
             height="220.9"
             id="rect109" /><rect
             x="1056"
             y="500.8"
             class="st8"
             width="8.3"
             height="220.9"
             id="rect111" /><rect
             x="866.3"
             y="594.1"
             class="st11"
             width="29.8"
             height="15.6"
             id="rect113" /><rect
             x="1013"
             y="650.1"
             class="st11"
             width="29.8"
             height="15.6"
             id="rect115" /><rect
             x="795.4"
             y="688.4"
             class="st12"
             width="29.8"
             height="15.6"
             id="rect117" /><rect
             x="1075.4"
             y="692"
             class="st13"
             width="29.8"
             height="15.6"
             id="rect119" /><rect
             x="1127"
             y="682.5"
             class="st12"
             width="29.8"
             height="15.6"
             id="rect121" /><rect
             x="1131.1"
             y="615.2"
             class="st13"
             width="29.8"
             height="15.6"
             id="rect123" /><rect
             x="1078.8"
             y="520.8"
             class="st13"
             width="29.8"
             height="15.6"
             id="rect125" /><rect
             x="995.3"
             y="590.3"
             class="st11"
             width="25.6"
             height="13.4"
             id="rect127" /><rect
             x="852.1"
             y="696.2"
             class="st14"
             width="25.6"
             height="13.4"
             id="rect129" /><rect
             x="871.9"
             y="676.1"
             class="st14"
             width="25.6"
             height="13.4"
             id="rect131" /><rect
             x="737.3"
             y="527.9"
             class="st13"
             width="25.6"
             height="13.4"
             id="rect133" /><rect
             x="740.7"
             y="698.5"
             class="st12"
             width="25.6"
             height="13.4"
             id="rect135" /><path
             class="st8"
             d="M803.9,585.9v-23.3c0-9.8-7.9-17.7-17.7-17.7l0,0c-9.8,0-17.7,7.9-17.7,17.7v23.3H803.9z"
             id="path137" /><path
             class="st8"
             d="M803.9,668.7v-23.3c0-9.8-7.9-17.7-17.7-17.7l0,0c-9.8,0-17.7,7.9-17.7,17.7v23.3H803.9z"
             id="path139" /><g
             id="g141"><rect
               x="1056"
               y="600.4"
               class="st8"
               width="109.6"
               height="5.4"
               id="rect143" /><path
               class="st8"
               d="M1126.3,585.9v-23.3c0-9.8-7.9-17.7-17.7-17.7l0,0c-9.8,0-17.7,7.9-17.7,17.7v23.3H1126.3z"
               id="path145" /><path
               class="st8"
               d="M1126.3,668.7v-23.3c0-9.8-7.9-17.7-17.7-17.7l0,0c-9.8,0-17.7,7.9-17.7,17.7v23.3H1126.3z"
               id="path147" /></g></g><g
           id="g149"><path
             class="st3"
             d="M1220.1,708.7c0.3-1.8,0.4-3.7,0.4-5.6c0-20.6-16.7-37.3-37.3-37.3c-20.6,0-37.3,16.7-37.3,37.3      c0,1.9,0.1,3.7,0.4,5.6H1220.1z"
             id="path151" /><path
             class="st15"
             d="M1183.2,665.8c-4,0-7.9,0.6-11.5,1.8c15,4.8,25.8,18.9,25.8,35.5c0,1.9-0.1,3.7-0.4,5.6h23      c0.3-1.8,0.4-3.7,0.4-5.6C1220.5,682.5,1203.8,665.8,1183.2,665.8z"
             id="path153" /></g><g
           id="g155"><path
             class="st3"
             d="M838.1,708.7c0.2-1.5,0.3-3,0.3-4.6c0-17-13.8-30.8-30.8-30.8c-17,0-30.8,13.8-30.8,30.8      c0,1.6,0.1,3.1,0.3,4.6H838.1z"
             id="path157" /><path
             class="st15"
             d="M807.6,673.3c-3.3,0-6.5,0.5-9.5,1.5c12.3,4,21.3,15.6,21.3,29.3c0,1.6-0.1,3.1-0.3,4.6h19      c0.2-1.5,0.3-3,0.3-4.6C838.4,687.1,824.6,673.3,807.6,673.3z"
             id="path159" /></g><g
           id="g161"><path
             class="st3"
             d="M900.3,708.7c0.2-1.7,0.4-3.4,0.4-5.1c0-19-15.4-34.4-34.4-34.4c-19,0-34.4,15.4-34.4,34.4      c0,1.7,0.1,3.5,0.4,5.1H900.3z"
             id="path163" /><path
             class="st15"
             d="M866.3,669.2c-3.7,0-7.3,0.6-10.6,1.7c13.8,4.5,23.8,17.4,23.8,32.7c0,1.7-0.1,3.5-0.4,5.1h21.2      c0.2-1.7,0.4-3.4,0.4-5.1C900.7,684.6,885.3,669.2,866.3,669.2z"
             id="path165" /></g><g
           id="g167"><path
             class="st3"
             d="M795,725.4c0.3-2.3,0.5-4.7,0.5-7.1c0-26.5-21.5-48-48-48c-26.5,0-48,21.5-48,48c0,2.4,0.2,4.8,0.5,7.1H795      z"
             id="path169" /><path
             class="st15"
             d="M747.6,670.2c-5.2,0-10.1,0.8-14.8,2.3c19.3,6.2,33.2,24.3,33.2,45.6c0,2.4-0.2,4.8-0.5,7.1H795      c0.3-2.3,0.5-4.7,0.5-7.1C795.5,691.7,774.1,670.2,747.6,670.2z"
             id="path171" /></g><g
           id="g173"><path
             class="st3"
             d="M1160.2,711.7c0.2-1.4,0.3-2.8,0.3-4.3c0-15.9-12.9-28.7-28.7-28.7c-15.9,0-28.7,12.9-28.7,28.7      c0,1.5,0.1,2.9,0.3,4.3H1160.2z"
             id="path175" /><path
             class="st15"
             d="M1131.8,678.7c-3.1,0-6.1,0.5-8.8,1.4c11.5,3.7,19.9,14.6,19.9,27.3c0,1.5-0.1,2.9-0.3,4.3h17.7      c0.2-1.4,0.3-2.8,0.3-4.3C1160.5,691.5,1147.6,678.7,1131.8,678.7z"
             id="path177" /></g><g
           id="g179"><polygon
             class="st5"
             points="303.8,653.2 259,653.2 273.5,494.2 289.3,494.2     "
             id="polygon181" /><path
             id="XMLID_107_"
             class="st15"
             d="M283.1,509.1c0,0-36.1-51.7-37.5-52.8l1.8-17.5l-11.1,12c0,0-10.5-10.4-22-11.5l-3-10      l-7.7,7.6c0,0-30.5-7.6-46.3-1.9c0,0,1.4-1.6,4-4c36.9-33.3,101.2-22.5,118.4,24.1C284.4,468.1,282.5,488.5,283.1,509.1z" /><path
             id="XMLID_1_"
             class="st15"
             d="M282.4,510.5c0,0,36.1-51.7,37.5-52.8l-1.8-17.5l11.1,12c0,0,10.5-10.4,22-11.5l3-10      l7.7,7.6c0,0,30.5-7.6,46.3-1.9c0,0-1.4-1.6-4-4c-36.9-33.3-101.2-22.5-118.4,24.1C281.1,469.5,283,489.9,282.4,510.5z" /><path
             id="XMLID_106_"
             class="st3"
             d="M283.3,510c0,0-34.7-15.7-36.3-16.4l-3.7-17.2l-6.8,14.9c0,0-13.2-6.6-24.5-4.1l-5.9-8.6      l-5,9.7c0,0-31.4,2.3-44.6,12.6c0,0,15.5-41.6,68.4-41.7C224.8,459,274.1,456.8,283.3,510z" /><g
             id="g186"><path
               id="XMLID_109_"
               class="st3"
               d="M283.3,510c0,0,34.7-15.7,36.3-16.4l3.7-17.2l6.8,14.9c0,0,13.2-6.6,24.5-4.1l5.9-8.6       l5,9.7c0,0,31.4,2.3,44.6,12.6c0,0-15.5-41.6-68.4-41.7C341.8,459,292.5,456.8,283.3,510z" /></g></g><g
           id="g189"><path
             class="st3"
             d="M411.1,705.1c-19-37.8-68.2-64.7-125.9-64.7s-106.8,26.9-125.9,64.7H411.1z"
             id="path191" /><path
             class="st15"
             d="M285.3,640.4c-9.2,0-18.3,0.7-27,2c45.6,6.9,82.9,31,98.9,62.7h54C392.1,667.3,342.9,640.4,285.3,640.4z"
             id="path193" /></g><path
           class="st11"
           d="M364.1,252.3h51.1c6.1,0,11.1-4.8,11.3-10.8c0-0.1,0-0.3,0-0.4c0-7.2-5-13.2-11.6-14.7     c-1.3-6.3-6.9-11.1-13.7-11.1c-1.8,0-3.4,0.3-5,0.9c-1.2-4.4-5.1-7.6-9.8-7.6c-4.4,0-8.2,2.9-9.6,6.8c-0.8-0.2-1.7-0.3-2.5-0.3     c-6.7,0-12.2,5.4-12.2,12.2c0,0.3,0,0.6,0,0.8c-5.3,2-9.1,7.1-9.1,13.1c0,0.1,0,0.3,0,0.4C353.1,247.6,358.1,252.3,364.1,252.3z"
           id="path195" /><path
           class="st1"
           d="M788.4,258.1h80.2c9.5,0,17.5-7.5,17.7-17c0-0.2,0-0.4,0-0.7c0-11.2-7.8-20.6-18.3-23.1     c-2.1-10-10.9-17.4-21.5-17.4c-2.8,0-5.4,0.5-7.8,1.4c-1.8-6.8-8-11.9-15.4-11.9c-7,0-12.9,4.5-15.1,10.7c-1.3-0.3-2.6-0.4-4-0.4     c-10.5,0-19.1,8.5-19.1,19.1c0,0.4,0,0.9,0.1,1.3c-8.4,3.1-14.3,11.1-14.3,20.5c0,0.2,0,0.4,0,0.7     C771.2,250.7,779,258.1,788.4,258.1z"
           id="path197" /><path
           class="st11"
           d="M59.8,390.2h94.9c11.3,0,20.7-8.9,21-20.1c0-0.3,0-0.5,0-0.8c0-13.3-9.2-24.4-21.6-27.4     c-2.5-11.8-12.9-20.6-25.4-20.6c-3.3,0-6.4,0.6-9.3,1.7c-2.1-8.1-9.5-14.1-18.3-14.1c-8.3,0-15.3,5.3-17.8,12.7     c-1.5-0.3-3.1-0.5-4.7-0.5c-12.5,0-22.6,10.1-22.6,22.6c0,0.5,0,1.1,0.1,1.6C46.1,349,39,358.5,39,369.6c0,0.3,0,0.5,0,0.8     C39.4,381.5,48.7,390.2,59.8,390.2z"
           id="path199" /><g
           id="g201"><path
             class="st5"
             d="M289.3,229.1l20.5-8l-20.3-8l17.7-13.1l-21.7-2.4l13.8-17.2l-21.6,3.3l8.8-20.2l-20,8.8l3.3-21.8l-17,13.6      l-2.4-21.9l-12.9,17.6l-8-20.5l-8,20.3l-13.1-17.7l-2.4,21.7l-17.2-13.8l3.3,21.6l-20.2-8.8l8.8,20l-21.8-3.3l13.6,17l-21.9,2.4      l17.6,12.9l-20.5,8l20.3,8l-17.7,13.1l21.7,2.4l-13.8,17.2l21.6-3.3l-8.8,20.2l20-8.8l-3.3,21.8l17-13.6l2.4,21.9L220,281      l8,20.5l8-20.3l13.1,17.7l2.4-21.7l17.2,13.8l-3.3-21.6l20.2,8.8l-8.8-20l21.8,3.3l-13.6-17l21.9-2.4L289.3,229.1z"
             id="path203" /><circle
             class="st4"
             cx="228.8"
             cy="220.4"
             r="51.8"
             id="circle205" /></g><g
           id="g207"><path
             class="st4"
             d="M1228.2,398.5h67.9c29.4-20.9,49.9-65.3,49.9-99.6c0-46.3-16.3-92.5-83.9-92.5c-64.9,0-83.9,46.2-83.9,92.5      C1178.3,333.2,1198.8,377.6,1228.2,398.5z"
             id="path209" /><path
             class="st5"
             d="M1204.7,298.9c0-43.1,16.4-86,70.9-91.8c-4.2-0.4-8.7-0.7-13.4-0.7c-64.9,0-83.9,46.2-83.9,92.5      c0,34.2,20.5,78.7,49.9,99.6h26.4C1225.2,377.6,1204.7,333.2,1204.7,298.9z"
             id="path211" /><path
             class="st5"
             d="M1320.8,298.9c0-43.1-16.4-86-70.9-91.8c4.2-0.4,8.7-0.7,13.4-0.7c64.9,0,83.9,46.2,83.9,92.5      c0,34.2-21.8,78.7-51.2,99.6h-25.1C1300.2,377.6,1320.8,333.2,1320.8,298.9z"
             id="path213" /><path
             class="st5"
             d="M1284.9,302.5c0-52.1-21.8-94.3-21.8-94.3s-21.8,42.2-21.8,94.3s21.8,94.3,21.8,94.3      S1284.9,354.6,1284.9,302.5z"
             id="path215" /><path
             class="st16"
             d="M1287.8,403.7c12.7-6.7,24.1-17.8,33.4-31.2h-117.9c9.3,13.3,20.7,24.5,33.4,31.2H1287.8z"
             id="path217" /><g
             id="g219"><polygon
               class="st17"
               points="1276.3,443.3 1248.3,443.3 1233.3,398.5 1239.9,396.3 1253.4,436.3 1271.3,436.3 1284.5,396.3        1291.1,398.5      "
               id="polygon221" /></g><rect
             x="1236.4"
             y="440.4"
             class="st18"
             width="51.6"
             height="37.3"
             id="rect223" /><rect
             x="1231.8"
             y="433.4"
             class="st5"
             width="60.8"
             height="7"
             id="rect225" /><rect
             x="1231.8"
             y="472.8"
             class="st5"
             width="60.8"
             height="7"
             id="rect227" /></g><g
           id="g229"><path
             class="st5"
             d="M448.7,473.5h60.4c26.1-18.6,44.4-58.1,44.4-88.6c0-41.2-14.5-82.3-74.6-82.3c-57.8,0-74.6,41.1-74.6,82.3      C404.3,415.4,422.6,454.9,448.7,473.5z"
             id="path231" /><path
             class="st6"
             d="M427.8,384.9c0-38.3,14.6-76.5,63.1-81.7c-3.8-0.4-7.7-0.6-11.9-0.6c-57.8,0-74.6,41.1-74.6,82.3      c0,30.4,18.2,70,44.4,88.6h23.5C446,454.9,427.8,415.4,427.8,384.9z"
             id="path233" /><path
             class="st6"
             d="M531,384.9c0-38.3-14.6-76.5-63.1-81.7c3.8-0.4,7.7-0.6,11.9-0.6c57.8,0,74.6,41.1,74.6,82.3      c0,30.4-19.4,70-45.5,88.6h-22.3C512.8,454.9,531,415.4,531,384.9z"
             id="path235" /><path
             class="st6"
             d="M499.1,388.1c0-46.3-19.4-83.9-19.4-83.9s-19.4,37.6-19.4,83.9s19.4,83.9,19.4,83.9      S499.1,434.4,499.1,388.1z"
             id="path237" /><path
             class="st16"
             d="M501.7,478.1c11.3-5.9,21.4-15.9,29.7-27.7H426.5c8.2,11.9,18.4,21.8,29.7,27.7H501.7z"
             id="path239" /><g
             id="g241"><polygon
               class="st17"
               points="491.8,513.7 466.3,513.7 452.9,473.6 459.5,471.4 471.4,506.7 486.7,506.7 498.4,471.4        505,473.6      "
               id="polygon243" /></g><rect
             x="456"
             y="510.7"
             class="st18"
             width="45.9"
             height="33.2"
             id="rect245" /><rect
             x="451.9"
             y="504.5"
             class="st5"
             width="54.1"
             height="6.2"
             id="rect247" /><rect
             x="451.9"
             y="539.5"
             class="st5"
             width="54.1"
             height="6.2"
             id="rect249" /></g><path
           class="st1"
           d="M1102.2,305.9h94.9c11.3,0,20.7-8.9,21-20.1c0-0.3,0-0.5,0-0.8c0-13.3-9.2-24.4-21.6-27.4     c-2.5-11.8-12.9-20.6-25.4-20.6c-3.3,0-6.4,0.6-9.3,1.7c-2.1-8.1-9.5-14.1-18.3-14.1c-8.3,0-15.3,5.3-17.8,12.7     c-1.5-0.3-3.1-0.5-4.7-0.5c-12.5,0-22.6,10.1-22.6,22.6c0,0.5,0,1.1,0.1,1.6c-9.9,3.6-16.9,13.1-16.9,24.3c0,0.3,0,0.5,0,0.8     C1081.9,297.2,1091.1,305.9,1102.2,305.9z"
           id="path251" /><path
           class="st1"
           d="M1228.3,583.5h94.9c11.3,0,20.7-8.9,21-20.1c0-0.3,0-0.5,0-0.8c0-13.3-9.2-24.4-21.6-27.4     c-2.5-11.8-12.9-20.6-25.4-20.6c-3.3,0-6.4,0.6-9.3,1.7c-2.1-8.1-9.5-14.1-18.3-14.1c-8.3,0-15.3,5.3-17.8,12.7     c-1.5-0.3-3.1-0.5-4.7-0.5c-12.5,0-22.6,10.1-22.6,22.6c0,0.5,0,1.1,0.1,1.6c-9.9,3.6-16.9,13.1-16.9,24.3c0,0.3,0,0.5,0,0.8     C1207.9,574.7,1217.2,583.5,1228.3,583.5z"
           id="path253" /><path
           class="st11"
           d="M1037.3,342.5h94.9c11.3,0,20.7-8.9,21-20.1c0-0.3,0-0.5,0-0.8c0-13.3-9.2-24.4-21.6-27.4     c-2.5-11.8-12.9-20.6-25.4-20.6c-3.3,0-6.4,0.6-9.3,1.7c-2.1-8.1-9.5-14.1-18.3-14.1c-8.3,0-15.3,5.3-17.8,12.7     c-1.5-0.3-3.1-0.5-4.7-0.5c-12.5,0-22.6,10.1-22.6,22.6c0,0.5,0,1.1,0.1,1.6c-9.9,3.6-16.9,13.1-16.9,24.3c0,0.3,0,0.5,0,0.8     C1016.9,333.7,1026.2,342.5,1037.3,342.5z"
           id="path255" /><g
           id="g257"><g
             id="g259"><path
               class="st5"
               d="M177.3,550.9c0,0,3.6-27.7-13.9-17.4c-15.8,9.3-14,26.9-2.4,26.4c13.5-0.6-22.9,5.3-14.2,15.7       c8.7,10.4,16.9,9.1,22.1,3.4c5.2-5.6,8-20.5,8-20.5L177.3,550.9z"
               id="path261" /><path
               class="st5"
               d="M184.8,554.3c0,0,18.6-20.8,22.3-0.9c3.3,18-11.2,28.2-18.4,19.1c-8.4-10.6,11,20.7-2.6,21       s-17.9-6.9-17.1-14.5c0.9-7.6,10.2-19.5,10.2-19.5L184.8,554.3z"
               id="path263" /></g><path
             class="st17"
             d="M182,550.5L182,550.5c-1.5-0.7-3.4,0-4.1,1.5l-12.5,27.4c-0.7,1.5,0,3.4,1.5,4.1l0,0      c1.5,0.7,3.4,0,4.1-1.5l12.5-27.4C184.2,553.1,183.5,551.2,182,550.5z"
             id="path265" /><path
             class="st17"
             d="M180.1,552.8c-0.1,0-0.3,0-0.4-0.1c-0.5-0.2-0.6-0.8-0.4-1.2c2-3.9,0.5-8.7,0.5-8.7      c-0.1-0.5,0.1-1,0.6-1.1c0.5-0.1,1,0.1,1.1,0.6c0.1,0.2,1.7,5.5-0.6,10.1C180.8,552.6,180.4,552.8,180.1,552.8z"
             id="path267" /><path
             class="st17"
             d="M181.8,553.6c-0.1,0-0.2,0-0.4-0.1c-0.5-0.2-0.7-0.7-0.5-1.2c2-4.8,7-7,7.2-7.1c0.5-0.2,1,0,1.2,0.5      c0.2,0.5,0,1-0.5,1.2c0,0-4.6,2-6.3,6.1C182.5,553.4,182.2,553.6,181.8,553.6z"
             id="path269" /></g><g
           id="g271"><g
             id="g273"><path
               class="st4"
               d="M327.1,534.2c0,0-11-14.3-14.4-1.6c-3,11.5,5.9,18.8,11,13.2c5.9-6.5-8.1,12.9,0.7,13.7s11.9-3.6,11.7-8.5       c-0.2-5-5.7-13.1-5.7-13.1L327.1,534.2z"
               id="path275" /><path
               class="st4"
               d="M332.1,532.4c0,0-1-18.1,9.8-10.6c9.8,6.7,7.8,18.1,0.3,17.2c-8.7-1,14.5,4.5,8.4,10.8       c-6.1,6.3-11.4,5.1-14.5,1.2c-3.1-3.9-4.2-13.6-4.2-13.6L332.1,532.4z"
               id="path277" /></g><path
             class="st17"
             d="M329.1,531.9L329.1,531.9c-1,0.4-1.6,1.5-1.2,2.6l6.8,18.3c0.4,1,1.5,1.6,2.6,1.2l0,0      c1-0.4,1.6-1.5,1.2-2.6l-6.8-18.3C331.3,532.1,330.1,531.5,329.1,531.9z"
             id="path279" /><path
             class="st17"
             d="M329.3,533.8c-0.1,0.1-0.1,0.1-0.2,0.1c-0.3,0.1-0.6-0.1-0.7-0.4c-0.9-2.7-3.7-4.2-3.8-4.2      c-0.3-0.2-0.4-0.5-0.2-0.8c0.2-0.3,0.5-0.4,0.8-0.3c0.1,0.1,3.3,1.7,4.3,4.9C329.5,533.5,329.5,533.7,329.3,533.8z"
             id="path281" /><path
             class="st17"
             d="M330.5,533.4c-0.1,0.1-0.1,0.1-0.2,0.1c-0.3,0.1-0.6,0-0.8-0.3c-1.3-3.1,0-6.4,0.1-6.5      c0.1-0.3,0.5-0.5,0.8-0.3c0.3,0.1,0.5,0.5,0.3,0.8c0,0-1.2,3-0.1,5.7C330.7,533,330.6,533.2,330.5,533.4z"
             id="path283" /></g><g
           id="g285"><g
             id="g287"><path
               class="st6"
               d="M368.5,595.4c0,0-10.5-17.6-15.9-3.8c-4.9,12.5,4.2,21.9,10.6,16.4c7.5-6.5-10.8,13.4-1.1,15.5       c9.8,2.1,13.9-2.5,14.4-8.1s-4.6-15.5-4.6-15.5L368.5,595.4z"
               id="path289" /><path
               class="st6"
               d="M374.4,594c0,0,1.3-20.5,12.5-10.7c10.1,8.9,6.3,21.4-1.9,19.4c-9.7-2.3,15.8,7,8.1,13.3       c-7.7,6.3-13.5,4.2-16.4-0.6c-3-4.8-3-15.9-3-15.9L374.4,594z"
               id="path291" /></g><path
             class="st17"
             d="M371.1,593.1L371.1,593.1c-1.2,0.3-2,1.5-1.7,2.7l5.2,21.6c0.3,1.2,1.5,2,2.7,1.7l0,0      c1.2-0.3,2-1.5,1.7-2.7l-5.2-21.6C373.5,593.5,372.3,592.8,371.1,593.1z"
             id="path293" /><path
             class="st17"
             d="M371,595.3c-0.1,0.1-0.2,0.1-0.3,0.1c-0.4,0.1-0.7-0.2-0.8-0.5c-0.7-3.2-3.6-5.3-3.7-5.3      c-0.3-0.2-0.4-0.6-0.2-0.9c0.2-0.3,0.6-0.4,0.9-0.2c0.1,0.1,3.5,2.4,4.2,6.1C371.3,594.9,371.2,595.1,371,595.3z"
             id="path295" /><path
             class="st17"
             d="M372.4,594.9c-0.1,0.1-0.1,0.1-0.2,0.1c-0.4,0.1-0.7-0.1-0.8-0.5c-1-3.7,0.9-7.2,1-7.4      c0.2-0.3,0.6-0.4,0.9-0.3c0.3,0.2,0.4,0.6,0.3,0.9c0,0-1.7,3.2-0.9,6.4C372.7,594.5,372.6,594.8,372.4,594.9z"
             id="path297" /></g><g
           id="g299"><path
             class="st5"
             d="M660.5,392.6v-9.1c0-6-4.9-9.7-11-9.7l0,0c-6,0-11,3.6-11,9.7v9.1c-1.9,19.6,21.1,20.6,21.1,20.6      c21.8,0.5,27-18.3,27-18.3C678.5,400.7,660.5,392.6,660.5,392.6z"
             id="path301" /><circle
             class="st19"
             cx="644.2"
             cy="382"
             r="1.7"
             id="circle303" /><path
             class="st6"
             d="M652.3,395.1c7-5.7,18.1-15.1,18.8-17.3c0,0,0.2,6.5-2.1,8c-2.3,1.5,8.5-2.6,10.6-10.4      c0,0-1.8,34.9-25.9,27.2C650.4,401.7,649.6,397.4,652.3,395.1z"
             id="path305" /><path
             class="st5"
             d="M640.2,382.7c0,0-7-2.3-9.3-1.7l8.8,6.4L640.2,382.7z"
             id="path307" /><path
             class="st5"
             d="M640.1,385c0,0-7.3,0.9-9.2,2.4l10.7,2.1L640.1,385z"
             id="path309" /><path
             class="st6"
             d="M686.8,395c0,0,0.6-14.9,1.4-12.3c0.8,2.6,7.4-3.5,6.1-0.2c-1.2,3.3,4.9,2.8,2.3,5.6S686.8,395,686.8,395z"
             id="path311" /></g><g
           id="g313"><path
             class="st5"
             d="M366.1,308.5v-10.6c0-7,5.7-11.2,12.7-11.2l0,0c7,0,12.7,4.2,12.7,11.2v10.6c2.2,22.8-24.5,24-24.5,24      c-25.3,0.5-31.4-21.3-31.4-21.3C345.2,317.8,366.1,308.5,366.1,308.5z"
             id="path315" /><circle
             class="st19"
             cx="385"
             cy="296.2"
             r="2"
             id="circle317" /><path
             class="st6"
             d="M375.6,311.4c-8.1-6.7-21.1-17.6-21.9-20.1c0,0-0.3,7.6,2.4,9.3c2.7,1.8-9.9-3-12.3-12.1      c0,0,2.1,40.6,30.1,31.7C377.8,319,378.8,314,375.6,311.4z"
             id="path319" /><path
             class="st5"
             d="M389.8,296.9c0,0,8.1-2.6,10.8-2l-10.2,7.5L389.8,296.9z"
             id="path321" /><path
             class="st5"
             d="M389.8,299.6c0,0,8.5,1.1,10.7,2.8l-12.4,2.4L389.8,299.6z"
             id="path323" /><path
             class="st6"
             d="M335.6,311.2c0,0-0.7-17.4-1.6-14.3c-0.9,3.1-8.6-4.1-7.1-0.3c1.4,3.8-5.7,3.3-2.7,6.5      C327.2,306.4,335.6,311.2,335.6,311.2z"
             id="path325" /></g><g
           id="g327"><path
             class="st3"
             d="M754.1,768.5c0.5-3.3,0.8-6.7,0.8-10.2c0-37.9-30.7-68.5-68.5-68.5c-37.9,0-68.5,30.7-68.5,68.5      c0,3.5,0.3,6.9,0.8,10.2H754.1z"
             id="path329" /><path
             class="st15"
             d="M686.3,689.8c-7.4,0-14.5,1.2-21.1,3.3c27.5,8.9,47.4,34.7,47.4,65.2c0,3.5-0.3,6.9-0.8,10.2h42.2      c0.5-3.3,0.8-6.7,0.8-10.2C754.9,720.4,724.2,689.8,686.3,689.8z"
             id="path331" /></g><g
           id="g333"><path
             class="st3"
             d="M476.2,730.5c0.4-2.7,0.6-5.4,0.6-8.1c0-30.2-24.5-54.7-54.7-54.7c-30.2,0-54.7,24.5-54.7,54.7      c0,2.8,0.2,5.5,0.6,8.1H476.2z"
             id="path335" /><path
             class="st15"
             d="M422.2,667.7c-5.9,0-11.5,0.9-16.8,2.7c22,7.1,37.8,27.7,37.8,52c0,2.8-0.2,5.5-0.6,8.1h33.7      c0.4-2.7,0.6-5.4,0.6-8.1C476.8,692.2,452.4,667.7,422.2,667.7z"
             id="path337" /></g><g
           id="g339"><path
             class="st20"
             d="M687.9,769.2c0,0-22.5-62.8-92.3-64.1H149.7c0,0-40.6,26.3-35,75.8l34,16.2h518.6L687.9,769.2z"
             id="path341" /><g
             class="st21"
             id="g343"><path
               class="st22"
               d="M595.6,714.9H138.3c-1.7,1.8-3.6,3.8-5.4,6.1l462.7,0c27.9,0.5,50.2,12,66.6,34.3       c8.2,11.2,12.7,22.4,14.9,28.7l4.3-5.9c-2.6-6.8-7.1-16.5-14.2-26.2C655.1,735.4,632.9,715.6,595.6,714.9z"
               id="path345" /><path
               class="st22"
               d="M587.9,729.4H126.7c-1.2,1.9-2.4,3.9-3.5,6.1l464.6,0c27.9,0.5,50.2,12,66.6,34.3       c7.1,9.7,11.5,19.5,13.9,26l4.3-5.8c-2.7-6.6-6.9-15.1-13.2-23.6C647.4,749.9,625.2,730.1,587.9,729.4z"
               id="path347" /><path
               class="st22"
               d="M584.5,764.8h-470c-0.2,2-0.3,4-0.3,6.1l470.3,0c24.3,0.4,44.4,9.3,60,26.3h8       C639.8,781.8,618.4,765.4,584.5,764.8z"
               id="path349" /><path
               class="st22"
               d="M584.5,741h-464c-0.7,1.6-1.4,3.3-2,5.1h465.9c28,0.5,50.6,12.1,67,34.5c4.2,5.7,7.4,11.4,9.9,16.5h5.6       c-2.6-5.8-6.3-12.5-11.3-19.4C643.7,761.4,621.6,741.7,584.5,741z"
               id="path351" /><path
               class="st22"
               d="M584.5,753.3H116.3c-0.5,2-0.9,4-1.2,6.1l469.3,0c27.9,0.5,50.2,12,66.6,34.3c0.8,1.1,1.6,2.3,2.4,3.4       h7.2c-1.4-2.3-2.9-4.5-4.6-6.8C644,773.8,621.8,754,584.5,753.3z"
               id="path353" /></g></g><g
           id="g355"><path
             class="st20"
             d="M687.4,769.2c0,0,22.5-62.8,92.3-64.1h445.9c0,0,40.6,26.3,35,75.8l-34,16.2H708L687.4,769.2z"
             id="path357" /><g
             class="st21"
             id="g359"><path
               class="st22"
               d="M779.6,714.9H1237c1.7,1.8,3.6,3.8,5.4,6.1l-462.7,0c-27.9,0.5-50.2,12-66.6,34.3       c-8.2,11.2-12.7,22.4-14.9,28.7l-4.3-5.9c2.6-6.8,7.1-16.5,14.2-26.2C720.1,735.4,742.3,715.6,779.6,714.9z"
               id="path361" /><path
               class="st22"
               d="M787.4,729.4h461.2c1.2,1.9,2.4,3.9,3.5,6.1l-464.6,0c-27.9,0.5-50.2,12-66.6,34.3       c-7.1,9.7-11.5,19.5-13.9,26l-4.3-5.8c2.7-6.6,6.9-15.1,13.2-23.6C727.9,749.9,750.1,730.1,787.4,729.4z"
               id="path363" /><path
               class="st22"
               d="M790.8,764.8h470c0.2,2,0.3,4,0.3,6.1l-470.3,0c-24.3,0.4-44.4,9.3-60,26.3h-8       C735.5,781.8,756.9,765.4,790.8,764.8z"
               id="path365" /><path
               class="st22"
               d="M790.8,741h464c0.7,1.6,1.4,3.3,2,5.1H790.8c-28,0.5-50.6,12.1-67,34.5c-4.2,5.7-7.4,11.4-9.9,16.5h-5.6       c2.6-5.8,6.3-12.5,11.3-19.4C731.6,761.4,753.6,741.7,790.8,741z"
               id="path367" /><path
               class="st22"
               d="M790.8,753.3h468.1c0.5,2,0.9,4,1.2,6.1l-469.3,0c-27.9,0.5-50.2,12-66.6,34.3c-0.8,1.1-1.6,2.3-2.4,3.4       h-7.2c1.4-2.3,2.9-4.5,4.6-6.8C731.3,773.8,753.4,754,790.8,753.3z"
               id="path369" /></g></g><polygon
           class="st2"
           points="687.9,814.5 754.6,793.1 687.9,763.4 687.9,763.1 687.5,763.3 687.2,763.1 687.2,763.4 620.5,793.1      687.2,814.5 687.2,814.7 687.5,814.6 687.9,814.7    "
           id="polygon371" /><polygon
           class="st1"
           points="796.3,777.3 754.7,793.1 692.4,793.1 682.7,793.1 620.5,793.1 578.9,777.3 87.5,777.3 87.5,822.4      578.9,822.4 620.5,840.5 682.7,840.7 682.7,840.7 687.6,840.7 692.4,840.7 692.4,840.7 754.7,840.5 796.3,822.4 1287.7,822.4      1287.7,777.3    "
           id="polygon373" /><polygon
           class="st2"
           points="620.5,793.1 620.5,840.5 578.9,822.4 578.9,777.3    "
           id="polygon375" /><polygon
           class="st2"
           points="754.7,793.1 754.7,840.5 796.3,822.4 796.3,777.3    "
           id="polygon377" /><path
           class="st1"
           d="M526.4,351.5H615c10.5,0,19.3-8.3,19.6-18.8c0-0.2,0-0.5,0-0.7c0-12.4-8.6-22.8-20.2-25.6     c-2.3-11-12-19.3-23.7-19.3c-3,0-6,0.6-8.6,1.6c-2-7.6-8.9-13.1-17.1-13.1c-7.7,0-14.3,5-16.7,11.9c-1.4-0.3-2.9-0.5-4.4-0.5     c-11.6,0-21.1,9.4-21.1,21.1c0,0.5,0,1,0.1,1.5c-9.2,3.4-15.8,12.3-15.8,22.7c0,0.2,0,0.5,0,0.7     C507.4,343.4,516.1,351.5,526.4,351.5z"
           id="path379" /></g></g></g></svg>