<?xml version="1.0" encoding="UTF-8" standalone="no"?>
<!-- Created with Inkscape (http://www.inkscape.org/) -->

<svg
   xmlns:dc="http://purl.org/dc/elements/1.1/"
   xmlns:cc="http://creativecommons.org/ns#"
   xmlns:rdf="http://www.w3.org/1999/02/22-rdf-syntax-ns#"
   xmlns:svg="http://www.w3.org/2000/svg"
   xmlns="http://www.w3.org/2000/svg"
   xmlns:sodipodi="http://sodipodi.sourceforge.net/DTD/sodipodi-0.dtd"
   xmlns:inkscape="http://www.inkscape.org/namespaces/inkscape"
   id="svg2"
   version="1.1"
   inkscape:version="0.91 r13725"
   xml:space="preserve"
   width="1750"
   height="1225"
   viewBox="0 0 1750 1225"
   sodipodi:docname="stickers.svg"><metadata
     id="metadata8"><rdf:RDF><cc:Work
         rdf:about=""><dc:format>image/svg+xml</dc:format><dc:type
           rdf:resource="http://purl.org/dc/dcmitype/StillImage" /><dc:title></dc:title></cc:Work></rdf:RDF></metadata><defs
     id="defs6"><radialGradient
       fx="0"
       fy="0"
       cx="0"
       cy="0"
       r="1"
       gradientUnits="userSpaceOnUse"
       gradientTransform="matrix(11389.4,0,0,-11389.4,7000,4900)"
       spreadMethod="pad"
       id="radialGradient14"><stop
         style="stop-opacity:1;stop-color:#bab9b7"
         offset="0"
         id="stop16" /><stop
         style="stop-opacity:1;stop-color:#8d8b8b"
         offset="1"
         id="stop18" /></radialGradient><radialGradient
       fx="0"
       fy="0"
       cx="0"
       cy="0"
       r="1"
       gradientUnits="userSpaceOnUse"
       gradientTransform="matrix(11389.4,0,0,-11389.4,7000,4900)"
       spreadMethod="pad"
       id="radialGradient22"><stop
         style="stop-opacity:1;stop-color:#bab9b7"
         offset="0"
         id="stop24" /><stop
         style="stop-opacity:1;stop-color:#8d8b8b"
         offset="1"
         id="stop26" /></radialGradient><clipPath
       clipPathUnits="userSpaceOnUse"
       id="clipPath34"><path
         d="m 2687.1,6817.86 0,958.27 -1851.733,0 0,-354.29 -119.332,0 0,-330 119.332,0 0,-324.34 -119.332,0 0,-330 119.332,0 0,-324.34 -119.332,0 0,-330 119.332,0 0,-354.29 1851.733,0 0,491.61 c 47.23,25.77 79.35,75.89 79.35,133.38 l 0,630.61 c 0,57.49 -32.12,107.61 -79.35,133.39 z"
         id="path36"
         inkscape:connector-curvature="0" /></clipPath><linearGradient
       x1="0"
       y1="0"
       x2="1"
       y2="0"
       gradientUnits="userSpaceOnUse"
       gradientTransform="matrix(1e-7,2722.44,2722.44,-1e-7,1741.24,5335.3)"
       spreadMethod="pad"
       id="linearGradient38"><stop
         style="stop-opacity:1;stop-color:#433f3f"
         offset="0"
         id="stop40" /><stop
         style="stop-opacity:1;stop-color:#8d8b8b"
         offset="1"
         id="stop42" /></linearGradient><clipPath
       clipPathUnits="userSpaceOnUse"
       id="clipPath64"><path
         d="m 3640.65,5428.87 -465.36,2165.65 446.16,80.48 0,101.13 560.47,0 1770.05,319.33 94.24,-319.33 265.24,0 0,-2347.26 -2670.8,0 z"
         id="path66"
         inkscape:connector-curvature="0" /></clipPath><linearGradient
       x1="0"
       y1="0"
       x2="1"
       y2="0"
       gradientUnits="userSpaceOnUse"
       gradientTransform="matrix(1e-7,2816.26,2816.26,-1e-7,4743.37,5395.3)"
       spreadMethod="pad"
       id="linearGradient68"><stop
         style="stop-opacity:1;stop-color:#433f3f"
         offset="0"
         id="stop70" /><stop
         style="stop-opacity:1;stop-color:#8d8b8b"
         offset="1"
         id="stop72" /></linearGradient><clipPath
       clipPathUnits="userSpaceOnUse"
       id="clipPath104"><path
         d="m 3896.06,1662.13 2140.77,0 0,2722.99 -2140.77,0 0,-2722.99 z"
         id="path106"
         inkscape:connector-curvature="0" /></clipPath><linearGradient
       x1="0"
       y1="0"
       x2="1"
       y2="0"
       gradientUnits="userSpaceOnUse"
       gradientTransform="matrix(1e-7,2611.99,2611.99,-1e-7,4966.45,1695.3)"
       spreadMethod="pad"
       id="linearGradient108"><stop
         style="stop-opacity:1;stop-color:#433f3f"
         offset="0"
         id="stop110" /><stop
         style="stop-opacity:1;stop-color:#8d8b8b"
         offset="1"
         id="stop112" /></linearGradient><clipPath
       clipPathUnits="userSpaceOnUse"
       id="clipPath128"><path
         d="m 1006.51,1652.74 c -94.369,0 -171.143,76.77 -171.143,171.13 l 0,680.39 c 0,101.01 82.172,183.18 183.173,183.18 54.82,0 99.42,44.6 99.42,99.41 l 0,114.28 -98.04,0 0,416.86 657.07,0 26.8,44 c -47.51,87.83 -79.17,246.24 44.33,499.26 37.62,77.09 85.76,161.09 139.2,242.92 l 23.84,-8.67 c 14.28,43.02 25.54,74.8 25.78,75.47 l 4.7,13.2 8.15,11.41 c 110.52,154.61 232.13,290.61 361.44,404.2 l 21.97,-18.02 c 58.92,71.58 122.74,130.17 131.45,138.08 l 4.92,4.46 5.46,3.78 c 173.42,119.78 351.05,192.56 527.97,216.33 l 147.61,19.82 -37.52,-144.12 c -2.97,-11.42 -75.69,-283.85 -324.11,-636.23 -22.09,-31.34 -44.44,-63.46 -66.83,-95.96 l -47.79,21.4 35.33,-36.16 -112.3,-109.72 23.52,-24.8 c -146.21,-218.93 -276.12,-427.53 -330.96,-531.45 -24.17,-45.8 -55.89,-84.05 -93.45,-113.75 l 0,-392.31 -98.04,0 0,-114.28 c 0,-54.81 44.59,-99.41 99.41,-99.41 101.01,0 183.18,-82.17 183.18,-183.18 l 0,-680.39 c 0,-94.36 -76.77,-171.13 -171.14,-171.13 l -1203.4,0 z"
         id="path130"
         inkscape:connector-curvature="0" /></clipPath><linearGradient
       x1="0"
       y1="0"
       x2="1"
       y2="0"
       gradientUnits="userSpaceOnUse"
       gradientTransform="matrix(1e-7,2824.48,2824.48,-1e-7,1992.99,1775.3)"
       spreadMethod="pad"
       id="linearGradient132"><stop
         style="stop-opacity:1;stop-color:#433f3f"
         offset="0"
         id="stop134" /><stop
         style="stop-opacity:1;stop-color:#8d8b8b"
         offset="1"
         id="stop136" /></linearGradient><clipPath
       clipPathUnits="userSpaceOnUse"
       id="clipPath154"><path
         d="m 13274.6,5786.88 0.1,0.05 -1,2.99 c 0,0.01 0,0.01 0,0.02 l -22.6,65.68 -83.8,243.33 0,0 -80.5,233.52 0,-0.01 -540.8,1569.93 c -20.4,59.35 -76.4,99.24 -139.1,99.24 -16.4,0 -32.5,-2.71 -48,-8.04 l -405,-139.54 c -23.1,51.13 -74.5,86.85 -134.1,86.85 l -521.2,0 c -16.5,0 -32.3,-2.85 -47.2,-7.89 -14.8,5.04 -30.6,7.89 -47.1,7.89 l -521.2,0 c -81.1,0 -147.1,-66.01 -147.1,-147.15 l 0,-2234.27 c 0,-81.15 66,-147.16 147.1,-147.16 l 521.2,0 c 16.5,0 32.3,2.86 47.1,7.89 14.9,-5.03 30.7,-7.89 47.2,-7.89 l 521.2,0 c 81.1,0 147.1,66.01 147.1,147.16 l 0,1520.05 348.1,-1010.34 0,-0.01 107.5,-312.02 0,0 80.4,-233.51 0,0.01 c 20.7,-58.98 76.4,-98.57 138.9,-98.57 16.3,0 32.4,2.7 47.9,8.03 l 492.8,169.76 c 75.7,26.08 116.4,108.13 92.1,184 z"
         id="path156"
         inkscape:connector-curvature="0" /></clipPath><linearGradient
       x1="0"
       y1="0"
       x2="1"
       y2="0"
       gradientUnits="userSpaceOnUse"
       gradientTransform="matrix(1e-7,2420.19,2420.19,-1e-7,11908.8,5355.3)"
       spreadMethod="pad"
       id="linearGradient158"><stop
         style="stop-opacity:1;stop-color:#433f3f"
         offset="0"
         id="stop160" /><stop
         style="stop-opacity:1;stop-color:#8d8b8b"
         offset="1"
         id="stop162" /></linearGradient><clipPath
       clipPathUnits="userSpaceOnUse"
       id="clipPath190"><path
         d="m 13186.4,4944.41 c -177,-23.77 -354.6,-96.55 -528,-216.34 l -5.5,-3.76 -4.9,-4.45 c -8.7,-7.9 -72.5,-66.44 -131.4,-138.1 l -22,18.02 c -91.1,-80 -178.2,-171.33 -260.5,-272.25 l -1414.5,0 c -70.9,0 -128.6,-57.69 -128.6,-128.62 l 0,-2465.75 c 0,-70.93 57.7,-128.62 128.6,-128.62 l 1883.6,0 c 70.9,0 128.6,57.69 128.6,128.62 l 0,2280.15 61.3,59.85 -35.6,36.38 48,-21.62 c 22.4,32.5 44.8,64.62 66.8,95.96 248.5,352.37 321.2,624.81 324.2,636.23 l 37.5,144.12 -147.6,-19.82 z"
         id="path192"
         inkscape:connector-curvature="0" /></clipPath><linearGradient
       x1="0"
       y1="0"
       x2="1"
       y2="0"
       gradientUnits="userSpaceOnUse"
       gradientTransform="matrix(2e-7,3520.91,3520.91,-2e-7,12012.5,1685.3)"
       spreadMethod="pad"
       id="linearGradient194"><stop
         style="stop-opacity:1;stop-color:#433f3f"
         offset="0"
         id="stop196" /><stop
         style="stop-opacity:1;stop-color:#8d8b8b"
         offset="1"
         id="stop198" /></linearGradient><clipPath
       clipPathUnits="userSpaceOnUse"
       id="clipPath228"><path
         d="m 9477.71,7060.5 -70.62,0 0,440.2 -380.56,0 0,440.2 -1511.19,0 0,-440.2 -380.55,0 0,-440.2 -70.63,0 c -104.39,0 -189.32,-84.93 -189.32,-189.32 l 0,-1252.98 c 0,-104.4 84.93,-189.33 189.32,-189.33 l 300.72,0 1812.1,0 300.73,0 c 104.39,0 189.32,84.93 189.32,189.33 l 0,1252.98 c 0,104.39 -84.93,189.32 -189.32,189.32 z"
         id="path230"
         inkscape:connector-curvature="0" /></clipPath><linearGradient
       x1="0"
       y1="0"
       x2="1"
       y2="0"
       gradientUnits="userSpaceOnUse"
       gradientTransform="matrix(1e-7,2185.86,2185.86,-1e-7,8270.94,5525.3)"
       spreadMethod="pad"
       id="linearGradient232"><stop
         style="stop-opacity:1;stop-color:#433f3f"
         offset="0"
         id="stop234" /><stop
         style="stop-opacity:1;stop-color:#8d8b8b"
         offset="1"
         id="stop236" /></linearGradient><clipPath
       clipPathUnits="userSpaceOnUse"
       id="clipPath266"><path
         d="m 7265.26,1611.13 c -111.4,0 -204.63,79.9 -221.69,190 l -13.4,86.47 99.89,792.04 0,698.53 173.92,482.46 185.38,0 0,728.38 1561.17,0 0,-728.38 237.79,0 144.17,-399.93 31.24,0 0,-781.06 103.15,-817.87 -13.85,-69.9 c -20.77,-104.74 -113.32,-180.74 -220.07,-180.74 l -2067.7,0 z"
         id="path268"
         inkscape:connector-curvature="0" /></clipPath><linearGradient
       x1="0"
       y1="0"
       x2="1"
       y2="0"
       gradientUnits="userSpaceOnUse"
       gradientTransform="matrix(1e-7,2961.96,2961.96,-1e-7,8298.52,1625.3)"
       spreadMethod="pad"
       id="linearGradient270"><stop
         style="stop-opacity:1;stop-color:#433f3f"
         offset="0"
         id="stop272" /><stop
         style="stop-opacity:1;stop-color:#8d8b8b"
         offset="1"
         id="stop274" /></linearGradient></defs><sodipodi:namedview
     pagecolor="#ffffff"
     bordercolor="#666666"
     borderopacity="1"
     objecttolerance="10"
     gridtolerance="10"
     guidetolerance="10"
     inkscape:pageopacity="0"
     inkscape:pageshadow="2"
     inkscape:window-width="1853"
     inkscape:window-height="1056"
     id="namedview4"
     showgrid="false"
     inkscape:zoom="0.54490514"
     inkscape:cx="790.41686"
     inkscape:cy="505.80298"
     inkscape:window-x="67"
     inkscape:window-y="24"
     inkscape:window-maximized="1"
     inkscape:current-layer="g10" /><g
     id="g10"
     inkscape:groupmode="layer"
     inkscape:label="ink_ext_XXXXXX"
     transform="matrix(1.25,0,0,-1.25,0,1225)"><g
       id="g12"
       transform="scale(0.1,0.1)"><path
         d="m 0,0 14000,0 0,9800 L 0,9800 0,0 Z"
         style="fill:#000000;fill-opacity:0;fill-rule:nonzero;stroke:none"
         id="path20"
         inkscape:connector-curvature="0" /><path
         d="m 0,0 14000,0 0,9800 L 0,9800 0,0 Z"
         style="fill:none;fill-opacity:1;fill-rule:nonzero;stroke:none"
         id="path28"
         inkscape:connector-curvature="0" /><g
         id="g30"><g
           id="g32"
           clip-path="url(#clipPath34)"><path
             d="m 2687.1,6817.86 0,958.27 -1851.733,0 0,-354.29 -119.332,0 0,-330 119.332,0 0,-324.34 -119.332,0 0,-330 119.332,0 0,-324.34 -119.332,0 0,-330 119.332,0 0,-354.29 1851.733,0 0,491.61 c 47.23,25.77 79.35,75.89 79.35,133.38 l 0,630.61 c 0,57.49 -32.12,107.61 -79.35,133.39"
             style="fill:url(#linearGradient38);fill-opacity:1;fill-rule:nonzero;stroke:none"
             id="path44"
             inkscape:connector-curvature="0" /></g></g><path
         d="m 2637.1,6917.86 0,958.27 -1851.733,0 0,-354.29 -119.332,0 0,-330 119.332,0 0,-324.34 -119.332,0 0,-330 119.332,0 0,-324.34 -119.332,0 0,-330 119.332,0 0,-354.29 1851.733,0 0,491.61 c 47.23,25.77 79.35,75.89 79.35,133.38 l 0,630.61 c 0,57.49 -32.12,107.61 -79.35,133.39"
         style="fill:#ffffff;fill-opacity:1;fill-rule:nonzero;stroke:none"
         id="path46"
         inkscape:connector-curvature="0" /><path
         d="m 2537.1,6102.02 0,-473.14 -1651.733,0 0,2147.25 1651.733,0 0,-939.81"
         style="fill:#ecc533;fill-opacity:1;fill-rule:nonzero;stroke:none"
         id="path48"
         inkscape:connector-curvature="0" /><path
         d="m 766.035,7291.84 276.664,0 0,130 -276.664,0 0,-130 z"
         style="fill:#e34540;fill-opacity:1;fill-rule:nonzero;stroke:none"
         id="path50"
         inkscape:connector-curvature="0" /><path
         d="m 766.035,6637.5 276.664,0 0,130 -276.664,0 0,-130 z"
         style="fill:#e34540;fill-opacity:1;fill-rule:nonzero;stroke:none"
         id="path52"
         inkscape:connector-curvature="0" /><path
         d="m 766.035,5983.16 276.664,0 0,130 -276.664,0 0,-130 z"
         style="fill:#e34540;fill-opacity:1;fill-rule:nonzero;stroke:none"
         id="path54"
         inkscape:connector-curvature="0" /><path
         d="m 2564.6,6102.02 -193.16,0 c -79.88,0 -144.63,64.75 -144.63,144.63 l 0,445.03 c 0,79.88 64.75,144.64 144.63,144.64 l 193.16,0 c 28.64,0 51.85,-23.21 51.85,-51.85 l 0,-630.61 c 0,-28.63 -23.21,-51.84 -51.85,-51.84"
         style="fill:#e34540;fill-opacity:1;fill-rule:nonzero;stroke:none"
         id="path56"
         inkscape:connector-curvature="0" /><path
         d="m 1223.73,7086.6 975,0 0,445 -975,0 0,-445 z"
         style="fill:#31475a;fill-opacity:1;fill-rule:nonzero;stroke:none"
         id="path58"
         inkscape:connector-curvature="0" /><g
         id="g60"><g
           id="g62"
           clip-path="url(#clipPath64)"><path
             d="m 3640.65,5428.87 -465.36,2165.65 446.16,80.48 0,101.13 560.47,0 1770.05,319.33 94.24,-319.33 265.24,0 0,-2347.26 -2670.8,0"
             style="fill:url(#linearGradient68);fill-opacity:1;fill-rule:nonzero;stroke:none"
             id="path74"
             inkscape:connector-curvature="0" /></g></g><path
         d="m 3590.65,5528.87 -465.36,2165.65 446.16,80.48 0,101.13 560.47,0 1770.05,319.33 94.24,-319.33 265.24,0 0,-2347.26 -2670.8,0"
         style="fill:#ffffff;fill-opacity:1;fill-rule:nonzero;stroke:none"
         id="path76"
         inkscape:connector-curvature="0" /><path
         d="m 3671.45,5628.88 -426.67,1985.58 448.05,80.83 448.05,80.84 1690.57,305 90,-305 -2250,-2147.25"
         style="fill:#c1bfbd;fill-opacity:1;fill-rule:nonzero;stroke:none"
         id="path78"
         inkscape:connector-curvature="0" /><path
         d="m 3671.45,5628.88 2490,0 0,2147.25 -2490,0 0,-2147.25 z"
         style="fill:#e4ecea;fill-opacity:1;fill-rule:nonzero;stroke:none"
         id="path80"
         inkscape:connector-curvature="0" /><path
         d="m 3943.95,6817.74 1085,0 0,691.41 -1085,0 0,-691.41 z"
         style="fill:#ecc533;fill-opacity:1;fill-rule:nonzero;stroke:none"
         id="path82"
         inkscape:connector-curvature="0" /><path
         d="m 5213.95,7474.15 675,0 0,70 -675,0 0,-70 z"
         style="fill:#c1bfbd;fill-opacity:1;fill-rule:nonzero;stroke:none"
         id="path84"
         inkscape:connector-curvature="0" /><path
         d="m 5213.95,7243.68 675,0 0,70 -675,0 0,-70 z"
         style="fill:#c1bfbd;fill-opacity:1;fill-rule:nonzero;stroke:none"
         id="path86"
         inkscape:connector-curvature="0" /><path
         d="m 5213.95,7013.21 675,0 0,70 -675,0 0,-70 z"
         style="fill:#c1bfbd;fill-opacity:1;fill-rule:nonzero;stroke:none"
         id="path88"
         inkscape:connector-curvature="0" /><path
         d="m 5213.95,6782.74 675,0 0,70 -675,0 0,-70 z"
         style="fill:#c1bfbd;fill-opacity:1;fill-rule:nonzero;stroke:none"
         id="path90"
         inkscape:connector-curvature="0" /><path
         d="m 3943.95,6552.27 1945,0 0,70 -1945,0 0,-70 z"
         style="fill:#c1bfbd;fill-opacity:1;fill-rule:nonzero;stroke:none"
         id="path92"
         inkscape:connector-curvature="0" /><path
         d="m 3943.95,6321.79 1945,0 0,70 -1945,0 0,-70 z"
         style="fill:#c1bfbd;fill-opacity:1;fill-rule:nonzero;stroke:none"
         id="path94"
         inkscape:connector-curvature="0" /><path
         d="m 3943.95,6091.32 1945,0 0,70 -1945,0 0,-70 z"
         style="fill:#c1bfbd;fill-opacity:1;fill-rule:nonzero;stroke:none"
         id="path96"
         inkscape:connector-curvature="0" /><path
         d="m 3943.95,5860.85 1945,0 0,70 -1945,0 0,-70 z"
         style="fill:#c1bfbd;fill-opacity:1;fill-rule:nonzero;stroke:none"
         id="path98"
         inkscape:connector-curvature="0" /><g
         id="g100"><g
           id="g102"
           clip-path="url(#clipPath104)"><path
             d="m 3896.06,1662.13 2140.77,0 0,2722.99 -2140.77,0 0,-2722.99 z"
             style="fill:url(#linearGradient108);fill-opacity:1;fill-rule:nonzero;stroke:none"
             id="path114"
             inkscape:connector-curvature="0" /></g></g><path
         d="m 3846.06,1762.13 2140.77,0 0,2722.99 -2140.77,0 0,-2722.99 z"
         style="fill:#ffffff;fill-opacity:1;fill-rule:nonzero;stroke:none"
         id="path116"
         inkscape:connector-curvature="0" /><path
         d="m 3946.07,1862.13 1940.76,0 0,2522.99 -1940.76,0 0,-2522.99 z"
         style="fill:#4ea8d9;fill-opacity:1;fill-rule:nonzero;stroke:none"
         id="path118"
         inkscape:connector-curvature="0" /><path
         d="m 4272.55,3574.94 1287.8,0 0,522.867 -1287.8,0 0,-522.867 z"
         style="fill:#e4ecea;fill-opacity:1;fill-rule:nonzero;stroke:none"
         id="path120"
         inkscape:connector-curvature="0" /><path
         d="m 3946.07,1862.13 1940.76,0 0,352.332 -1940.76,0 0,-352.332 z"
         style="fill:#31475a;fill-opacity:1;fill-rule:nonzero;stroke:none"
         id="path122"
         inkscape:connector-curvature="0" /><g
         id="g124"><g
           id="g126"
           clip-path="url(#clipPath128)"><path
             d="m 1006.51,1652.74 c -94.369,0 -171.143,76.77 -171.143,171.13 l 0,680.39 c 0,101.01 82.172,183.18 183.173,183.18 54.82,0 99.42,44.6 99.42,99.41 l 0,114.28 -98.04,0 0,416.86 657.07,0 26.8,44 c -47.51,87.83 -79.17,246.24 44.33,499.26 37.62,77.09 85.76,161.09 139.2,242.92 l 23.84,-8.67 c 14.28,43.02 25.54,74.8 25.78,75.47 l 4.7,13.2 8.15,11.41 c 110.52,154.61 232.13,290.61 361.44,404.2 l 21.97,-18.02 c 58.92,71.58 122.74,130.17 131.45,138.08 l 4.92,4.46 5.46,3.78 c 173.42,119.78 351.05,192.56 527.97,216.33 l 147.61,19.82 -37.52,-144.12 c -2.97,-11.42 -75.69,-283.85 -324.11,-636.23 -22.09,-31.34 -44.44,-63.46 -66.83,-95.96 l -47.79,21.4 35.33,-36.16 -112.3,-109.72 23.52,-24.8 c -146.21,-218.93 -276.12,-427.53 -330.96,-531.45 -24.17,-45.8 -55.89,-84.05 -93.45,-113.75 l 0,-392.31 -98.04,0 0,-114.28 c 0,-54.81 44.59,-99.41 99.41,-99.41 101.01,0 183.18,-82.17 183.18,-183.18 l 0,-680.39 c 0,-94.36 -76.77,-171.13 -171.14,-171.13 l -1203.4,0"
             style="fill:url(#linearGradient132);fill-opacity:1;fill-rule:nonzero;stroke:none"
             id="path138"
             inkscape:connector-curvature="0" /></g></g><path
         d="m 956.508,1752.74 c -94.367,0 -171.141,76.77 -171.141,171.13 l 0,680.39 c 0,101.01 82.172,183.18 183.18,183.18 54.813,0 99.413,44.6 99.413,99.41 l 0,114.28 -98.042,0 0,416.86 657.072,0 26.8,44 c -47.51,87.83 -79.17,246.24 44.33,499.26 37.62,77.09 85.76,161.09 139.2,242.92 l 23.84,-8.67 c 14.28,43.02 25.54,74.8 25.78,75.47 l 4.7,13.2 8.15,11.41 c 110.52,154.61 232.13,290.61 361.44,404.2 l 21.97,-18.02 c 58.92,71.58 122.74,130.17 131.45,138.08 l 4.92,4.46 5.46,3.78 c 173.42,119.78 351.05,192.56 527.97,216.33 l 147.61,19.82 -37.52,-144.12 c -2.97,-11.42 -75.69,-283.85 -324.11,-636.23 -22.09,-31.34 -44.44,-63.46 -66.83,-95.96 l -47.79,21.4 35.33,-36.16 -112.3,-109.72 23.52,-24.8 c -146.21,-218.93 -276.12,-427.53 -330.96,-531.45 -24.17,-45.8 -55.89,-84.05 -93.45,-113.75 l 0,-392.31 -98.04,0 0,-114.28 c 0,-54.81 44.59,-99.41 99.41,-99.41 101.01,0 183.18,-82.17 183.18,-183.18 l 0,-680.39 c 0,-94.36 -76.77,-171.13 -171.14,-171.13 l -1203.402,0"
         style="fill:#ffffff;fill-opacity:1;fill-rule:nonzero;stroke:none"
         id="path140"
         inkscape:connector-curvature="0" /><path
         d="m 2649.84,4595.65 c 0,0 -0.07,0 -0.09,-0.01 -11.03,-4.68 -248.75,-87.97 -770.03,-1078.72 -43.44,-11.06 -28.11,-5.8 -30,23.44 543.08,1032.16 796.49,1054.99 800.03,1055.28 0.21,0.09 0.37,0.16 0.42,0.19 l -0.33,-0.18 z m -167.97,150.15 c -7.26,-6.6 -99.64,-91.15 -159.65,-177.75 -62.5,-90.19 -62.5,-90.19 -62.5,-90.19 0,0 25,73.21 67.51,146.79 -134.28,-117.96 -251.29,-254.61 -346.09,-387.23 -0.07,-0.2 -50.6,-142.95 -72.25,-229.56 0,0 2.55,61.41 12.16,141.63 -54.33,-83.17 -99.13,-162.56 -133.07,-232.1 -139.36,-285.53 -51.99,-413.43 -14.55,-451.21 l -157.79,-259.05 76.85,-46.82 163.96,269.18 c 107.61,-25.52 230.05,1.2 295.06,124.37 57.41,108.79 190.45,322.03 336.24,540.31 0,0 -78.03,-46.31 -148.03,-93.81 l 250.09,244.33 c 0,0 -0.01,-0.03 -0.01,-0.04 22.6,32.81 45.16,65.23 67.45,96.85 240.81,341.59 309.06,603.8 309.06,603.8 -174.03,-23.38 -337.1,-97.73 -484.44,-199.5"
         style="fill:#c1bfbd;fill-opacity:1;fill-rule:nonzero;stroke:none"
         id="path142"
         inkscape:connector-curvature="0" /><path
         d="m 2147.87,2687.44 c -110.13,0 -199.41,89.28 -199.41,199.41 l 0,214.28 98.04,0 0,216.86 -976.58,0 0,-216.86 98.04,0 0,-214.28 c 0,-110.13 -89.28,-199.41 -199.413,-199.41 -45.942,0 -83.18,-37.24 -83.18,-83.18 l 0,-680.38 c 0,-39.29 31.852,-71.14 71.141,-71.14 l 1203.402,0 c 39.29,0 71.14,31.85 71.14,71.14 l 0,680.38 c 0,45.94 -37.24,83.18 -83.18,83.18"
         style="fill:#31475a;fill-opacity:1;fill-rule:nonzero;stroke:none"
         id="path144"
         inkscape:connector-curvature="0" /><path
         d="m 885.367,2121.13 1345.27,0 0,375 -1345.27,0 0,-375 z"
         style="fill:#ecc533;fill-opacity:1;fill-rule:nonzero;stroke:none"
         id="path146"
         inkscape:connector-curvature="0" /><path
         d="m 1069.92,3101.13 976.578,0 0,216.863 -976.578,0 0,-216.863 z"
         style="fill:#243849;fill-opacity:1;fill-rule:nonzero;stroke:none"
         id="path148"
         inkscape:connector-curvature="0" /><g
         id="g150"><g
           id="g152"
           clip-path="url(#clipPath154)"><path
             d="m 13274.6,5786.88 0.1,0.05 -1,2.99 c 0,0.01 0,0.01 0,0.02 l -22.6,65.68 -83.8,243.33 0,0 -80.5,233.52 0,-0.01 -540.8,1569.93 c -20.4,59.35 -76.4,99.24 -139.1,99.24 -16.4,0 -32.5,-2.71 -48,-8.04 l -405,-139.54 c -23.1,51.13 -74.5,86.85 -134.1,86.85 l -521.2,0 c -16.5,0 -32.3,-2.85 -47.2,-7.89 -14.8,5.04 -30.6,7.89 -47.1,7.89 l -521.2,0 c -81.1,0 -147.1,-66.01 -147.1,-147.15 l 0,-2234.27 c 0,-81.15 66,-147.16 147.1,-147.16 l 521.2,0 c 16.5,0 32.3,2.86 47.1,7.89 14.9,-5.03 30.7,-7.89 47.2,-7.89 l 521.2,0 c 81.1,0 147.1,66.01 147.1,147.16 l 0,1520.05 348.1,-1010.34 0,-0.01 107.5,-312.02 0,0 80.4,-233.51 0,0.01 c 20.7,-58.98 76.4,-98.57 138.9,-98.57 16.3,0 32.4,2.7 47.9,8.03 l 492.8,169.76 c 75.7,26.08 116.4,108.13 92.1,184"
             style="fill:url(#linearGradient158);fill-opacity:1;fill-rule:nonzero;stroke:none"
             id="path164"
             inkscape:connector-curvature="0" /></g></g><path
         d="m 13224.6,5886.88 0.1,0.05 -1,2.99 c 0,0.01 0,0.01 0,0.02 l -22.6,65.68 -83.8,243.33 0,0 -80.5,233.52 0,-0.01 -540.8,1569.93 c -20.4,59.35 -76.4,99.24 -139.1,99.24 -16.4,0 -32.5,-2.71 -48,-8.04 l -405,-139.54 c -23.1,51.13 -74.5,86.85 -134.1,86.85 l -521.2,0 c -16.5,0 -32.3,-2.85 -47.2,-7.89 -14.8,5.04 -30.6,7.89 -47.1,7.89 l -521.2,0 c -81.1,0 -147.1,-66.01 -147.1,-147.15 l 0,-2234.27 c 0,-81.15 66,-147.16 147.1,-147.16 l 521.2,0 c 16.5,0 32.3,2.86 47.1,7.89 14.9,-5.03 30.7,-7.89 47.2,-7.89 l 521.2,0 c 81.1,0 147.1,66.01 147.1,147.16 l 0,1520.05 348.1,-1010.34 0,-0.01 107.5,-312.02 0,0 80.4,-233.51 0,0.01 c 20.7,-58.98 76.4,-98.57 138.9,-98.57 16.3,0 32.4,2.7 47.9,8.03 l 492.8,169.76 c 75.7,26.08 116.4,108.13 92.1,184"
         style="fill:#ffffff;fill-opacity:1;fill-rule:nonzero;stroke:none"
         id="path166"
         inkscape:connector-curvature="0" /><path
         d="m 11201.4,5659.48 0,2234.26 c 0,26.05 21.2,47.17 47.2,47.17 l 521.2,0 c 26,0 47.1,-21.12 47.1,-47.17 l 0,-2234.26 c 0,-26.05 -21.1,-47.17 -47.1,-47.17 l -521.2,0 c -26,0 -47.2,21.12 -47.2,47.17"
         style="fill:#4ea8d9;fill-opacity:1;fill-rule:nonzero;stroke:none"
         id="path168"
         inkscape:connector-curvature="0" /><path
         d="m 10586,5659.48 0,2234.26 c 0,26.05 21.1,47.17 47.1,47.17 l 521.2,0 c 26,0 47.1,-21.12 47.1,-47.17 l 0,-2234.26 c 0,-26.05 -21.1,-47.17 -47.1,-47.17 l -521.2,0 c -26,0 -47.1,21.12 -47.1,47.17"
         style="fill:#ecc533;fill-opacity:1;fill-rule:nonzero;stroke:none"
         id="path170"
         inkscape:connector-curvature="0" /><path
         d="m 10706.6,7708.27 376.398,0 0,87.8398 -376.398,0 0,-87.8398 z"
         style="fill:#e4ecea;fill-opacity:1;fill-rule:nonzero;stroke:none"
         id="path172"
         inkscape:connector-curvature="0" /><path
         d="m 10706.6,7456.78 376.398,0 0,87.8281 -376.398,0 0,-87.8281 z"
         style="fill:#e4ecea;fill-opacity:1;fill-rule:nonzero;stroke:none"
         id="path174"
         inkscape:connector-curvature="0" /><path
         d="m 10706.6,7205.3 376.398,0 0,87.8281 -376.398,0 0,-87.8281 z"
         style="fill:#e4ecea;fill-opacity:1;fill-rule:nonzero;stroke:none"
         id="path176"
         inkscape:connector-curvature="0" /><path
         d="m 11378.1,5801.13 246.699,0 0,1935 -246.699,0 0,-1935 z"
         style="fill:#c1bfbd;fill-opacity:1;fill-rule:nonzero;stroke:none"
         id="path178"
         inkscape:connector-curvature="0" /><path
         d="m 12547.2,5656.91 -727.7,2112.44 c -8.5,24.62 4.6,51.47 29.3,59.95 l 492.7,169.74 c 24.6,8.48 51.5,-4.6 60,-29.23 l 727.7,-2112.44 c 8.4,-24.63 -4.7,-51.47 -29.3,-59.95 l -492.7,-169.74 c -24.7,-8.49 -51.5,4.6 -60,29.23"
         style="fill:#e34540;fill-opacity:1;fill-rule:nonzero;stroke:none"
         id="path180"
         inkscape:connector-curvature="0" /><path
         d="m 12434.5,5984 582.6,198.71 -42.4,122.92 -582.5,-198.71 42.3,-122.92"
         style="fill:#ecc533;fill-opacity:1;fill-rule:nonzero;stroke:none"
         id="path182"
         inkscape:connector-curvature="0" /><path
         d="m 12515,5750.49 582.5,198.71 -42.3,122.92 -582.6,-198.71 42.4,-122.92"
         style="fill:#ecc533;fill-opacity:1;fill-rule:nonzero;stroke:none"
         id="path184"
         inkscape:connector-curvature="0" /><g
         id="g186"><g
           id="g188"
           clip-path="url(#clipPath190)"><path
             d="m 13186.4,4944.41 c -177,-23.77 -354.6,-96.55 -528,-216.34 l -5.5,-3.76 -4.9,-4.45 c -8.7,-7.9 -72.5,-66.44 -131.4,-138.1 l -22,18.02 c -91.1,-80 -178.2,-171.33 -260.5,-272.25 l -1414.5,0 c -70.9,0 -128.6,-57.69 -128.6,-128.62 l 0,-2465.75 c 0,-70.93 57.7,-128.62 128.6,-128.62 l 1883.6,0 c 70.9,0 128.6,57.69 128.6,128.62 l 0,2280.15 61.3,59.85 -35.6,36.38 48,-21.62 c 22.4,32.5 44.8,64.62 66.8,95.96 248.5,352.37 321.2,624.81 324.2,636.23 l 37.5,144.12 -147.6,-19.82"
             style="fill:url(#linearGradient194);fill-opacity:1;fill-rule:nonzero;stroke:none"
             id="path200"
             inkscape:connector-curvature="0" /></g></g><path
         d="m 13136.4,5044.41 c -177,-23.77 -354.6,-96.55 -528,-216.34 l -5.5,-3.76 -4.9,-4.45 c -8.7,-7.9 -72.5,-66.44 -131.4,-138.1 l -22,18.02 c -91.1,-80 -178.2,-171.33 -260.5,-272.25 l -1414.5,0 c -70.9,0 -128.6,-57.69 -128.6,-128.62 l 0,-2465.75 c 0,-70.93 57.7,-128.62 128.6,-128.62 l 1883.6,0 c 70.9,0 128.6,57.69 128.6,128.62 l 0,2280.15 61.3,59.85 -35.6,36.38 48,-21.62 c 22.4,32.5 44.8,64.62 66.8,95.96 248.5,352.37 321.2,624.81 324.2,636.23 l 37.5,144.12 -147.6,-19.82"
         style="fill:#ffffff;fill-opacity:1;fill-rule:nonzero;stroke:none"
         id="path202"
         inkscape:connector-curvature="0" /><path
         d="m 12443.9,3908.77 c -46.7,-64.19 -94.2,-127.88 -137.2,-194.66 -46.5,-72.37 -88.6,-145.22 -146.5,-209.66 -94.5,-105.25 -249.1,50.32 -155,155.03 48.9,54.52 82.1,119.67 122.2,180.57 43.6,66.38 91.4,129.93 138,194.23 67,92.41 116.7,194.61 172.8,293.25 l -1668.5,0 c -15.9,0 -28.7,-12.81 -28.7,-28.61 l 0,-2465.76 c 0,-15.81 12.8,-28.62 28.7,-28.62 l 1883.5,0 c 15.8,0 28.6,12.81 28.6,28.62 l 0,2465.76 c 0,2.19 -0.3,4.3 -0.8,6.35 -84.6,-129.26 -145.8,-271.05 -237.1,-396.5"
         style="fill:#4ea8d9;fill-opacity:1;fill-rule:nonzero;stroke:none"
         id="path204"
         inkscape:connector-curvature="0" /><path
         d="m 11045.1,3967.92 755,0 0,70 -755,0 0,-70 z"
         style="fill:#31475a;fill-opacity:1;fill-rule:nonzero;stroke:none"
         id="path206"
         inkscape:connector-curvature="0" /><path
         d="m 11045.1,3696.52 615.5,0 0,70 -615.5,0 0,-70 z"
         style="fill:#31475a;fill-opacity:1;fill-rule:nonzero;stroke:none"
         id="path208"
         inkscape:connector-curvature="0" /><path
         d="m 11045.1,3425.12 525,0 0,70 -525,0 0,-70 z"
         style="fill:#31475a;fill-opacity:1;fill-rule:nonzero;stroke:none"
         id="path210"
         inkscape:connector-curvature="0" /><path
         d="m 11045.1,3153.73 525,0 0,70 -525,0 0,-70 z"
         style="fill:#31475a;fill-opacity:1;fill-rule:nonzero;stroke:none"
         id="path212"
         inkscape:connector-curvature="0" /><path
         d="m 11045.1,2882.32 1326,0 0,70 -1326,0 0,-70 z"
         style="fill:#31475a;fill-opacity:1;fill-rule:nonzero;stroke:none"
         id="path214"
         inkscape:connector-curvature="0" /><path
         d="m 11045.1,2610.92 1326,0 0,70 -1326,0 0,-70 z"
         style="fill:#31475a;fill-opacity:1;fill-rule:nonzero;stroke:none"
         id="path216"
         inkscape:connector-curvature="0" /><path
         d="m 11045.1,2339.52 1326,0 0,70 -1326,0 0,-70 z"
         style="fill:#31475a;fill-opacity:1;fill-rule:nonzero;stroke:none"
         id="path218"
         inkscape:connector-curvature="0" /><path
         d="m 11045.1,2068.12 1326,0 0,70 -1326,0 0,-70 z"
         style="fill:#31475a;fill-opacity:1;fill-rule:nonzero;stroke:none"
         id="path220"
         inkscape:connector-curvature="0" /><path
         d="m 12833.2,4595.65 c 0,0 -0.1,0 -0.1,-0.01 -11,-4.68 -248.7,-87.97 -770,-1078.72 -43.5,-11.06 -28.1,-5.8 -30,23.44 543.1,1032.16 796.5,1054.99 800,1055.28 0.2,0.09 0.4,0.16 0.4,0.19 l -0.3,-0.18 z m -168,150.15 c -7.2,-6.6 -99.6,-91.15 -159.6,-177.75 -62.5,-90.19 -62.5,-90.19 -62.5,-90.19 0,0 25,73.21 67.5,146.79 -134.3,-117.96 -251.3,-254.61 -346.1,-387.23 -0.1,-0.2 -50.6,-142.95 -72.2,-229.56 0,0 2.5,61.41 12.1,141.63 -54.3,-83.17 -99.1,-162.56 -133.1,-232.1 -139.3,-285.53 -51.9,-413.43 -14.5,-451.21 l -44.4,-72.82 c -42.5,-69.8 -55.6,-153.58 -36.5,-233.05 l 0,0 163.9,269.18 c 107.6,-25.52 230.1,1.2 295.1,124.37 57.4,108.79 190.4,322.03 336.2,540.31 0,0 -78,-46.31 -148,-93.81 l 250.1,244.33 c 0,0 0,-0.03 0,-0.04 22.6,32.81 45.1,65.23 67.4,96.85 240.8,341.59 309.1,603.8 309.1,603.8 -174.1,-23.38 -337.1,-97.73 -484.5,-199.5"
         style="fill:#31475a;fill-opacity:1;fill-rule:nonzero;stroke:none"
         id="path222"
         inkscape:connector-curvature="0" /><g
         id="g224"><g
           id="g226"
           clip-path="url(#clipPath228)"><path
             d="m 9477.71,7060.5 -70.62,0 0,440.2 -380.56,0 0,440.2 -1511.19,0 0,-440.2 -380.55,0 0,-440.2 -70.63,0 c -104.39,0 -189.32,-84.93 -189.32,-189.32 l 0,-1252.98 c 0,-104.4 84.93,-189.33 189.32,-189.33 l 2413.55,0 c 104.39,0 189.32,84.93 189.32,189.33 l 0,1252.98 c 0,104.39 -84.93,189.32 -189.32,189.32"
             style="fill:url(#linearGradient232);fill-opacity:1;fill-rule:nonzero;stroke:none"
             id="path238"
             inkscape:connector-curvature="0" /></g></g><path
         d="m 9427.71,7160.5 -70.62,0 0,440.2 -380.56,0 0,440.2 -1511.19,0 0,-440.2 -380.55,0 0,-440.2 -70.63,0 c -104.39,0 -189.32,-84.93 -189.32,-189.32 l 0,-1252.98 c 0,-104.4 84.93,-189.33 189.32,-189.33 l 2413.55,0 c 104.39,0 189.32,84.93 189.32,189.33 l 0,1252.98 c 0,104.39 -84.93,189.32 -189.32,189.32"
         style="fill:#ffffff;fill-opacity:1;fill-rule:nonzero;stroke:none"
         id="path240"
         inkscape:connector-curvature="0" /><path
         d="m 9257.09,7060.5 0,440.2 -2072.31,0 0,-440.2 2072.31,0"
         style="fill:#ecc533;fill-opacity:1;fill-rule:nonzero;stroke:none"
         id="path242"
         inkscape:connector-curvature="0" /><path
         d="m 9427.71,5628.88 -2413.55,0 c -49.13,0 -89.32,40.19 -89.32,89.31 l 0,1252.99 c 0,49.13 40.19,89.32 89.32,89.32 l 2413.55,0 c 49.12,0 89.32,-40.19 89.32,-89.32 l 0,-1252.99 c 0,-49.12 -40.2,-89.31 -89.32,-89.31"
         style="fill:#31475a;fill-opacity:1;fill-rule:nonzero;stroke:none"
         id="path244"
         inkscape:connector-curvature="0" /><path
         d="m 7565.34,7060.5 1311.19,0 0,880.41 -1311.19,0 0,-880.41 z"
         style="fill:#e4ecea;fill-opacity:1;fill-rule:nonzero;stroke:none"
         id="path246"
         inkscape:connector-curvature="0" /><path
         d="m 7245.21,6665.45 1951.45,0 0,70 -1951.45,0 0,-70 z"
         style="fill:#e4ecea;fill-opacity:1;fill-rule:nonzero;stroke:none"
         id="path248"
         inkscape:connector-curvature="0" /><path
         d="m 7414.89,5628.88 1612.09,0 0,590.023 -1612.09,0 0,-590.023 z"
         style="fill:#243849;fill-opacity:1;fill-rule:nonzero;stroke:none"
         id="path250"
         inkscape:connector-curvature="0" /><path
         d="m 7835.19,7655.78 771.5,0 0,70 -771.5,0 0,-70 z"
         style="fill:#c1bfbd;fill-opacity:1;fill-rule:nonzero;stroke:none"
         id="path252"
         inkscape:connector-curvature="0" /><path
         d="m 7835.19,7465.7 771.5,0 0,70 -771.5,0 0,-70 z"
         style="fill:#c1bfbd;fill-opacity:1;fill-rule:nonzero;stroke:none"
         id="path254"
         inkscape:connector-curvature="0" /><path
         d="m 7835.19,7275.62 771.5,0 0,70 -771.5,0 0,-70 z"
         style="fill:#c1bfbd;fill-opacity:1;fill-rule:nonzero;stroke:none"
         id="path256"
         inkscape:connector-curvature="0" /><path
         d="m 7301.87,6879.98 -41.67,0 c -10.72,0 -19.48,8.77 -19.48,19.49 l 0,41.66 c 0,10.72 8.76,19.49 19.48,19.49 l 41.67,0 c 10.71,0 19.48,-8.77 19.48,-19.49 l 0,-41.66 c 0,-10.72 -8.77,-19.49 -19.48,-19.49"
         style="fill:#ecc533;fill-opacity:1;fill-rule:nonzero;stroke:none"
         id="path258"
         inkscape:connector-curvature="0" /><path
         d="m 7435.72,6879.98 -41.67,0 c -10.72,0 -19.48,8.77 -19.48,19.49 l 0,41.66 c 0,10.72 8.76,19.49 19.48,19.49 l 41.67,0 c 10.71,0 19.48,-8.77 19.48,-19.49 l 0,-41.66 c 0,-10.72 -8.77,-19.49 -19.48,-19.49"
         style="fill:#e34540;fill-opacity:1;fill-rule:nonzero;stroke:none"
         id="path260"
         inkscape:connector-curvature="0" /><g
         id="g262"><g
           id="g264"
           clip-path="url(#clipPath266)"><path
             d="m 7265.26,1611.13 c -111.4,0 -204.63,79.9 -221.69,190 l -13.4,86.47 99.89,792.04 0,698.53 173.92,482.46 185.38,0 0,728.38 1561.17,0 0,-728.38 237.79,0 144.17,-399.93 31.24,0 0,-781.06 103.15,-817.87 -13.85,-69.9 c -20.77,-104.74 -113.32,-180.74 -220.07,-180.74 l -2067.7,0"
             style="fill:url(#linearGradient270);fill-opacity:1;fill-rule:nonzero;stroke:none"
             id="path276"
             inkscape:connector-curvature="0" /></g></g><path
         d="m 7215.26,1711.13 c -111.4,0 -204.63,79.9 -221.69,190 l -13.4,86.47 99.89,792.04 0,698.53 173.92,482.46 185.38,0 0,728.38 1561.17,0 0,-728.38 237.79,0 144.17,-399.93 31.24,0 0,-781.06 103.15,-817.87 -13.85,-69.9 c -20.77,-104.74 -113.32,-180.74 -220.07,-180.74 l -2067.7,0"
         style="fill:#ffffff;fill-opacity:1;fill-rule:nonzero;stroke:none"
         id="path278"
         inkscape:connector-curvature="0" /><path
         d="m 9404.93,1911.3 10.7,54.03 -101.9,808.03 0,687.34 -2133.67,0 0,-687.34 -98.92,-784.33 11.25,-72.6 c 9.39,-60.6 61.56,-105.3 122.88,-105.3 l 2067.69,0 c 59.35,0 110.43,41.95 121.97,100.17"
         style="fill:#c1bfbd;fill-opacity:1;fill-rule:nonzero;stroke:none"
         id="path280"
         inkscape:connector-curvature="0" /><path
         d="m 7539.36,3860.63 -215.13,0 -144.17,-399.93 2132.18,0 -144.18,399.93 -267.51,0"
         style="fill:#31475a;fill-opacity:1;fill-rule:nonzero;stroke:none"
         id="path282"
         inkscape:connector-curvature="0" /><path
         d="m 7539.36,3675.04 1361.17,0 0,913.973 -1361.17,0 0,-913.973 z"
         style="fill:#e4ecea;fill-opacity:1;fill-rule:nonzero;stroke:none"
         id="path284"
         inkscape:connector-curvature="0" /><path
         d="m 7819.49,4294.35 800.91,0 0,70 -800.91,0 0,-70 z"
         style="fill:#c1bfbd;fill-opacity:1;fill-rule:nonzero;stroke:none"
         id="path286"
         inkscape:connector-curvature="0" /><path
         d="m 7819.49,4097.03 800.91,0 0,70 -800.91,0 0,-70 z"
         style="fill:#c1bfbd;fill-opacity:1;fill-rule:nonzero;stroke:none"
         id="path288"
         inkscape:connector-curvature="0" /><path
         d="m 7819.49,3899.7 800.91,0 0,70 -800.91,0 0,-70 z"
         style="fill:#c1bfbd;fill-opacity:1;fill-rule:nonzero;stroke:none"
         id="path290"
         inkscape:connector-curvature="0" /><path
         d="m 7375.13,2566.49 102.51,0 c 14.75,0 27.11,11.15 28.63,25.82 l 10.73,103.55 c 1.76,16.98 -11.57,31.75 -28.64,31.75 l -100.16,0 c -14.51,0 -26.74,-10.79 -28.56,-25.18 l -13.08,-103.55 c -2.17,-17.19 11.24,-32.39 28.57,-32.39"
         style="fill:#243849;fill-opacity:1;fill-rule:nonzero;stroke:none"
         id="path292"
         inkscape:connector-curvature="0" /><path
         d="m 7607.17,2566.49 102.7,0 c 15.11,0 27.65,11.68 28.72,26.75 l 7.32,103.55 c 1.18,16.66 -12.02,30.82 -28.72,30.82 l -100.34,0 c -14.87,0 -27.29,-11.31 -28.67,-26.11 l -9.67,-103.55 c -1.58,-16.88 11.7,-31.46 28.66,-31.46"
         style="fill:#243849;fill-opacity:1;fill-rule:nonzero;stroke:none"
         id="path294"
         inkscape:connector-curvature="0" /><path
         d="m 7839.25,2566.49 102.82,0 c 15.47,0 28.18,12.23 28.77,27.7 l 3.92,103.54 c 0.62,16.32 -12.44,29.88 -28.77,29.88 l -100.47,0 c -15.22,0 -27.81,-11.85 -28.74,-27.05 l -6.27,-103.54 c -1,-16.56 12.15,-30.53 28.74,-30.53"
         style="fill:#243849;fill-opacity:1;fill-rule:nonzero;stroke:none"
         id="path296"
         inkscape:connector-curvature="0" /><path
         d="m 8071.35,2566.49 102.89,0 c 15.84,0 28.7,12.8 28.78,28.64 l 0.53,103.55 c 0.08,15.95 -12.83,28.93 -28.79,28.93 l -100.53,0 c -15.59,0 -28.35,-12.4 -28.78,-27.99 l -2.87,-103.55 c -0.45,-16.2 12.56,-29.58 28.77,-29.58"
         style="fill:#243849;fill-opacity:1;fill-rule:nonzero;stroke:none"
         id="path298"
         inkscape:connector-curvature="0" /><path
         d="m 8403.5,2727.61 -100.53,0 c -15.96,0 -28.87,-12.98 -28.79,-28.93 l 0.52,-103.55 c 0.08,-15.84 12.95,-28.64 28.79,-28.64 l 102.88,0 c 16.22,0 29.23,13.38 28.78,29.58 l -2.87,103.55 c -0.43,15.59 -13.19,27.99 -28.78,27.99"
         style="fill:#243849;fill-opacity:1;fill-rule:nonzero;stroke:none"
         id="path300"
         inkscape:connector-curvature="0" /><path
         d="m 8632.21,2727.61 -100.47,0 c -16.33,0 -29.39,-13.56 -28.77,-29.88 l 3.92,-103.54 c 0.59,-15.47 13.3,-27.7 28.77,-27.7 l 102.82,0 c 16.59,0 29.74,13.97 28.74,30.53 l -6.28,103.54 c -0.92,15.2 -13.51,27.05 -28.73,27.05"
         style="fill:#243849;fill-opacity:1;fill-rule:nonzero;stroke:none"
         id="path302"
         inkscape:connector-curvature="0" /><path
         d="m 8858.09,2727.61 -94.27,0 c -18.47,0 -33.07,-15.67 -31.77,-34.1 l 6.89,-97.42 c 1.18,-16.68 15.05,-29.6 31.77,-29.6 l 96.48,0 c 18.77,0 33.46,16.13 31.72,34.81 l -9.1,97.42 c -1.53,16.38 -15.27,28.89 -31.72,28.89"
         style="fill:#243849;fill-opacity:1;fill-rule:nonzero;stroke:none"
         id="path304"
         inkscape:connector-curvature="0" /><path
         d="m 9086.83,2727.61 -94.07,0 c -18.89,0 -33.62,-16.34 -31.68,-35.13 l 10.09,-97.42 c 1.68,-16.24 15.36,-28.57 31.68,-28.57 l 96.28,0 c 19.17,0 34,16.82 31.6,35.84 l -12.3,97.42 c -2.01,15.92 -15.55,27.86 -31.6,27.86"
         style="fill:#243849;fill-opacity:1;fill-rule:nonzero;stroke:none"
         id="path306"
         inkscape:connector-curvature="0" /><path
         d="m 7343.22,2313.8 108.25,0 c 14.75,0 27.11,11.15 28.63,25.82 l 11.92,115.08 c 1.76,16.98 -11.56,31.76 -28.63,31.76 l -105.64,0 c -14.51,0 -26.74,-10.79 -28.56,-25.19 l -14.53,-115.08 c -2.17,-17.19 11.23,-32.39 28.56,-32.39"
         style="fill:#243849;fill-opacity:1;fill-rule:nonzero;stroke:none"
         id="path308"
         inkscape:connector-curvature="0" /><path
         d="m 7583.56,2313.8 108.43,0 c 15.11,0 27.66,11.68 28.72,26.75 l 8.14,115.09 c 1.18,16.65 -12.02,30.82 -28.72,30.82 l -105.82,0 c -14.86,0 -27.28,-11.32 -28.66,-26.11 l -10.75,-115.09 c -1.58,-16.88 11.7,-31.46 28.66,-31.46"
         style="fill:#243849;fill-opacity:1;fill-rule:nonzero;stroke:none"
         id="path310"
         inkscape:connector-curvature="0" /><path
         d="m 7823.94,2313.8 108.55,0 c 15.48,0 28.18,12.23 28.77,27.7 l 4.36,115.08 c 0.62,16.31 -12.44,29.88 -28.77,29.88 l -105.94,0 c -15.23,0 -27.82,-11.86 -28.74,-27.05 l -6.97,-115.08 c -1.01,-16.56 12.15,-30.53 28.74,-30.53"
         style="fill:#243849;fill-opacity:1;fill-rule:nonzero;stroke:none"
         id="path312"
         inkscape:connector-curvature="0" /><path
         d="m 8064.34,2313.8 108.62,0 c 15.84,0 28.71,12.8 28.79,28.64 l 0.58,115.08 c 0.08,15.96 -12.83,28.94 -28.79,28.94 l -106.01,0 c -15.59,0 -28.34,-12.41 -28.78,-27.99 l -3.19,-115.09 c -0.45,-16.2 12.57,-29.58 28.78,-29.58"
         style="fill:#243849;fill-opacity:1;fill-rule:nonzero;stroke:none"
         id="path314"
         inkscape:connector-curvature="0" /><path
         d="m 8410.2,2486.46 -106.01,0 c -15.96,0 -28.87,-12.98 -28.79,-28.94 l 0.58,-115.08 c 0.08,-15.84 12.95,-28.64 28.79,-28.64 l 108.62,0 c 16.21,0 29.23,13.38 28.78,29.58 l -3.2,115.09 c -0.43,15.58 -13.19,27.99 -28.77,27.99"
         style="fill:#243849;fill-opacity:1;fill-rule:nonzero;stroke:none"
         id="path316"
         inkscape:connector-curvature="0" /><path
         d="m 8646.82,2486.46 -105.94,0 c -16.33,0 -29.39,-13.57 -28.77,-29.88 l 4.36,-115.08 c 0.59,-15.47 13.29,-27.7 28.77,-27.7 l 108.55,0 c 16.59,0 29.74,13.97 28.74,30.53 l -6.97,115.08 c -0.92,15.19 -13.52,27.05 -28.74,27.05"
         style="fill:#243849;fill-opacity:1;fill-rule:nonzero;stroke:none"
         id="path318"
         inkscape:connector-curvature="0" /><path
         d="m 8880.63,2486.46 -99.75,0 c -18.48,0 -33.07,-15.67 -31.77,-34.1 l 7.71,-108.96 c 1.18,-16.68 15.05,-29.6 31.77,-29.6 l 102.21,0 c 18.77,0 33.46,16.13 31.72,34.81 l -10.18,108.96 c -1.53,16.37 -15.27,28.89 -31.71,28.89"
         style="fill:#243849;fill-opacity:1;fill-rule:nonzero;stroke:none"
         id="path320"
         inkscape:connector-curvature="0" /><path
         d="m 9117.28,2486.46 -99.54,0 c -18.89,0 -33.63,-16.35 -31.68,-35.14 l 11.28,-108.95 c 1.68,-16.24 15.36,-28.57 31.68,-28.57 l 102.02,0 c 19.17,0 34,16.82 31.6,35.84 l -13.76,108.96 c -2.01,15.92 -15.55,27.86 -31.6,27.86"
         style="fill:#243849;fill-opacity:1;fill-rule:nonzero;stroke:none"
         id="path322"
         inkscape:connector-curvature="0" /><path
         d="m 7308.96,2042.45 114.4,0 c 14.76,0 27.12,11.15 28.64,25.83 l 13.25,127.9 c 1.76,16.98 -11.57,31.75 -28.64,31.75 l -111.5,0 c -14.51,0 -26.75,-10.79 -28.56,-25.18 l -16.15,-127.9 c -2.17,-17.2 11.23,-32.4 28.56,-32.4"
         style="fill:#243849;fill-opacity:1;fill-rule:nonzero;stroke:none"
         id="path324"
         inkscape:connector-curvature="0" /><path
         d="m 7558.21,2042.45 114.59,0 c 15.11,0 27.65,11.69 28.72,26.76 l 9.05,127.9 c 1.17,16.66 -12.02,30.82 -28.72,30.82 l -111.69,0 c -14.86,0 -27.28,-11.31 -28.66,-26.11 l -11.95,-127.9 c -1.58,-16.88 11.7,-31.47 28.66,-31.47"
         style="fill:#243849;fill-opacity:1;fill-rule:nonzero;stroke:none"
         id="path326"
         inkscape:connector-curvature="0" /><path
         d="m 7807.49,2042.45 114.71,0 c 15.48,0 28.19,12.24 28.77,27.7 l 4.85,127.9 c 0.62,16.32 -12.44,29.88 -28.77,29.88 l -111.81,0 c -15.22,0 -27.81,-11.85 -28.73,-27.04 l -7.76,-127.91 c -1,-16.55 12.16,-30.53 28.74,-30.53"
         style="fill:#243849;fill-opacity:1;fill-rule:nonzero;stroke:none"
         id="path328"
         inkscape:connector-curvature="0" /><path
         d="m 8056.8,2042.45 114.78,0 c 15.84,0 28.71,12.8 28.79,28.65 l 0.65,127.9 c 0.08,15.96 -12.83,28.93 -28.79,28.93 l -111.87,0 c -15.59,0 -28.35,-12.4 -28.78,-27.99 l -3.56,-127.9 c -0.44,-16.21 12.57,-29.59 28.78,-29.59"
         style="fill:#243849;fill-opacity:1;fill-rule:nonzero;stroke:none"
         id="path330"
         inkscape:connector-curvature="0" /><path
         d="m 8276.71,2199 0.65,-127.9 c 0.08,-15.85 12.95,-28.65 28.79,-28.65 l 114.77,0 c 16.22,0 29.23,13.38 28.78,29.59 l -3.55,127.9 c -0.43,15.59 -13.19,27.99 -28.78,27.99 l -111.87,0 c -15.96,0 -28.87,-12.97 -28.79,-28.93"
         style="fill:#243849;fill-opacity:1;fill-rule:nonzero;stroke:none"
         id="path332"
         inkscape:connector-curvature="0" /><path
         d="m 8521.91,2198.05 4.84,-127.9 c 0.59,-15.46 13.3,-27.7 28.77,-27.7 l 114.71,0 c 16.59,0 29.75,13.98 28.74,30.53 l -7.75,127.91 c -0.92,15.19 -13.51,27.04 -28.73,27.04 l -111.81,0 c -16.33,0 -29.39,-13.56 -28.77,-29.88"
         style="fill:#243849;fill-opacity:1;fill-rule:nonzero;stroke:none"
         id="path334"
         inkscape:connector-curvature="0" /><path
         d="m 8767.4,2193.84 8.61,-121.78 c 1.18,-16.68 15.05,-29.61 31.77,-29.61 l 108.37,0 c 18.77,0 33.46,16.14 31.72,34.82 l -11.38,121.78 c -1.53,16.37 -15.27,28.88 -31.71,28.88 l -105.61,0 c -18.48,0 -33.08,-15.66 -31.77,-34.09"
         style="fill:#243849;fill-opacity:1;fill-rule:nonzero;stroke:none"
         id="path336"
         inkscape:connector-curvature="0" /><path
         d="m 9149.92,2227.93 -105.41,0 c -18.88,0 -33.63,-16.34 -31.68,-35.13 l 12.61,-121.78 c 1.68,-16.23 15.36,-28.57 31.68,-28.57 l 108.18,0 c 19.17,0 34,16.82 31.6,35.85 l -15.38,121.77 c -2.01,15.92 -15.55,27.86 -31.6,27.86"
         style="fill:#243849;fill-opacity:1;fill-rule:nonzero;stroke:none"
         id="path338"
         inkscape:connector-curvature="0" /><path
         d="m 8891.91,3460.7 -1290.04,0 c 50.97,-235.53 320.28,-415.25 645.02,-415.25 324.75,0 594.06,179.72 645.02,415.25"
         style="fill:#e4ecea;fill-opacity:1;fill-rule:nonzero;stroke:none"
         id="path340"
         inkscape:connector-curvature="0" /></g></g></svg>