<?xml version="1.0" encoding="UTF-8" standalone="no"?>
<!-- Generator: Adobe Illustrator 21.0.0, SVG Export Plug-In . SVG Version: 6.00 Build 0)  -->

<svg
   xmlns:dc="http://purl.org/dc/elements/1.1/"
   xmlns:cc="http://creativecommons.org/ns#"
   xmlns:rdf="http://www.w3.org/1999/02/22-rdf-syntax-ns#"
   xmlns:svg="http://www.w3.org/2000/svg"
   xmlns="http://www.w3.org/2000/svg"
   xmlns:sodipodi="http://sodipodi.sourceforge.net/DTD/sodipodi-0.dtd"
   xmlns:inkscape="http://www.inkscape.org/namespaces/inkscape"
   version="1.1"
   id="Layer_1"
   x="0px"
   y="0px"
   viewBox="0 0 1400 980"
   style="enable-background:new 0 0 1400 980;"
   xml:space="preserve"
   inkscape:version="0.91 r13725"
   sodipodi:docname="typewriter.svg"><metadata
     id="metadata793"><rdf:RDF><cc:Work
         rdf:about=""><dc:format>image/svg+xml</dc:format><dc:type
           rdf:resource="http://purl.org/dc/dcmitype/StillImage" /><dc:title></dc:title></cc:Work></rdf:RDF></metadata><defs
     id="defs791" /><sodipodi:namedview
     pagecolor="#ffffff"
     bordercolor="#666666"
     borderopacity="1"
     objecttolerance="10"
     gridtolerance="10"
     guidetolerance="10"
     inkscape:pageopacity="0"
     inkscape:pageshadow="2"
     inkscape:window-width="1853"
     inkscape:window-height="1056"
     id="namedview789"
     showgrid="false"
     inkscape:zoom="0.23"
     inkscape:cx="700"
     inkscape:cy="490"
     inkscape:window-x="67"
     inkscape:window-y="24"
     inkscape:window-maximized="1"
     inkscape:current-layer="Layer_1" /><style
     type="text/css"
     id="style3">
	.st0{fill:#F8AF3E;}
	.st1{opacity:0.41;fill:#D18520;}
	.st2{fill:#D18520;}
	.st3{fill:#FFFFFF;}
	.st4{fill:#706E6F;}
	.st5{fill:#ABACAE;}
	.st6{fill:#C7C5C6;}
	.st7{fill:#AFACAE;}
	.st8{opacity:0.54;fill:#C7C5C6;}
	.st9{fill:#653213;}
	.st10{fill:#512309;}
	.st11{opacity:0.3;fill:#D1DBD3;}
	.st12{opacity:0.3;}
	.st13{fill:#D1DBD3;}
	.st14{fill:#666B67;}
	.st15{fill:#F4F4F4;}
	.st16{fill:#B2B1B1;}
	.st17{fill:#ED694A;}
	.st18{fill:#C62F0C;}
	.st19{fill:#DB543A;}
	.st20{fill:#ED4840;}
	.st21{fill:#843812;}
	.st22{fill:#BC4713;}
	.st23{opacity:0.94;fill:#FFFFFF;}
	.st24{opacity:0.68;fill:#FFFFFF;}
	.st25{opacity:0.22;fill:#F8AF3E;}
	.st26{fill:#DE5311;}
	.st27{fill:#BC3B08;}
	.st28{fill:#FFC300;}
	.st29{fill:#CC9702;}
</style><g
     id="g5"><rect
       class="st0"
       width="1400"
       height="980"
       id="rect7" /><path
       class="st1"
       d="M840.4,208.4c-0.1,0-0.1,0-0.2,0h-68l0,0h167.1v-65.6v-5.7v-8.1V71.7H448.5v57.4v8.1v5.7v65.6h174l0,0h-65   c-0.1,0-0.1,0-0.2,0H448.5c0,0,0,0,0,0v136.4h0v165.9c0,30.2,24.4,54.6,54.6,54.6h381.7c30.2,0,54.6-24.4,54.6-54.6V344.8h0v-8.4   v-128H840.4z"
       id="path9" /><polygon
       class="st2"
       points="951.6,174.5 951.6,167.4 961,167.4 977.6,167.4 977.6,148.2 991,148.2 991,130.7 977.6,130.7    977.6,113 961,113 951.6,113 951.6,105.1 948.2,105.1 942.9,105.1 942.9,174.5 948.2,174.5  "
       id="polygon11" /><path
       class="st1"
       d="M434.2,104.4v19.5H423c-3.7,0-6.8,3-6.8,6.8v0.6c-6.8,0.5-12.5,5.5-13.7,12.3l-20,112.3v27.4   c0,8.2,6.6,14.8,14.8,14.8h2.8c6.6,0,12-5.4,12-12v-21.8c0-5.3-4.3-9.6-9.6-9.6h-2.4c-4.3,0-7.6-3.9-6.8-8.1l17-94.4   c0.7-3.9,2.9-7.2,5.9-9.4v1.4c0,3.7,3,6.8,6.8,6.8h11.1v22.9h8.7h5.6v-69.4h-5.6H434.2z"
       id="path13" /><path
       class="st2"
       d="M995.6,156.6h8.2c2.5,0,4.6-2.1,4.6-4.6v-25.1c0-2.5-2.1-4.6-4.6-4.6h-8.2c-2.5,0-4.6,2.1-4.6,4.6V152   C991,154.5,993,156.6,995.6,156.6z"
       id="path15" /><path
       class="st1"
       d="M352.7,392.7L321.2,406c-26.4-40.1-78.4-57-124.2-37.7c-51.7,21.8-76,81.3-54.2,133.1   c21.8,51.7,81.3,76,133.1,54.2c46.8-19.7,71.1-70.3,59.2-118l31-13.1c8.7-3.7,12.9-13.8,9.2-22.6   C371.5,393.2,361.4,389.1,352.7,392.7z"
       id="path17" /><path
       class="st1"
       d="M1339.4,233c0.8-2,19.9-68.5,19.9-68.5s-39.4,39.9-43.3,41.6c-3.9,1.7-1.3,14-1.3,14l-7.1-9l-7.5,6.8l1,24   l-6.2-18.3l-23.9,25.7l2.3,15.4l-7-13l-2.3,5.6l2.2,27.3l-4.9-20.4c0,0-1.6,5.2-2.5,4.6c-0.9-0.6-1.1,32.6-1.1,32.6l-7.4-32.2   l-3.8,0.9l1.9,40.3l-6.4-31.1l-17.8,31.6l8.6,32.9l-14.3-28.3l-12.1,14.7l5.9,22.2l-7.4-15.7l8.8,28.6l-14.8-23.7   c0,0-6.6,17.7-5.8,19.8c0.5,1.3,3.9,10.9,6.2,17.8l-1.9,0.4c-3.1-4.6-6.7-9.8-6.7-9.8s-2.4,6.2-4.1,12l-162.3,33.3l11.7,57.2   l-9.7,0.8l-7.4,0.6l15.7,190.9c-10.1,6.9-16.8,17.9-18.3,30.1c-2.6-0.1-5.2,0-7.8,0.6l0,0c0,0-0.1,0-0.1,0c0,0-0.1,0-0.1,0l0,0   c-3.7,1-7.1,2.7-10.1,4.9c-9.4-15.1-27.7-23.2-45.9-18.8c-18.2,4.3-30.9,19.8-32.5,37.5l-5.2,1.2c-3.1,0.7-5,3.9-4.3,7l0.4,1.5   c0.7,3.1,3.9,5,7,4.3l3.1-0.7c0,0.2,0.1,0.3,0.1,0.5c5.4,22.8,28.4,37,51.2,31.5c22.8-5.4,37-28.4,31.5-51.2   c-0.4-1.7-0.9-3.4-1.5-5c2.6-1.5,5.4-2.7,8.4-3.5l0,0c0,0,0.1,0,0.1,0c0,0,0.1,0,0.1,0l0,0c1.9-0.4,3.7-0.6,5.5-0.7   c0.2,2,0.5,4,1,6c3.1,13.2,12.1,23.4,23.5,28.7l4.2,51l23.4-1.9l1.7,14.9l0,0l0,0l2.2,18.7l168.3-19.4l64.8-7.5l-4.4-38.1   l-3.1-26.7l-4.3-37.4l38.5-58.4l-53.4-260.3l9.8-14.9l-43.7-7l50-3l4.2-8l-18.6-4.1l19.3,0.8l2.5-3.6l-30.5-2.8l36.4-2.1l2.6-3.9   l12-16.2l-47,0.9l45.6-4.2l1-1.6l-17.6-0.8c0,0,19.2-1.1,21.1-4.1c1.8-3,12.5-18.1,12.5-18.1l-38.6,1.3l39.6-10.1l2.6-6.2   l-24.8,0.9c0,0,23.8-6.5,25-6.5c1.3,0,3.1-22.7,3.1-22.7l-17.2-0.1L1339.4,233z"
       id="path19" /><path
       class="st1"
       d="M1128.4,149.2c0.9-0.6,52-9.7,52-9.7L1128.4,149.2l14.7,22.2l5.4,21.3l19.8-24.9l45.2-1.3l25.6-24.9   l-22.6-20.2l3.7-27l-26.2-16l-26.5,3.3l-35.5,31.3C1132,112.9,1127.5,149.8,1128.4,149.2z"
       id="path21" /><path
       class="st1"
       d="M93.9,326.8l23.7-29.8l54.1-1.6l30.7-29.9l-27-24.2l4.5-32.3l-31.3-19.2l-31.7,3.9l-42.5,37.5   c0,0-5.4,44.1-4.3,43.4c1.1-0.7,62.3-11.6,62.3-11.6l-62.3,11.6l17.6,26.5L93.9,326.8z"
       id="path23" /><path
       class="st1"
       d="M251.3,133.4c1-0.6,55.4-10.3,55.4-10.3L251.3,133.4L267,157l5.7,22.7l21.1-26.5l48.2-1.4l27.3-26.6   l-24.1-21.5l4-28.7l-27.9-17L293,61.5l-37.8,33.3C255.2,94.8,250.4,134.1,251.3,133.4z"
       id="path25" /><path
       class="st1"
       d="M988.5,354.2c1-0.6,55.4-10.3,55.4-10.3L988.5,354.2l15.6,23.6l5.7,22.7l21.1-26.5l48.2-1.4l27.3-26.6   l-24.1-21.5l4-28.7l-27.9-17l-28.2,3.5l-37.8,33.3C992.3,315.6,987.5,354.8,988.5,354.2z"
       id="path27" /><path
       class="st1"
       d="M327,838.1c-4.7-4.7-10.3-9.7-16.6-14.7c-2.7-2.1-5.5-4.3-8.4-6.4c0.3-0.2,0.5-0.4,0.8-0.6c0,0,0.1,0,0.1-0.1   c0.9-0.6,1.7-1.2,2.5-1.6c0.1,0,0.2-0.1,0.3-0.1c0.2-0.1,0.4-0.2,0.6-0.3c0.1-0.1,0.2-0.1,0.4-0.2c0.2-0.1,0.4-0.2,0.6-0.2   c0.1,0,0.3-0.1,0.4-0.1c0.2-0.1,0.4-0.1,0.5-0.2c0.1,0,0.2-0.1,0.4-0.1c0.2,0,0.4-0.1,0.5-0.1c0.1,0,0.2,0,0.3-0.1   c0.2,0,0.4-0.1,0.5-0.1c0,0,0,0,0.1,0c0.5,0,0.9,0,1.3,0c0.6,0.1,1.2,0.3,1.7,0.6c0.3,0.2,0.5,0.4,0.8,0.6   c3.7-11.3,5.6-23.4,5.6-35.9c0-54.9-37.9-101-89-113.3c-0.2,0.2-0.4,0.5-0.6,0.7c-0.1,0.1-0.3,0.3-0.4,0.4   c-0.2,0.1-0.3,0.3-0.5,0.4c-0.1,0.1-0.3,0.2-0.4,0.3c-0.2,0.2-0.4,0.3-0.6,0.5c-0.1,0.1-0.3,0.2-0.4,0.3c-0.3,0.2-0.5,0.3-0.8,0.5   c-0.1,0.1-0.3,0.2-0.4,0.2c-0.3,0.2-0.6,0.3-0.9,0.5c-0.1,0.1-0.3,0.1-0.4,0.2c-0.3,0.2-0.7,0.3-1.1,0.5c-0.1,0.1-0.3,0.1-0.4,0.2   c-0.4,0.2-0.8,0.3-1.2,0.5c-0.1,0-0.2,0.1-0.4,0.1c-0.4,0.2-0.9,0.3-1.4,0.4c-0.1,0-0.2,0.1-0.3,0.1c-0.5,0.1-1,0.3-1.5,0.4   c-0.1,0-0.2,0.1-0.3,0.1c-0.5,0.1-1.1,0.3-1.6,0.4c-0.1,0-0.2,0-0.3,0.1c-0.6,0.1-1.2,0.2-1.8,0.3c-0.1,0-0.1,0-0.2,0   c-0.7,0.1-1.3,0.2-2,0.3c0,0-0.1,0-0.1,0c-2.9,0.4-6,0.6-9.2,0.6c-13,0-23.9-3.5-27.3-8.2c-51.4,12.2-89.6,58.4-89.6,113.5   c0,10.4,1.4,20.4,3.9,30c0,0,0,0,0,0l0,0c5.5,2.3,12.4,9.3,17.9,18.8c4.8,8.3,7.4,16.6,7.4,22.5c0,2-0.2,3.7-0.8,5c0,0,0,0,0,0   c0,0,0,0,0,0l0,0c21.4,24.7,53,40.3,88.2,40.3c31.4,0,60-12.4,80.9-32.7l0,0c0,0,0,0,0,0c0,0,0,0,0,0c-1.6-1.5-2.3-4.1-2.3-7.4   c0-1.1,0.1-2.3,0.3-3.6c2.5,1.4,4.9,2.8,7.3,4.1c7.1,3.8,13.8,7,20,9.5c17.4,7,30.5,8.6,34.1,3.1   C346.9,862.8,340.2,851.3,327,838.1z"
       id="path29" /><polygon
       class="st1"
       points="670.1,587 658.1,582.1 631.2,647.6 540.1,637.8 509.1,926.6 509.1,926.6 509.1,926.6 732.4,950.5    733.6,939 734.9,927.5 755.6,936 760,925.3 865.8,667.3 670.1,587  "
       id="polygon31" /><polygon
       class="st3"
       points="1290.4,779.7 1225.6,787.2 1057.4,806.6 1021.1,491.9 1028.5,491.1 1254.1,465.1 1282.9,714.9    1286,741.6  "
       id="polygon33" /><g
       id="g35"><path
         class="st4"
         d="M413.4,116.9h-10.6c-7.2,0-13.5,5.2-14.7,12.3l-20,112.3v27.4c0,8.2,6.6,14.8,14.8,14.8h2.8    c6.6,0,12-5.4,12-12v-21.8c0-5.3-4.3-9.6-9.6-9.6h-2.4c-4.3,0-7.6-3.9-6.8-8.1l17-94.4c1.3-7.1,7.5-12.3,14.7-12.3l0,0    L413.4,116.9z"
         id="path37" /><path
         class="st4"
         d="M426.6,109.6h-18.1c-3.7,0-6.8,3-6.8,6.8v13.5c0,3.7,3,6.8,6.8,6.8h18.1V109.6z"
         id="path39" /><rect
         x="472.4"
         y="194.2"
         class="st4"
         width="414.2"
         height="114.4"
         id="rect41" /><path
         class="st5"
         d="M924.9,330.6H434v165.9c0,30.2,24.4,54.6,54.6,54.6h381.7c30.2,0,54.6-24.4,54.6-54.6V330.6z"
         id="path43" /><path
         class="st4"
         d="M488.6,529.5c-18.2,0-33-14.8-33-33V352.1h447.8v144.4c0,18.2-14.8,33-33,33H488.6z"
         id="path45" /><g
         id="g47"><circle
           class="st6"
           cx="505.5"
           cy="383.4"
           r="13.2"
           id="circle49" /><g
           id="g51"><circle
             class="st6"
             cx="494.2"
             cy="450.3"
             r="13.2"
             id="circle53" /><circle
             class="st6"
             cx="528.4"
             cy="450.3"
             r="13.2"
             id="circle55" /><circle
             class="st6"
             cx="562.7"
             cy="450.3"
             r="13.2"
             id="circle57" /><circle
             class="st6"
             cx="597"
             cy="450.3"
             r="13.2"
             id="circle59" /><circle
             class="st6"
             cx="631.2"
             cy="450.3"
             r="13.2"
             id="circle61" /><circle
             class="st6"
             cx="665.5"
             cy="450.3"
             r="13.2"
             id="circle63" /><circle
             class="st6"
             cx="699.7"
             cy="450.3"
             r="13.2"
             id="circle65" /><circle
             class="st6"
             cx="734"
             cy="450.3"
             r="13.2"
             id="circle67" /><circle
             class="st6"
             cx="768.2"
             cy="450.3"
             r="13.2"
             id="circle69" /><circle
             class="st6"
             cx="802.5"
             cy="450.3"
             r="13.2"
             id="circle71" /><circle
             class="st6"
             cx="836.8"
             cy="450.3"
             r="13.2"
             id="circle73" /><circle
             class="st6"
             cx="871"
             cy="450.3"
             r="13.2"
             id="circle75" /></g><circle
           class="st6"
           cx="488.5"
           cy="417.3"
           r="13.2"
           id="circle77" /><circle
           class="st6"
           cx="867"
           cy="483.7"
           r="16.2"
           id="circle79" /><circle
           class="st6"
           cx="497.7"
           cy="483.7"
           r="16.2"
           id="circle81" /><g
           id="g83"><circle
             class="st6"
             cx="544.8"
             cy="483.7"
             r="13.2"
             id="circle85" /><circle
             class="st6"
             cx="576.4"
             cy="483.7"
             r="13.2"
             id="circle87" /><circle
             class="st6"
             cx="607.9"
             cy="483.7"
             r="13.2"
             id="circle89" /><circle
             class="st6"
             cx="639.4"
             cy="483.7"
             r="13.2"
             id="circle91" /><circle
             class="st6"
             cx="670.9"
             cy="483.7"
             r="13.2"
             id="circle93" /><circle
             class="st6"
             cx="702.4"
             cy="483.7"
             r="13.2"
             id="circle95" /><circle
             class="st6"
             cx="734"
             cy="483.7"
             r="13.2"
             id="circle97" /><circle
             class="st6"
             cx="765.5"
             cy="483.7"
             r="13.2"
             id="circle99" /><circle
             class="st6"
             cx="797"
             cy="483.7"
             r="13.2"
             id="circle101" /><circle
             class="st6"
             cx="828.5"
             cy="483.7"
             r="13.2"
             id="circle103" /></g><circle
           class="st6"
           cx="520"
           cy="417.3"
           r="13.2"
           id="circle105" /><circle
           class="st6"
           cx="551.4"
           cy="417.3"
           r="13.2"
           id="circle107" /><circle
           class="st6"
           cx="582.8"
           cy="417.3"
           r="13.2"
           id="circle109" /><circle
           class="st6"
           cx="614.3"
           cy="417.3"
           r="13.2"
           id="circle111" /><circle
           class="st6"
           cx="645.7"
           cy="417.3"
           r="13.2"
           id="circle113" /><circle
           class="st6"
           cx="677.1"
           cy="417.3"
           r="13.2"
           id="circle115" /><circle
           class="st6"
           cx="708.6"
           cy="417.3"
           r="13.2"
           id="circle117" /><circle
           class="st6"
           cx="740"
           cy="417.3"
           r="13.2"
           id="circle119" /><circle
           class="st6"
           cx="771.4"
           cy="417.3"
           r="13.2"
           id="circle121" /><circle
           class="st6"
           cx="802.8"
           cy="417.3"
           r="13.2"
           id="circle123" /><circle
           class="st6"
           cx="834.3"
           cy="417.3"
           r="13.2"
           id="circle125" /><circle
           class="st6"
           cx="865.7"
           cy="417.3"
           r="13.2"
           id="circle127" /><circle
           class="st6"
           cx="536.5"
           cy="383.4"
           r="13.2"
           id="circle129" /><circle
           class="st6"
           cx="567.5"
           cy="383.4"
           r="13.2"
           id="circle131" /><circle
           class="st6"
           cx="598.5"
           cy="383.4"
           r="13.2"
           id="circle133" /><circle
           class="st6"
           cx="629.6"
           cy="383.4"
           r="13.2"
           id="circle135" /><circle
           class="st6"
           cx="660.6"
           cy="383.4"
           r="13.2"
           id="circle137" /><circle
           class="st6"
           cx="691.6"
           cy="383.4"
           r="13.2"
           id="circle139" /><circle
           class="st6"
           cx="722.7"
           cy="383.4"
           r="13.2"
           id="circle141" /><circle
           class="st6"
           cx="753.7"
           cy="383.4"
           r="13.2"
           id="circle143" /><circle
           class="st6"
           cx="784.7"
           cy="383.4"
           r="13.2"
           id="circle145" /><circle
           class="st6"
           cx="815.7"
           cy="383.4"
           r="13.2"
           id="circle147" /><circle
           class="st6"
           cx="846.8"
           cy="383.4"
           r="13.2"
           id="circle149" /></g><rect
         x="434"
         y="57.4"
         class="st4"
         width="490.9"
         height="136.8"
         id="rect151" /><rect
         x="924.9"
         y="90.1"
         class="st6"
         width="8.7"
         height="69.4"
         id="rect153" /><rect
         x="924.9"
         y="90.1"
         class="st7"
         width="5.3"
         height="69.4"
         id="rect155" /><rect
         x="419.7"
         y="90.1"
         class="st6"
         width="14.3"
         height="69.4"
         id="rect157" /><rect
         x="428.4"
         y="90.1"
         class="st7"
         width="5.6"
         height="69.4"
         id="rect159" /><rect
         x="933.6"
         y="98"
         class="st6"
         width="26"
         height="54.4"
         id="rect161" /><rect
         x="933.6"
         y="98"
         class="st7"
         width="9.4"
         height="54.4"
         id="rect163" /><rect
         x="959.6"
         y="115.7"
         class="st4"
         width="13.4"
         height="17.4"
         id="rect165" /><rect
         x="462.8"
         y="86.2"
         class="st3"
         width="433.4"
         height="79.2"
         id="rect167" /><rect
         x="434"
         y="114.8"
         class="st6"
         width="490.9"
         height="13.8"
         id="rect169" /><rect
         x="434"
         y="122.9"
         class="st7"
         width="490.9"
         height="5.7"
         id="rect171" /><path
         class="st4"
         d="M545.4,103.7h-28.8c-4.9,0-8.9,4-8.9,8.9v16.9c0,4.9,4,8.9,8.9,8.9h28.8c4.9,0,8.9-4,8.9-8.9v-16.9    C554.3,107.6,550.3,103.7,545.4,103.7z"
         id="path173" /><path
         class="st4"
         d="M818,103.7h-28.8c-4.9,0-8.9,4-8.9,8.9v16.9c0,4.9,4,8.9,8.9,8.9H818c4.9,0,8.9-4,8.9-8.9v-16.9    C826.9,107.6,822.9,103.7,818,103.7z"
         id="path175" /><path
         class="st4"
         d="M985.8,107.3h-8.2c-2.5,0-4.6,2.1-4.6,4.6V137c0,2.5,2.1,4.6,4.6,4.6h8.2c2.5,0,4.6-2.1,4.6-4.6v-25.1    C990.4,109.4,988.3,107.3,985.8,107.3z"
         id="path177" /><g
         id="g179"><g
           id="g181"><g
             id="g183"><polygon
               class="st5"
               points="685,281.9 680.7,281.9 681.6,192.9 684.1,192.9      "
               id="polygon185" /><polygon
               class="st6"
               points="681.4,218.6 680.7,281.9 685,281.9 684.4,218.6      "
               id="polygon187" /></g></g><g
           id="g189"><g
             id="g191"><polygon
               class="st5"
               points="704.4,280.4 700.1,281 688.7,192.6 691.1,192.3      "
               id="polygon193" /><polygon
               class="st6"
               points="692,218.1 700.1,281 704.4,280.4 695,217.7      "
               id="polygon195" /></g></g><g
           id="g197"><g
             id="g199"><polygon
               class="st5"
               points="723.4,276.6 719.2,277.7 695.7,191.4 698,190.8      "
               id="polygon201" /><polygon
               class="st6"
               points="702.5,216.3 719.2,277.7 723.4,276.6 705.4,215.6      "
               id="polygon203" /></g></g><g
           id="g205"><g
             id="g207"><polygon
               class="st5"
               points="741.7,270.5 737.7,272 702.4,189.4 704.7,188.6      "
               id="polygon209" /><polygon
               class="st6"
               points="712.6,213.3 737.7,272 741.7,270.5 715.4,212.2      "
               id="polygon211" /></g></g><g
           id="g213"><g
             id="g215"><polygon
               class="st5"
               points="759,262.1 755.2,264.2 708.8,186.6 711,185.5      "
               id="polygon217" /><polygon
               class="st6"
               points="722.2,209 755.2,264.2 759,262.1 724.8,207.6      "
               id="polygon219" /></g></g><g
           id="g221"><g
             id="g223"><polygon
               class="st5"
               points="775,251.7 771.6,254.2 714.8,183.1 716.7,181.6      "
               id="polygon225" /><polygon
               class="st6"
               points="731.2,203.6 771.6,254.2 775,251.7 733.6,201.9      "
               id="polygon227" /></g></g><g
           id="g229"><g
             id="g231"><polygon
               class="st5"
               points="789.4,239.5 786.3,242.3 720.2,178.8 721.9,177.1      "
               id="polygon233" /><polygon
               class="st6"
               points="739.3,197.1 786.3,242.3 789.4,239.5 741.4,195.1      "
               id="polygon235" /></g></g><g
           id="g237"><g
             id="g239"><polygon
               class="st5"
               points="802,225.5 799.4,228.8 725,173.9 726.5,172      "
               id="polygon241" /><polygon
               class="st6"
               points="746.5,189.7 799.4,228.8 802,225.5 748.3,187.5      "
               id="polygon243" /></g></g><g
           id="g245"><g
             id="g247"><polygon
               class="st5"
               points="566.4,228.8 563.7,225.5 639.2,172 640.8,173.9      "
               id="polygon249" /><polygon
               class="st6"
               points="617.4,187.5 563.7,225.5 566.4,228.8 619.3,189.7      "
               id="polygon251" /></g></g><g
           id="g253"><g
             id="g255"><polygon
               class="st5"
               points="579.4,242.3 576.3,239.5 643.8,177.1 645.5,178.8      "
               id="polygon257" /><polygon
               class="st6"
               points="624.3,195.1 576.3,239.5 579.4,242.3 626.4,197.1      "
               id="polygon259" /></g></g><g
           id="g261"><g
             id="g263"><polygon
               class="st5"
               points="594.2,254.2 590.8,251.7 649,181.6 651,183.1      "
               id="polygon265" /><polygon
               class="st6"
               points="632.2,201.9 590.8,251.7 594.2,254.2 634.6,203.6      "
               id="polygon267" /></g></g><g
           id="g269"><g
             id="g271"><polygon
               class="st5"
               points="610.5,264.2 606.8,262.1 654.8,185.5 656.9,186.6      "
               id="polygon273" /><polygon
               class="st6"
               points="640.9,207.6 606.8,262.1 610.5,264.2 643.5,209      "
               id="polygon275" /></g></g><g
           id="g277"><g
             id="g279"><polygon
               class="st5"
               points="628,272 624,270.5 661,188.6 663.3,189.4      "
               id="polygon281" /><polygon
               class="st6"
               points="650.4,212.2 624,270.5 628,272 653.1,213.3      "
               id="polygon283" /></g></g><g
           id="g285"><g
             id="g287"><polygon
               class="st5"
               points="646.5,277.7 642.3,276.6 667.7,190.8 670.1,191.4      "
               id="polygon289" /><polygon
               class="st6"
               points="660.4,215.6 642.3,276.6 646.5,277.7 663.3,216.3      "
               id="polygon291" /></g></g><g
           id="g293"><g
             id="g295"><polygon
               class="st5"
               points="665.6,281 661.3,280.4 674.6,192.3 677,192.6      "
               id="polygon297" /><polygon
               class="st6"
               points="670.8,217.7 661.3,280.4 665.6,281 673.7,218.1      "
               id="polygon299" /></g></g><g
           id="g301"><g
             id="g303"><polygon
               class="st5"
               points="695.1,281.4 690.8,281.7 685.3,192.8 687.8,192.7      "
               id="polygon305" /><polygon
               class="st6"
               points="686.9,218.5 690.8,281.7 695.1,281.4 689.9,218.3      "
               id="polygon307" /></g></g><g
           id="g309"><g
             id="g311"><polygon
               class="st5"
               points="714.3,278.7 710.1,279.5 692.3,192.1 694.8,191.6      "
               id="polygon313" /><polygon
               class="st6"
               points="697.5,217.4 710.1,279.5 714.3,278.7 700.4,216.8      "
               id="polygon315" /></g></g><g
           id="g317"><g
             id="g319"><polygon
               class="st5"
               points="733,273.7 728.9,275 699.2,190.5 701.5,189.8      "
               id="polygon321" /><polygon
               class="st6"
               points="707.8,214.9 728.9,275 733,273.7 710.6,214      "
               id="polygon323" /></g></g><g
           id="g325"><g
             id="g327"><polygon
               class="st5"
               points="750.8,266.4 747,268.2 705.8,188.1 708,187      "
               id="polygon329" /><polygon
               class="st6"
               points="717.7,211.2 747,268.2 750.8,266.4 720.4,210      "
               id="polygon331" /></g></g><g
           id="g333"><g
             id="g335"><polygon
               class="st5"
               points="767.5,257 763.9,259.2 712,184.9 714,183.6      "
               id="polygon337" /><polygon
               class="st6"
               points="727,206.3 763.9,259.2 767.5,257 729.5,204.8      "
               id="polygon339" /></g></g><g
           id="g341"><g
             id="g343"><polygon
               class="st5"
               points="782.7,245.6 779.4,248.3 717.7,180.9 719.5,179.4      "
               id="polygon345" /><polygon
               class="st6"
               points="735.5,200.4 779.4,248.3 782.7,245.6 737.8,198.5      "
               id="polygon347" /></g></g><g
           id="g349"><g
             id="g351"><polygon
               class="st5"
               points="796.2,232.4 793.3,235.5 722.8,176.3 724.4,174.5      "
               id="polygon353" /><polygon
               class="st6"
               points="743.2,193.4 793.3,235.5 796.2,232.4 745.1,191.3      "
               id="polygon355" /></g></g><g
           id="g357"><g
             id="g359"><polygon
               class="st5"
               points="572.9,236 570.1,233 641.5,174.7 643.2,176.5      "
               id="polygon361" /><polygon
               class="st6"
               points="620.9,191.6 570.1,233 572.9,236 622.9,193.7      "
               id="polygon363" /></g></g><g
           id="g365"><g
             id="g367"><polygon
               class="st5"
               points="586.9,248.7 583.6,246.1 646.4,179.6 648.3,181.1      "
               id="polygon369" /><polygon
               class="st6"
               points="628.3,198.8 583.6,246.1 586.9,248.7 630.5,200.6      "
               id="polygon371" /></g></g><g
           id="g373"><g
             id="g375"><polygon
               class="st5"
               points="602.5,259.6 598.9,257.4 651.9,183.7 654,185      "
               id="polygon377" /><polygon
               class="st6"
               points="636.6,205 598.9,257.4 602.5,259.6 639.1,206.6      "
               id="polygon379" /></g></g><g
           id="g381"><g
             id="g383"><polygon
               class="st5"
               points="619.5,268.5 615.6,266.7 658,187.2 660.2,188.2      "
               id="polygon385" /><polygon
               class="st6"
               points="645.7,210.1 615.6,266.7 619.5,268.5 648.4,211.4      "
               id="polygon387" /></g></g><g
           id="g389"><g
             id="g391"><polygon
               class="st5"
               points="637.5,275.2 633.5,273.9 664.5,189.8 666.8,190.6      "
               id="polygon393" /><polygon
               class="st6"
               points="655.5,214.1 633.5,273.9 637.5,275.2 658.4,215      "
               id="polygon395" /></g></g><g
           id="g397"><g
             id="g399"><polygon
               class="st5"
               points="656.4,279.7 652.2,278.9 671.3,191.7 673.7,192.1      "
               id="polygon401" /><polygon
               class="st6"
               points="665.7,216.9 652.2,278.9 656.4,279.7 668.7,217.4      "
               id="polygon403" /></g></g><g
           id="g405"><g
             id="g407"><polygon
               class="st5"
               points="675.7,281.8 671.4,281.5 678.2,192.7 680.7,192.8      "
               id="polygon409" /><polygon
               class="st6"
               points="676.3,218.3 671.4,281.5 675.7,281.8 679.3,218.5      "
               id="polygon411" /></g></g></g><path
         class="st6"
         d="M825.9,194.2c-6.1,0-11,4.9-11,11c0,1.4,2.9,6.8,6.5,12.9c2.5,4.3,2.2,9.7-1,13.6    c-17.8,21.9-57,53.9-135.9,59.4v0.1c-1.7,0-3.4,0-5.2-0.1c-77.6-5.3-116.8-36.4-135-58.3c-3.7-4.4-3.6-10.9,0.2-15.3    c5.1-5.9,9.1-10.9,9.1-12.3c0-6.1-4.9-11-11-11H434c0,0,0,0,0,0v136.4h490.9V194.2H825.9z"
         id="path413" /><rect
         x="434"
         y="322.2"
         class="st4"
         width="490.9"
         height="8.4"
         id="rect415" /></g><g
       id="g417"><path
         class="st3"
         d="M360.7,387.7c3.7,8.7-0.5,18.9-9.2,22.6l-54.2,22.8l-13.4-31.7l54.2-22.8C346.9,374.8,357,378.9,360.7,387.7z    "
         id="path419" /><path
         class="st8"
         d="M333,400.9c2.1,4.9,3.8,9.9,5.2,14.9l-40.9,17.2l-13.4-31.7l40.5-17.1C327.7,389.5,330.5,395,333,400.9z"
         id="path421" /><ellipse
         transform="matrix(0.9217 -0.3878 0.3878 0.9217 -156.2506 121.0713)"
         class="st3"
         cx="221.8"
         cy="447.7"
         rx="101.6"
         ry="101.6"
         id="ellipse423" /><ellipse
         transform="matrix(0.9217 -0.3878 0.3878 0.9217 -156.2506 121.0713)"
         class="st9"
         cx="221.8"
         cy="447.7"
         rx="72"
         ry="72"
         id="ellipse425" /><path
         class="st10"
         d="M193.9,381.3c-36.7,15.4-53.9,57.6-38.4,94.3s57.6,53.9,94.3,38.4c36.7-15.4,53.9-57.6,38.4-94.3    C272.8,383.1,230.6,365.9,193.9,381.3z M238.6,505.2c-30.3,12.7-65.2-1.5-77.9-31.8c-12.7-30.3,1.5-65.2,31.8-77.9    c30.3-12.7,65.2,1.5,77.9,31.8C283.1,457.6,268.9,492.4,238.6,505.2z"
         id="path427" /><ellipse
         transform="matrix(0.9217 -0.3878 0.3878 0.9217 -156.1189 104.9124)"
         class="st10"
         cx="181.9"
         cy="439.3"
         rx="9.5"
         ry="9.5"
         id="ellipse429" /><ellipse
         transform="matrix(0.9217 -0.3878 0.3878 0.9217 -159.7376 115.3402)"
         class="st10"
         cx="205.9"
         cy="453.4"
         rx="5.4"
         ry="5.4"
         id="ellipse431" /><ellipse
         transform="matrix(0.9217 -0.3878 0.3878 0.9217 -145.6628 118.2632)"
         class="st10"
         cx="220.2"
         cy="420"
         rx="12.3"
         ry="12.3"
         id="ellipse433" /></g><polygon
       class="st11"
       points="1245.9,466 1265.5,705.2 1267.7,732 1270.8,770.2 1205.8,775.5 1055.2,787.9  "
       id="polygon435" /><polygon
       class="st3"
       points="1263.9,755.7 1198.9,761.1 1030.1,774.9 1004.2,459.2 1011.6,458.6 1238,440.1 1258.5,690.8    1260.7,717.6  "
       id="polygon437" /><g
       class="st12"
       id="g439"><polygon
         class="st13"
         points="1260.7,717.6 1072.9,757 1011.6,458.6 1238,440.1 1258.5,690.8   "
         id="polygon441" /></g><g
       id="g443"><polygon
         class="st3"
         points="1261.6,348.9 1009.6,400.7 1079.5,740.9 1261.4,703.6 1317.1,619.2   "
         id="polygon445" /><polygon
         class="st13"
         points="1261.4,703.6 1317.1,619.2 1247.1,633.6   "
         id="polygon447" /><g
         id="g449"><g
           id="g451"><path
             class="st14"
             d="M1055,435.8c13.8-0.9,27.2-5.1,40.7-7.8c15.9-3.2,31.9-6,47.7-9.5c13.7-3,27.3-5.9,41-8.8      c12.5-2.7,25.3-6.3,38.2-7c1-0.1,1-1.6,0-1.5c-12.1,0.7-24.2,4-36,6.5c-13.6,2.9-27.1,5.8-40.7,8.7c-16.2,3.5-32.5,6.6-48.7,9.7      c-14,2.7-27.9,7.1-42.2,8.1C1054,434.4,1054,435.9,1055,435.8L1055,435.8z"
             id="path453" /></g></g><g
         id="g455"><g
           id="g457"><path
             class="st14"
             d="M1046.4,470.2c12.4-0.7,24.4-4.5,36.4-6.9c14.4-2.9,29-5.4,43.4-8.6c12.3-2.7,24.5-5.3,36.8-7.9      c11.1-2.4,22.6-5.7,34-6.1c1,0,1-1.5,0-1.5c-10.7,0.4-21.5,3.4-31.9,5.7c-12.1,2.6-24.3,5.2-36.4,7.8c-14.8,3.3-29.6,6-44.4,8.9      c-12.6,2.4-25,6.5-37.9,7.2C1045.5,468.8,1045.5,470.3,1046.4,470.2L1046.4,470.2z"
             id="path459" /></g></g><g
         id="g461"><g
           id="g463"><path
             class="st14"
             d="M1049.6,485.5c13.1-1.2,26.1-4.4,38.9-7.3c14.6-3.3,29.4-5.8,44.1-8.8c27.8-5.6,55.4-11.7,83.1-17.6      c13.1-2.8,26.4-6.2,39.8-7.3c1-0.1,1-1.6,0-1.5c-22.3,1.8-44.2,8.7-66.2,12.6c-16.1,2.9-32.1,7.2-48.2,10.5      c-15.2,3.1-30.5,5.7-45.7,9c-15.2,3.3-30.4,7.4-45.8,8.8C1048.6,484.1,1048.6,485.6,1049.6,485.5L1049.6,485.5z"
             id="path465" /></g></g><g
         id="g467"><g
           id="g469"><path
             class="st14"
             d="M1052.8,499.1c13.1-1.2,26.1-4.4,38.9-7.3c14.6-3.3,29.4-5.8,44.1-8.8c27.8-5.6,55.4-11.7,83.1-17.6      c13.1-2.8,26.4-6.2,39.8-7.3c1-0.1,1-1.6,0-1.5c-22.3,1.8-44.2,8.7-66.2,12.6c-16.1,2.9-32.1,7.2-48.2,10.5      c-15.2,3.1-30.5,5.7-45.7,9c-15.2,3.3-30.4,7.4-45.8,8.8C1051.9,497.6,1051.8,499.1,1052.8,499.1L1052.8,499.1z"
             id="path471" /></g></g><g
         id="g473"><g
           id="g475"><path
             class="st14"
             d="M1054,515.9c11.5-1.6,22.9-4.3,34.3-6.7c12.4-2.6,24.8-5,37.2-7.5c22.9-4.7,45.8-9.5,68.6-14.3      c10.8-2.3,21.7-4.8,32.7-6.3c1-0.1,0.5-1.6-0.4-1.4c-18.9,2.6-37.5,7.5-56.2,11.1c-26,5-52.1,10.6-78,16.1      c-12.8,2.7-25.6,5.8-38.6,7.7C1052.6,514.6,1053,516.1,1054,515.9L1054,515.9z"
             id="path477" /></g></g><g
         id="g479"><g
           id="g481"><path
             class="st14"
             d="M1059.3,532.6c11.5-0.5,22.6-4.1,33.8-6.4c13.3-2.7,26.7-5,39.9-7.9c11.6-2.5,23.2-5,34.8-7.5      c10.3-2.2,21.1-5.3,31.7-5.7c1,0,1-1.5,0-1.5c-9.9,0.3-19.9,3.1-29.6,5.2c-11.5,2.5-22.9,4.9-34.3,7.4c-13.6,3-27.3,5.5-41,8.1      c-11.7,2.2-23.3,6.1-35.2,6.7C1058.3,531.2,1058.3,532.7,1059.3,532.6L1059.3,532.6z"
             id="path483" /></g></g><g
         id="g485"><g
           id="g487"><path
             class="st14"
             d="M1062.4,547.9c13.1-1.2,26.1-4.4,38.9-7.3c14.6-3.3,29.4-5.8,44.1-8.8c27.8-5.6,55.4-11.7,83.1-17.6      c13.1-2.8,26.4-6.2,39.8-7.3c1-0.1,1-1.6,0-1.5c-22.3,1.8-44.2,8.7-66.2,12.6c-16.1,2.9-32.1,7.2-48.2,10.5      c-15.2,3.1-30.5,5.7-45.7,9c-15.2,3.3-30.4,7.4-45.8,8.8C1061.4,546.5,1061.4,548,1062.4,547.9L1062.4,547.9z"
             id="path489" /></g></g><g
         id="g491"><g
           id="g493"><path
             class="st14"
             d="M1065.6,561.5c13.1-1.2,26.1-4.4,38.9-7.3c14.6-3.3,29.4-5.8,44.1-8.8c27.8-5.6,55.4-11.7,83.1-17.6      c13.1-2.8,26.4-6.2,39.8-7.3c1-0.1,1-1.6,0-1.5c-22.3,1.8-44.2,8.7-66.2,12.6c-16.1,2.9-32.1,7.2-48.2,10.5      c-15.2,3.1-30.5,5.7-45.7,9c-15.2,3.3-30.4,7.4-45.8,8.8C1064.7,560.1,1064.7,561.6,1065.6,561.5L1065.6,561.5z"
             id="path495" /></g></g><g
         id="g497"><g
           id="g499"><path
             class="st14"
             d="M1066,575.6c13.1-1.2,26.1-4.4,38.9-7.3c14.6-3.3,29.4-5.8,44.1-8.8c27.8-5.6,55.4-11.7,83.1-17.6      c13.1-2.8,26.4-6.2,39.8-7.3c1-0.1,1-1.6,0-1.5c-22.3,1.8-44.2,8.7-66.2,12.6c-16.1,2.9-32.1,7.2-48.2,10.5      c-15.2,3.1-30.5,5.7-45.7,9c-15.2,3.3-30.4,7.4-45.8,8.8C1065,574.2,1065,575.7,1066,575.6L1066,575.6z"
             id="path501" /></g></g><g
         id="g503"><g
           id="g505"><path
             class="st14"
             d="M1075.9,613.8c13.1-1.2,26.1-4.4,38.9-7.3c14.6-3.3,29.4-5.8,44.1-8.8c27.8-5.6,55.4-11.7,83.1-17.6      c13.1-2.8,26.4-6.2,39.8-7.3c1-0.1,1-1.6,0-1.5c-22.3,1.8-44.2,8.7-66.2,12.6c-16.1,2.9-32.1,7.2-48.2,10.5      c-15.2,3.1-30.5,5.7-45.7,9c-15.2,3.3-30.4,7.4-45.8,8.8C1075,612.4,1074.9,613.9,1075.9,613.8L1075.9,613.8z"
             id="path507" /></g></g><g
         id="g509"><g
           id="g511"><path
             class="st14"
             d="M1071.5,592.2c11-0.8,21.9-3.6,32.7-6c12.4-2.8,25-4.9,37.5-7.4c23.4-4.7,46.8-9.9,70.1-14.9      c11.2-2.4,22.7-5.4,34.1-6.1c1-0.1,1-1.6,0-1.5c-18.9,1.2-37.5,7.3-56.1,10.6c-13.5,2.4-26.9,6.1-40.3,8.8      c-13,2.7-26.1,4.8-39.1,7.6c-12.9,2.8-25.8,6.5-38.9,7.4C1070.5,590.8,1070.5,592.3,1071.5,592.2L1071.5,592.2z"
             id="path513" /></g></g><g
         id="g515"><g
           id="g517"><path
             class="st14"
             d="M1079.1,629.1c13.1-1.2,26.1-4.4,38.9-7.3c14.6-3.3,29.4-5.8,44.1-8.8c27.8-5.6,55.4-11.7,83.1-17.6      c13.1-2.8,26.4-6.2,39.8-7.3c1-0.1,1-1.6,0-1.5c-22.3,1.8-44.2,8.7-66.2,12.6c-16.1,2.9-32.1,7.2-48.2,10.5      c-15.2,3.1-30.5,5.7-45.7,9c-15.2,3.3-30.4,7.4-45.8,8.8C1078.1,627.7,1078.1,629.2,1079.1,629.1L1079.1,629.1z"
             id="path519" /></g></g><g
         id="g521"><g
           id="g523"><path
             class="st14"
             d="M1082.3,642.6c13.1-1.2,26.1-4.4,38.9-7.3c14.6-3.3,29.4-5.8,44.1-8.8c27.8-5.6,55.4-11.7,83.1-17.6      c13.1-2.8,26.4-6.2,39.8-7.3c1-0.1,1-1.6,0-1.5c-22.3,1.8-44.2,8.7-66.2,12.6c-16.1,2.9-32.1,7.2-48.2,10.5      c-15.2,3.1-30.5,5.7-45.7,9c-15.2,3.3-30.4,7.4-45.8,8.8C1081.3,641.2,1081.3,642.7,1082.3,642.6L1082.3,642.6z"
             id="path525" /></g></g><g
         id="g527"><g
           id="g529"><path
             class="st14"
             d="M1082.7,656.7c12.1-0.6,23.8-4.3,35.6-6.7c14.2-2.9,28.4-5.3,42.5-8.4c12.2-2.7,24.3-5.3,36.5-7.9      c10.7-2.3,21.8-5.5,32.9-5.9c1,0,1-1.5,0-1.5c-10.3,0.4-20.7,3.3-30.8,5.4c-12,2.6-24.1,5.1-36.1,7.8c-14.4,3.2-29,5.9-43.5,8.7      c-12.3,2.4-24.5,6.4-37.1,7C1081.7,655.3,1081.7,656.8,1082.7,656.7L1082.7,656.7z"
             id="path531" /></g></g></g><g
       id="g533"><path
         class="st4"
         d="M1330.1,222.8l-17.2-0.1l12-4c0.8-2,19.9-68.5,19.9-68.5s-39.4,39.9-43.3,41.6c-3.9,1.7-1.3,14-1.3,14l-7.1-9    l-7.5,6.8l1,24l-6.2-18.3l-23.9,25.7l2.3,15.4l-7-13l-2.3,5.6l2.2,27.3l-4.9-20.4c0,0-1.6,5.2-2.5,4.6c-0.9-0.6-1.1,32.6-1.1,32.6    l-7.4-32.2l-3.8,0.9l1.9,40.3l-6.4-31.1l-17.8,31.6l8.6,32.9l-14.3-28.3l-12.1,14.7l5.9,22.2l-7.4-15.7l8.8,28.6l-14.8-23.7    c0,0-6.6,17.7-5.8,19.8c0.7,2.1,9.4,26.4,8.4,24.6c-0.9-1.8-10.8-16.2-10.8-16.2s-6.7,17.5-5.8,21.3c0.9,3.8,8.9,15.1,6.9,13.8    c-2.1-1.3-14-7.9-14-7.9s-5.7,19,8,32.4c0.4-0.7,0.8-1.5,1.2-2.3c3.2-5.6,6.6-11,10.1-16.4c3.4-5.4,7-10.7,10.5-16    c7.1-10.6,14.2-21.1,21.4-31.6c14.4-21,28.9-41.8,43.5-62.6c14.6-20.8,29.3-41.5,44-62.2c0.3-0.4,0.7-0.4,1.1-0.2    c0.3,0.2,0.4,0.7,0.2,1.1c-14.4,21-28.6,42-42.9,63c-14.2,21.1-28.4,42.2-42.3,63.4c-7,10.6-13.9,21.2-20.8,31.9    c-3.4,5.3-6.8,10.7-10.1,16.1c-3.3,5.4-6.6,10.8-9.6,16.3c-0.5,1-1,1.9-1.5,2.9c5.7,2.9,20.3,8.4,35.3-1.7l-6.4-6.9    c0,0,8.5,3.2,9,3s4.7-3,4.7-3l-17.2-11.2c0,0,18.9,6.7,20.5,7.3c1.7,0.6,7.9-4.3,7.9-4.3l-13.3-8.9c0,0,14.6,5.2,15.6,5    c1-0.2,7.9-7.8,8.6-7.6c-1-0.4-28.5-13.5-28.5-13.5s28.5,8.4,31.4,8.3c2.9,0,13.2-14.5,13.2-14.5l-32.8-10.9l33.9,7.2l3.9-3.9    l-20.3-5.3l22.3,1.4l9.8-15l-43.7-7l50-3l4.2-8l-18.6-4.1l19.3,0.8l2.5-3.6l-30.5-2.8l36.4-2.1l2.6-3.9l12-16.2l-47,0.9l45.6-4.2    l1-1.6l-17.6-0.8c0,0,19.2-1.1,21.1-4.1c1.8-3,12.5-18.1,12.5-18.1l-38.6,1.3l39.6-10.1l2.6-6.2L1302,252c0,0,23.8-6.5,25-6.5    C1328.3,245.5,1330.1,222.8,1330.1,222.8z"
         id="path535" /><path
         class="st4"
         d="M1240.6,390.2C1240.6,390.2,1240.5,390.2,1240.6,390.2C1240.6,390.2,1240.6,390.2,1240.6,390.2z"
         id="path537" /><path
         class="st4"
         d="M1171.1,415c-1.1,2.1-2.2,4.2-3.2,6.3c-1.4,2.9-2.8,5.7-4.2,8.6c-2.8,5.8-5.4,11.6-7.9,17.5    c-5.1,11.8-9.4,23.9-13.2,36.1l0,0c0,0,0,0,0,0.1c-0.6,2,0.6,4.1,2.6,4.7s4.1-0.6,4.7-2.6c3.5-12.1,7.4-24.1,12.1-35.7    c2.3-5.8,4.8-11.6,7.4-17.4c1.3-2.9,2.6-5.7,4-8.6c0.9-1.8,1.7-3.7,2.6-5.5c-1.6-0.8-2.6-1.5-2.6-1.5    C1172.5,416.3,1171.8,415.7,1171.1,415z"
         id="path539" /><path
         class="st3"
         d="M1187,399.3c3.3-5.4,6.7-10.7,10.1-16.1c6.8-10.7,13.8-21.3,20.8-31.9c14-21.2,28.1-42.3,42.3-63.4    c14.2-21.1,28.5-42.1,42.9-63c0.2-0.4,0.2-0.8-0.2-1.1c-0.4-0.3-0.8-0.2-1.1,0.2c-14.7,20.7-29.4,41.4-44,62.2    c-14.6,20.8-29.1,41.6-43.5,62.6c-7.2,10.5-14.3,21-21.4,31.6c-3.5,5.3-7,10.6-10.5,16c-3.4,5.4-6.9,10.7-10.1,16.4    c-0.4,0.8-0.8,1.5-1.2,2.3c0.7,0.7,1.4,1.4,2.2,2c0,0,0.9,0.6,2.6,1.5c0.5-1,1-2,1.5-2.9C1180.4,410.1,1183.7,404.6,1187,399.3z"
         id="path541" /></g><g
       id="g543"><polygon
         class="st15"
         points="1205.7,80.1 1179.5,64 1182.6,106.3 1198.5,97   "
         id="polygon545" /><polygon
         class="st15"
         points="1189.1,101.7 1166.6,84.6 1165.9,125.2   "
         id="polygon547" /><polygon
         class="st6"
         points="1205.7,80.1 1165.9,125.2 1192.2,124.5 1198.9,152.2 1224.6,127.2 1202,107   "
         id="polygon549" /><polygon
         class="st15"
         points="1198.9,152.2 1153.7,153.5 1165.9,125.2 1192.2,124.5   "
         id="polygon551" /><polygon
         class="st16"
         points="1165.9,125.2 1153.7,153.5 1192.2,124.5   "
         id="polygon553" /><polygon
         class="st16"
         points="1179.5,64 1153,67.3 1166.6,84.6   "
         id="polygon555" /><polygon
         class="st6"
         points="1179.5,64 1185.8,102.6 1166.6,84.6   "
         id="polygon557" /><polygon
         class="st15"
         points="1153,67.3 1117.5,98.7 1166.6,84.6   "
         id="polygon559" /><polygon
         class="st6"
         points="1117.5,98.7 1165.9,125.2 1166.6,84.6   "
         id="polygon561" /><path
         class="st16"
         d="M1117.5,98.7c0,0-4.5,36.9-3.6,36.3s52-9.7,52-9.7L1117.5,98.7z"
         id="path563" /><polygon
         class="st15"
         points="1113.9,134.9 1128.5,157.1 1153.7,153.5 1165.9,125.2   "
         id="polygon565" /><polygon
         class="st6"
         points="1153.7,153.5 1133.9,178.4 1128.5,157.1   "
         id="polygon567" /></g><g
       id="g569"><polygon
         class="st15"
         points="165.3,194.9 133.9,175.7 137.7,226.3 156.7,215.1   "
         id="polygon571" /><polygon
         class="st15"
         points="145.4,220.7 118.5,200.3 117.7,248.9   "
         id="polygon573" /><polygon
         class="st6"
         points="165.3,194.9 117.7,248.9 149.1,248.1 157.2,281.2 187.9,251.3 160.8,227.2   "
         id="polygon575" /><polygon
         class="st15"
         points="157.2,281.2 103.1,282.7 117.7,248.9 149.1,248.1   "
         id="polygon577" /><polygon
         class="st16"
         points="117.7,248.9 103.1,282.7 149.1,248.1   "
         id="polygon579" /><polygon
         class="st16"
         points="133.9,175.7 102.2,179.6 118.5,200.3   "
         id="polygon581" /><polygon
         class="st6"
         points="133.9,175.7 141.4,221.8 118.5,200.3   "
         id="polygon583" /><polygon
         class="st15"
         points="102.2,179.6 59.7,217.1 118.5,200.3   "
         id="polygon585" /><polygon
         class="st6"
         points="59.7,217.1 117.7,248.9 118.5,200.3   "
         id="polygon587" /><path
         class="st16"
         d="M59.7,217.1c0,0-5.4,44.1-4.3,43.4c1.1-0.7,62.3-11.6,62.3-11.6L59.7,217.1z"
         id="path589" /><polygon
         class="st15"
         points="55.4,260.5 72.9,287.1 103.1,282.7 117.7,248.9   "
         id="polygon591" /><polygon
         class="st6"
         points="103.1,282.7 79.4,312.5 72.9,287.1   "
         id="polygon593" /></g><g
       id="g595"><polygon
         class="st15"
         points="334.6,60.8 306.7,43.7 310.1,88.7 327,78.8   "
         id="polygon597" /><polygon
         class="st15"
         points="316.9,83.8 293,65.6 292.2,108.9   "
         id="polygon599" /><polygon
         class="st6"
         points="334.6,60.8 292.2,108.9 320.2,108.1 327.4,137.6 354.7,111 330.6,89.5   "
         id="polygon601" /><polygon
         class="st15"
         points="327.4,137.6 279.3,139 292.2,108.9 320.2,108.1   "
         id="polygon603" /><polygon
         class="st16"
         points="292.2,108.9 279.3,139 320.2,108.1   "
         id="polygon605" /><polygon
         class="st16"
         points="306.7,43.7 278.5,47.2 293,65.6   "
         id="polygon607" /><polygon
         class="st6"
         points="306.7,43.7 313.4,84.7 293,65.6   "
         id="polygon609" /><polygon
         class="st15"
         points="278.5,47.2 240.7,80.6 293,65.6   "
         id="polygon611" /><polygon
         class="st6"
         points="240.7,80.6 292.2,108.9 293,65.6   "
         id="polygon613" /><path
         class="st16"
         d="M240.7,80.6c0,0-4.8,39.2-3.8,38.6c1-0.6,55.4-10.3,55.4-10.3L240.7,80.6z"
         id="path615" /><polygon
         class="st15"
         points="236.8,119.2 252.5,142.8 279.3,139 292.2,108.9   "
         id="polygon617" /><polygon
         class="st6"
         points="279.3,139 258.2,165.4 252.5,142.8   "
         id="polygon619" /></g><g
       id="g621"><polygon
         class="st15"
         points="1071.7,281.5 1043.9,264.5 1047.2,309.4 1064.1,299.5   "
         id="polygon623" /><polygon
         class="st15"
         points="1054.1,304.5 1030.1,286.3 1029.4,329.6   "
         id="polygon625" /><polygon
         class="st6"
         points="1071.7,281.5 1029.4,329.6 1057.4,328.9 1064.6,358.3 1091.8,331.7 1067.8,310.2   "
         id="polygon627" /><polygon
         class="st15"
         points="1064.6,358.3 1016.4,359.7 1029.4,329.6 1057.4,328.9   "
         id="polygon629" /><polygon
         class="st16"
         points="1029.4,329.6 1016.4,359.7 1057.4,328.9   "
         id="polygon631" /><polygon
         class="st16"
         points="1043.9,264.5 1015.6,268 1030.1,286.3   "
         id="polygon633" /><polygon
         class="st6"
         points="1043.9,264.5 1050.6,305.5 1030.1,286.3   "
         id="polygon635" /><polygon
         class="st15"
         points="1015.6,268 977.8,301.3 1030.1,286.3   "
         id="polygon637" /><polygon
         class="st6"
         points="977.8,301.3 1029.4,329.6 1030.1,286.3   "
         id="polygon639" /><path
         class="st16"
         d="M977.8,301.3c0,0-4.8,39.2-3.8,38.6c1-0.6,55.4-10.3,55.4-10.3L977.8,301.3z"
         id="path641" /><polygon
         class="st15"
         points="974,339.9 989.6,363.5 1016.4,359.7 1029.4,329.6   "
         id="polygon643" /><polygon
         class="st6"
         points="1016.4,359.7 995.4,386.2 989.6,363.5   "
         id="polygon645" /></g><g
       id="g647"><g
         id="g649"><path
           class="st17"
           d="M215.8,651c-3.5,4.7-14.4,8.1-27.2,8.1c-13,0-23.9-3.5-27.3-8.2c-51.4,12.2-89.6,58.4-89.6,113.5     c0,10.4,1.4,20.4,3.9,30c5.5,2.3,12.4,9.3,17.9,18.8c6.4,11,8.9,22.1,6.6,27.5c21.4,24.7,53,40.3,88.2,40.3     c31.4,0,60-12.4,80.9-32.7c-2.8-2.6-3-8.8-0.7-16.3c1.2-4.2,3.2-8.8,5.9-13.4c2.5-4.2,5.2-8,8-11c6.1-6.7,12.4-10.1,16.1-7.9     c0.3,0.2,0.5,0.4,0.8,0.6c3.7-11.3,5.6-23.4,5.6-35.9C304.9,709.4,266.9,663.4,215.8,651z M254.1,830.1c-1.5,1.5-3.1,3-4.7,4.4     c-0.5,0.4-0.9,0.8-1.4,1.2c-36.6,30.7-91.1,28.8-125.5-5.5c-0.6-0.6-1.2-1.2-1.8-1.8c-12.4-13-20.2-28.8-23.6-45.3     c-6-29.6,2.4-61.5,25.4-84.5c11.3-11.3,24.9-19.2,39.3-23.4h0c17.5-5.2,36.1-5.1,53.6,0.2c14.2,4.3,27.5,12,38.7,23.2     c24.2,24.2,32.3,58.5,24.2,89.4c-0.2,0.7-0.4,1.3-0.5,2C273.5,804.7,265.6,818.6,254.1,830.1z"
           id="path651" /><path
           class="st18"
           d="M254.1,698.6c-11.2-11.2-24.6-19-38.7-23.2c-17.4-5.3-36.1-5.3-53.6-0.2h0c-14.4,4.3-27.9,12.1-39.3,23.4     c-22.9,22.9-31.4,54.9-25.4,84.5c3.4,16.5,11.2,32.3,23.6,45.3c0.6,0.6,1.2,1.2,1.8,1.8c34.4,34.4,89,36.2,125.5,5.5     c2.1-1.7,4.1-3.6,6.1-5.5c12.1-12.1,20.2-26.7,24.2-42.2C286.4,757.1,278.3,722.8,254.1,698.6z M133.2,819.4     c-30.4-30.4-30.4-79.7,0-110.1c30.4-30.4,79.7-30.4,110.1,0c30.4,30.4,30.4,79.7,0,110.1C212.9,849.8,163.6,849.8,133.2,819.4z"
           id="path653" /><ellipse
           transform="matrix(0.7071 -0.7071 0.7071 0.7071 -485.3381 357.0015)"
           class="st17"
           cx="188.3"
           cy="764.4"
           rx="77.9"
           ry="77.9"
           id="ellipse655" /><g
           id="g657"><ellipse
             class="st17"
             cx="188.6"
             cy="671.4"
             rx="28.5"
             ry="11.4"
             id="ellipse659" /></g><g
           id="g661"><ellipse
             transform="matrix(0.866 -0.5 0.5 0.866 -389.5567 160.1261)"
             class="st17"
             cx="104"
             cy="807"
             rx="11.4"
             ry="28.5"
             id="ellipse663" /></g><g
           id="g665"><path
             class="st17"
             d="M282.3,807.5c-2.8,3-5.5,6.8-8,11c-2.7,4.6-4.7,9.2-5.9,13.4c-6.1,6.7-12.4,10.1-16.1,7.9      c-1.6-0.9-2.6-2.8-2.9-5.4c-0.8-5.9,1.8-15.4,7.3-25c6.6-11.4,15.2-19.2,21-19.6c1.1-0.1,2.2,0.1,3.1,0.6      C284.4,792.7,284.8,799.3,282.3,807.5z"
             id="path667" /></g><g
           id="g669"><path
             class="st19"
             d="M161.3,650.9v17.3v6.3c0.1,0.2,0.3,0.4,0.5,0.6h0c3.9,4.4,14.4,7.6,26.9,7.6c12.3,0,22.7-3.1,26.7-7.5      v-7.9v-15.8c-4,4.4-14.4,7.5-26.7,7.5C175.6,659.1,164.7,655.6,161.3,650.9z"
             id="path671" /><path
             class="st19"
             d="M282.5,792.2l-4.7-2.2h0l0,0c0,0,0,0,0,0c-5.8,0.4-14.5,8.2-21,19.6c-5.5,9.5-8.1,19-7.3,25      c0,0-0.1,0-0.1,0.1l0,0l0.1,0.1l8,5.5l11.8,8.2c-2.8-2.6-3-8.8-0.7-16.3c1.2-4.2,3.2-8.8,5.9-13.4c2.5-4.2,5.2-8,8-11      c5.3-5.8,10.7-9.1,14.5-8.5L282.5,792.2z"
             id="path673" /><path
             class="st19"
             d="M97.1,783l-10.3,5.4l-11.2,5.9c5.5,2.3,12.4,9.3,17.9,18.8c6.4,11,8.9,22.1,6.6,27.5l14.3-8.5l6.4-3.8l0,0      l0-0.1c1.8-5.6-0.7-16.3-6.9-27C108.8,792.4,102.4,785.8,97.1,783z"
             id="path675" /></g></g><g
         id="g677"><path
           class="st20"
           d="M218.6,759.6c-4.4-2.2-9.7-0.8-12.4,3.2l-9.2,13.9c-2.7,4.1-1.9,9.5,1.8,12.6c1.6,1.3,3.2,2.7,4.9,4     l20.4-30.9C222.3,761.5,220.4,760.5,218.6,759.6z"
           id="path679" /><path
           class="st21"
           d="M203.7,793.4c15.5,12.4,34.3,25.2,49.8,35.4c7.2,4.7,14.3,9,21.1,12.6c7.1,3.8,13.8,7,20,9.5     c17.4,7,30.5,8.6,34.1,3.1c3.6-5.5-3-16.9-16.3-30.2c-4.7-4.7-10.3-9.7-16.6-14.7c-6.1-4.8-12.7-9.7-19.9-14.4     c-15.4-10.2-34.4-22.8-51.8-32.2L203.7,793.4z"
           id="path681" /><path
           class="st22"
           d="M295.9,809.2c6.3,5,11.9,10,16.6,14.7l-17.9,27.1c-6.2-2.5-13-5.7-20-9.5L295.9,809.2z"
           id="path683" /></g><circle
         class="st4"
         cx="182.3"
         cy="741.6"
         r="4.5"
         id="circle685" /><circle
         class="st4"
         cx="201.8"
         cy="755.8"
         r="3.6"
         id="circle687" /><circle
         class="st5"
         cx="210.6"
         cy="735.2"
         r="2.5"
         id="circle689" /><ellipse
         transform="matrix(0.7071 -0.7071 0.7071 0.7071 -465.6177 381.1162)"
         class="st4"
         cx="227.2"
         cy="752.6"
         rx="1.9"
         ry="1.9"
         id="ellipse691" /><ellipse
         transform="matrix(0.7071 -0.7071 0.7071 0.7071 -509.9396 365.3197)"
         class="st4"
         cx="186"
         cy="798.2"
         rx="3.3"
         ry="3.3"
         id="ellipse693" /><ellipse
         transform="matrix(0.8168 -0.5769 0.5769 0.8168 -393.1367 252.126)"
         class="st5"
         cx="200.4"
         cy="745.1"
         rx="1.2"
         ry="1.2"
         id="ellipse695" /><ellipse
         transform="matrix(0.8168 -0.5769 0.5769 0.8168 -403.4524 240.2126)"
         class="st5"
         cx="176.5"
         cy="755.4"
         rx="0.7"
         ry="0.7"
         id="ellipse697" /><ellipse
         transform="matrix(0.8168 -0.5769 0.5769 0.8168 -407.2348 227.2455)"
         class="st4"
         cx="154.2"
         cy="754.9"
         rx="2.2"
         ry="2.2"
         id="ellipse699" /><ellipse
         transform="matrix(0.8168 -0.5769 0.5769 0.8168 -387.7796 239.5043)"
         class="st5"
         cx="183.2"
         cy="730.4"
         rx="1.4"
         ry="1.4"
         id="ellipse701" /><ellipse
         transform="matrix(0.8168 -0.5769 0.5769 0.8168 -409.3699 240.5809)"
         class="st5"
         cx="174.1"
         cy="764.9"
         rx="1.1"
         ry="1.1"
         id="ellipse703" /><ellipse
         transform="matrix(0.8168 -0.5769 0.5769 0.8168 -421.138 234.6885)"
         class="st5"
         cx="159"
         cy="780.5"
         rx="2.3"
         ry="2.3"
         id="ellipse705" /><ellipse
         transform="matrix(0.8168 -0.5769 0.5769 0.8168 -401.7852 232.5545)"
         class="st5"
         cx="165.3"
         cy="748.9"
         rx="0.7"
         ry="0.7"
         id="ellipse707" /><ellipse
         transform="matrix(0.8168 -0.5769 0.5769 0.8168 -384.2853 251.0167)"
         class="st4"
         cx="203.1"
         cy="730.6"
         rx="1.2"
         ry="1.2"
         id="ellipse709" /><ellipse
         transform="matrix(0.8168 -0.5769 0.5769 0.8168 -394.2021 232.1447)"
         class="st4"
         cx="168.4"
         cy="736.8"
         rx="1.6"
         ry="1.6"
         id="ellipse711" /><circle
         class="st5"
         cx="186.7"
         cy="764.8"
         r="3.6"
         id="circle713" /><circle
         class="st4"
         cx="176.8"
         cy="783"
         r="5.7"
         id="circle715" /><circle
         class="st5"
         cx="162.3"
         cy="766.4"
         r="3.6"
         id="circle717" /></g><g
       id="g719"><path
         class="st4"
         d="M995.7,690L995.7,690c0,0,0.1,0,0.1,0c0,0,0.1,0,0.1,0l0,0c4.4-0.9,8.8-1,13-0.2l-2.1-8.7    c-4.2-1-8.6-1.2-13.1-0.2l0,0c0,0-0.1,0-0.1,0c0,0-0.1,0-0.1,0l0,0c-4.4,1.2-8.4,3.3-11.6,6.1l2.1,8.7    C987.4,693.1,991.3,691.2,995.7,690z"
         id="path721" /><path
         class="st4"
         d="M908.3,703.6l-8.5,2c-3.1,0.7-5,3.9-4.3,7l0.4,1.5c0.7,3.1,3.9,5,7,4.3l8.5-2L908.3,703.6z"
         id="path723" /><path
         class="st4"
         d="M1079.9,676.2l8.5-2c3.1-0.7,5-3.9,4.3-7l-0.4-1.5c-0.7-3.1-3.9-5-7-4.3l-8.5,2L1079.9,676.2z"
         id="path725" /><path
         class="st4"
         d="M937.6,666.9c-22.8,5.4-37,28.4-31.5,51.2c5.4,22.8,28.4,37,51.2,31.5c22.8-5.4,37-28.4,31.5-51.2    C983.3,675.6,960.4,661.5,937.6,666.9z M955.1,740.5c-17.8,4.2-35.6-6.7-39.8-24.5s6.7-35.6,24.5-39.8s35.6,6.7,39.8,24.5    C983.8,718.4,972.9,736.2,955.1,740.5z"
         id="path727" /><path
         class="st5"
         d="M938.6,671.2c-20.5,4.9-33.2,25.5-28.3,46c4.9,20.5,25.5,33.2,46,28.3c20.5-4.9,33.2-25.5,28.3-46    C979.7,679,959.1,666.3,938.6,671.2z M954.3,737.2c-15.9,3.8-32-6-35.8-22c-3.8-15.9,6-32,22-35.8c15.9-3.8,32,6,35.8,22    C980.1,717.4,970.2,733.4,954.3,737.2z"
         id="path729" /><ellipse
         transform="matrix(0.9727 -0.232 0.232 0.9727 -138.4769 239.1197)"
         class="st23"
         cx="947.4"
         cy="708.3"
         rx="33.1"
         ry="33.1"
         id="ellipse731" /><path
         class="st24"
         d="M948.5,675.3l-9,65.2c-6.3-1.6-11.9-4.9-16.3-9.6l7-50.7c2.9-1.8,6.1-3.1,9.6-3.9    C942.7,675.4,945.6,675.2,948.5,675.3z"
         id="path733" /><path
         class="st24"
         d="M967.3,681.9l-8,57.3c-1.4,0.5-2.8,1-4.3,1.3c-2.2,0.5-4.4,0.8-6.6,0.9l9-64.6    C961,677.9,964.3,679.7,967.3,681.9z"
         id="path735" /><path
         class="st25"
         d="M948.5,675.3l-9,65.2c-6.3-1.6-11.9-4.9-16.3-9.6l7-50.7c2.9-1.8,6.1-3.1,9.6-3.9    C942.7,675.4,945.6,675.2,948.5,675.3z"
         id="path737" /><path
         class="st25"
         d="M967.3,681.9l-8,57.3c-1.4,0.5-2.8,1-4.3,1.3c-2.2,0.5-4.4,0.8-6.6,0.9l9-64.6    C961,677.9,964.3,679.7,967.3,681.9z"
         id="path739" /><path
         class="st4"
         d="M1034,644c-22.8,5.4-37,28.4-31.5,51.2c5.4,22.8,28.4,37,51.2,31.5c22.8-5.4,37-28.4,31.5-51.2    C1079.7,652.6,1056.8,638.5,1034,644z M1051.5,717.5c-17.8,4.2-35.6-6.7-39.8-24.5c-4.2-17.8,6.7-35.6,24.5-39.8    c17.8-4.2,35.6,6.7,39.8,24.5C1080.2,695.4,1069.3,713.3,1051.5,717.5z"
         id="path741" /><path
         class="st5"
         d="M1035,648.2c-20.5,4.9-33.2,25.5-28.3,46s25.5,33.2,46,28.3s33.2-25.5,28.3-46    C1076.1,656,1055.5,643.3,1035,648.2z M1050.7,714.2c-15.9,3.8-32-6-35.8-22c-3.8-15.9,6-32,22-35.8c15.9-3.8,32,6,35.8,22    C1076.5,694.4,1066.6,710.4,1050.7,714.2z"
         id="path743" /><ellipse
         transform="matrix(0.9727 -0.232 0.232 0.9727 -130.5129 260.8568)"
         class="st23"
         cx="1043.8"
         cy="685.3"
         rx="33.1"
         ry="33.1"
         id="ellipse745" /><path
         class="st24"
         d="M1044.9,652.3l-9,65.2c-6.3-1.6-11.9-4.9-16.3-9.6l7-50.7c2.9-1.8,6.1-3.1,9.6-3.9    C1039.1,652.5,1042,652.2,1044.9,652.3z"
         id="path747" /><path
         class="st24"
         d="M1063.7,658.9l-8,57.3c-1.4,0.5-2.8,1-4.3,1.3c-2.2,0.5-4.4,0.8-6.6,0.9l9-64.6    C1057.4,654.9,1060.7,656.7,1063.7,658.9z"
         id="path749" /><path
         class="st25"
         d="M1044.9,652.3l-9,65.2c-6.3-1.6-11.9-4.9-16.3-9.6l7-50.7c2.9-1.8,6.1-3.1,9.6-3.9    C1039.1,652.5,1042,652.2,1044.9,652.3z"
         id="path751" /><path
         class="st25"
         d="M1063.7,658.9l-8,57.3c-1.4,0.5-2.8,1-4.3,1.3c-2.2,0.5-4.4,0.8-6.6,0.9l9-64.6    C1057.4,654.9,1060.7,656.7,1063.7,658.9z"
         id="path753" /></g><g
       id="g755"><rect
         x="510.1"
         y="634.7"
         transform="matrix(0.9943 0.1066 -0.1066 0.9943 86.049 -61.9184)"
         class="st26"
         width="224.5"
         height="278.9"
         id="rect757" /><rect
         x="494.6"
         y="912.7"
         transform="matrix(0.9943 0.1066 -0.1066 0.9943 101.3505 -59.4465)"
         class="st3"
         width="224.5"
         height="11.6"
         id="rect759" /><rect
         x="510.1"
         y="623.4"
         transform="matrix(0.9943 0.1066 -0.1066 0.9943 84.8583 -50.6759)"
         class="st27"
         width="13"
         height="290.4"
         id="rect761" /></g><g
       id="g763"><rect
         x="582.3"
         y="600"
         transform="matrix(0.9252 0.3796 -0.3796 0.9252 332.6424 -208.2901)"
         class="st28"
         width="224.5"
         height="278.9"
         id="rect765" /><rect
         x="527.2"
         y="868"
         transform="matrix(0.9252 0.3796 -0.3796 0.9252 379.5156 -177.3127)"
         class="st3"
         width="224.5"
         height="11.6"
         id="rect767" /><rect
         x="588"
         y="559.4"
         transform="matrix(0.9252 0.3796 -0.3796 0.9252 311.9492 -172.9182)"
         class="st29"
         width="13"
         height="290.4"
         id="rect769" /><rect
         x="644.5"
         y="636.2"
         transform="matrix(0.9252 0.3796 -0.3796 0.9252 309.1826 -227.7357)"
         class="st3"
         width="175.2"
         height="68"
         id="rect771" /><g
         id="g773"><path
           class="st4"
           d="M656.1,659.7c4.1,1.7,5.1,1.1,7.1-3.9l6.7-16.2c2-5,1.8-6-2.4-7.7l0.4-1l13.2,5.4c6.9,2.8,9.2,8.2,7.3,12.8     c-1.9,4.6-7.2,6.8-14.2,4l-4.4-1.8l-2.6,6.2c-2,5-1.8,6.1,2.3,7.8l-0.4,1l-13.5-5.5L656.1,659.7z M675,651.2c4.3,1.8,7.6-0.3,9-4     c1.5-3.6,0.7-7.4-3.6-9.2l-4.4-1.8l-5.4,13.2L675,651.2z"
           id="path775" /><path
           class="st4"
           d="M690.1,657.3c3.6-8.7,14-12.8,23.2-9c9.1,3.7,13.7,14,10.1,22.7c-3.6,8.7-14,12.8-23.1,9     C691.1,676.2,686.5,666,690.1,657.3z M718.7,669.1c2.5-6.2,2.4-15.2-6.2-18.8c-8.6-3.5-15.1,2.8-17.6,9s-2.4,15.2,6.3,18.7     C709.7,681.5,716.1,675.3,718.7,669.1z"
           id="path777" /><path
           class="st4"
           d="M721.8,686.6c4.1,1.7,5.1,1.1,7.1-3.9l6.7-16.2c2-5,1.8-6-2.4-7.7l0.4-1l22.8,9.3l-2.3,6.8l-1-0.4l0.2-1.1     c0.4-2.9,0.3-4.2-4.3-6.1l-7.4-3l-4.7,11.3l2.5,1c5,2,6,1.8,7.8-2.4l1,0.4l-4.7,11.4l-1-0.4c1.7-4.2,1.2-5.1-3.8-7.2l-2.5-1     l-3,7.3c-2,5-1.8,6,2.4,7.7l4.3,1.8c4.6,1.9,5.6,1,7.4-1.4l0.7-0.9l1,0.4l-3.1,6.5l-24.5-10L721.8,686.6z"
           id="path779" /><path
           class="st4"
           d="M759.9,695.4c-2,5-1.7,6.1,2.4,7.8l-0.4,1l-11.4-4.7l0.4-1c4.1,1.7,5.1,1.1,7.1-3.9l6.7-16.2     c2-5,1.8-6-2.4-7.7l0.4-1l8.2,3.4l0.6,28.7l20.5-20l8.1,3.3l-0.4,1c-4.2-1.7-5.1-1.2-7.2,3.8l-6.7,16.2c-2,5-1.8,6.1,2.4,7.8     l-0.4,1l-13.5-5.5l0.4-1c4.1,1.7,5.1,1.1,7.1-3.9l7-17l-20.9,20.4l-0.6-0.3l-0.6-29.3L759.9,695.4z"
           id="path781" /></g><rect
         x="580.5"
         y="797.5"
         transform="matrix(0.9252 0.3796 -0.3796 0.9252 349.7636 -170.2512)"
         class="st3"
         width="52.3"
         height="8.9"
         id="rect783" /><rect
         x="587.6"
         y="780.1"
         transform="matrix(0.9252 0.3796 -0.3796 0.9252 343.7244 -174.2424)"
         class="st3"
         width="52.3"
         height="8.9"
         id="rect785" /><rect
         x="572.8"
         y="819.1"
         transform="matrix(0.9252 0.3796 -0.3796 0.9252 358.5444 -171.4527)"
         class="st3"
         width="82.5"
         height="8.9"
         id="rect787" /></g></g></svg>