<?xml version="1.0" encoding="UTF-8" standalone="no"?>
<!-- Generator: Adobe Illustrator 21.0.0, SVG Export Plug-In . SVG Version: 6.00 Build 0)  -->

<svg
   xmlns:dc="http://purl.org/dc/elements/1.1/"
   xmlns:cc="http://creativecommons.org/ns#"
   xmlns:rdf="http://www.w3.org/1999/02/22-rdf-syntax-ns#"
   xmlns:svg="http://www.w3.org/2000/svg"
   xmlns="http://www.w3.org/2000/svg"
   xmlns:sodipodi="http://sodipodi.sourceforge.net/DTD/sodipodi-0.dtd"
   xmlns:inkscape="http://www.inkscape.org/namespaces/inkscape"
   version="1.1"
   id="Layer_1"
   x="0px"
   y="0px"
   viewBox="0 0 1400 980"
   style="enable-background:new 0 0 1400 980;"
   xml:space="preserve"
   inkscape:version="0.91 r13725"
   sodipodi:docname="writing.svg"><metadata
     id="metadata797"><rdf:RDF><cc:Work
         rdf:about=""><dc:format>image/svg+xml</dc:format><dc:type
           rdf:resource="http://purl.org/dc/dcmitype/StillImage" /><dc:title></dc:title></cc:Work></rdf:RDF></metadata><defs
     id="defs795" /><sodipodi:namedview
     pagecolor="#ff9bff"
     bordercolor="#666666"
     borderopacity="1"
     objecttolerance="10"
     gridtolerance="10"
     guidetolerance="10"
     inkscape:pageopacity="0"
     inkscape:pageshadow="2"
     inkscape:window-width="1853"
     inkscape:window-height="1056"
     id="namedview793"
     showgrid="false"
     inkscape:zoom="0.65053824"
     inkscape:cx="403.68986"
     inkscape:cy="479.82494"
     inkscape:window-x="67"
     inkscape:window-y="24"
     inkscape:window-maximized="1"
     inkscape:current-layer="Layer_1" /><style
     type="text/css"
     id="style3">
	.st0{fill:#F6C541;}
	.st1{fill:#FFFFFF;}
	.st2{fill:#1C1B1A;}
	.st3{fill:#7BC7F1;}
	.st4{fill:#0C0C0B;}
	.st5{fill:#4193C8;}
</style><g
     id="g5"><path
       class="st0"
       d="M875.3,273.9l5.2,9.5c1.7,3.1,4.2,5.6,7.3,7.3l9.5,5.2l-9.5,5.2c-3.1,1.7-5.6,4.2-7.3,7.3l-5.2,9.5l-5.2-9.5   c-1.7-3.1-4.2-5.6-7.3-7.3l-9.5-5.2l9.5-5.2c3.1-1.7,5.6-4.2,7.3-7.3L875.3,273.9z"
       id="path7" /><path
       class="st0"
       d="M1189.7,743.1l5.1,9.2c1.6,3,4.1,5.5,7.1,7.1l9.2,5.1l-9.2,5.1c-3,1.6-5.5,4.1-7.1,7.1l-5.1,9.2l-5.1-9.2   c-1.6-3-4.1-5.5-7.1-7.1l-9.2-5.1l9.2-5.1c3-1.6,5.5-4.1,7.1-7.1L1189.7,743.1z"
       id="path9" /><path
       class="st0"
       d="M184.6,487.4l2.6,4.8c0.9,1.6,2.1,2.8,3.7,3.7l4.8,2.6l-4.8,2.6c-1.6,0.9-2.8,2.1-3.7,3.7l-2.6,4.8l-2.6-4.8   c-0.9-1.6-2.1-2.8-3.7-3.7l-4.8-2.6l4.8-2.6c1.6-0.9,2.8-2.1,3.7-3.7L184.6,487.4z"
       id="path11" /><g
       id="g13"><path
         class="st1"
         d="M454.3,298.3v24.9c0,9.6,7.8,17.3,17.3,17.3h0c9.6,0,17.3-7.8,17.3-17.3v-24.9H454.3z"
         id="path15" /><path
         class="st2"
         d="M471.6,343.1c-10.9,0-19.8-8.9-19.8-19.8v-27.4h39.7v27.4C491.5,334.1,482.6,343.1,471.6,343.1z M456.8,300.8    v22.4c0,8.2,6.7,14.8,14.8,14.8c8.2,0,14.8-6.7,14.8-14.8v-22.4H456.8z"
         id="path17" /></g><g
       id="g19"><polyline
         class="st1"
         points="454.5,263.3 269,263.3 269,482.2   "
         id="polyline21" /><polygon
         class="st2"
         points="271.5,482.2 266.5,482.2 266.5,260.8 454.5,260.8 454.5,265.8 271.5,265.8   "
         id="polygon23" /></g><g
       id="g25"><path
         class="st1"
         d="M471.5,340.6v-59.9c0-9.6-7.8-17.3-17.3-17.3h0c-9.6,0-17.3,7.8-17.3,17.3v59.9H471.5z"
         id="path27" /><path
         class="st2"
         d="M474,343.1h-39.7v-62.4c0-10.9,8.9-19.8,19.8-19.8c10.9,0,19.8,8.9,19.8,19.8V343.1z M439.3,338.1H469v-57.4    c0-8.2-6.7-14.8-14.8-14.8c-8.2,0-14.8,6.7-14.8,14.8V338.1z"
         id="path29" /></g><path
       class="st2"
       d="M418.5,514.7c-0.1,0-0.1,0-0.3,0l-149.9-1.9c-11.1-0.1-19.7-14.2-19.4-32l0-2.5l154.8,2l0,2.5l-0.2,11.9   c-0.1,8.2,6.5,14.9,14.7,15c4,0.1,7.7-1.4,10.6-4.2c2.8-2.8,4.4-6.5,4.5-10.4l2.1-153.6l5,0.1l-2.1,153.6   C438.2,506,429.3,514.7,418.5,514.7z M254,483.4c0.6,13.4,6.9,24.4,14.5,24.5l136.7,1.7c-4.1-3.7-6.6-9-6.5-14.9l0.1-9.4L254,483.4   z"
       id="path31" /><rect
       x="292.5"
       y="296.5"
       class="st2"
       width="131.4"
       height="4"
       id="rect33" /><rect
       x="300.5"
       y="318"
       class="st2"
       width="99.6"
       height="4"
       id="rect35" /><rect
       x="300.5"
       y="329.5"
       class="st2"
       width="99.6"
       height="4"
       id="rect37" /><rect
       x="289.8"
       y="340"
       class="st2"
       width="120.8"
       height="4"
       id="rect39" /><rect
       x="315.3"
       y="457"
       class="st2"
       width="68.4"
       height="4"
       id="rect41" /><rect
       x="300.5"
       y="424.2"
       class="st2"
       width="99.6"
       height="4"
       id="rect43" /><rect
       x="300.5"
       y="435.7"
       class="st2"
       width="99.6"
       height="4"
       id="rect45" /><rect
       x="300.5"
       y="371.6"
       class="st2"
       width="99.6"
       height="4"
       id="rect47" /><rect
       x="305.1"
       y="382.3"
       class="st2"
       width="90.3"
       height="4"
       id="rect49" /><rect
       x="305.1"
       y="403.6"
       class="st2"
       width="90.3"
       height="4"
       id="rect51" /><rect
       x="299.9"
       y="393"
       class="st2"
       width="100.7"
       height="4"
       id="rect53" /><rect
       x="289.8"
       y="447.1"
       class="st2"
       width="120.8"
       height="4"
       id="rect55" /><rect
       x="284.4"
       y="350.8"
       class="st2"
       width="131.7"
       height="4"
       id="rect57" /><path
       class="st3"
       d="M190.2,269.4c-12.6-11.8-46.4-24.4-58.3-11.8l0,0v0c0,0,0,0,0,0.1c0,0,0,0-0.1,0.1l0,0l0,0   c-11.8,12.7,2.9,45.6,15.5,57.4l91.6,85.9l39.7-5.7l0.1,0.1l0-0.1l0.1,0l-0.1-0.1l3.1-40L190.2,269.4z"
       id="path59" /><path
       class="st2"
       d="M440.2,792.7l-1.9-4.6l1,2.3l-1-2.3c0.1,0,6-2.6,8-8.4c1.4-3.9,0.7-8.6-2.1-13.8c-9.6-17.8-9.9-29.7-1-38.5   l3.5,3.5c-5.1,5.1-8.8,12.9,1.9,32.6c3.5,6.5,4.3,12.5,2.4,17.9C448.2,789.3,440.6,792.6,440.2,792.7z"
       id="path61" /><path
       class="st2"
       d="M423.5,780.3l-1.9-4.6c0.1,0,6-2.6,8-8.4c1.4-3.9,0.7-8.6-2.1-13.8c-9.6-17.8-9.9-29.7-1-38.5l3.5,3.5   c-5.1,5.1-8.8,12.9,1.9,32.6c3.5,6.5,4.3,12.5,2.4,17.9C431.5,776.9,423.8,780.2,423.5,780.3z"
       id="path63" /><g
       id="g65"><g
         id="g67"><path
           class="st3"
           d="M200.6,603H99.4v67.3c0,19.7,16,35.7,35.7,35.7h29.9c19.7,0,35.7-16,35.7-35.7V603z"
           id="path69" /></g><g
         id="g71"><path
           class="st2"
           d="M164.9,708.5h-29.9c-21,0-38.2-17.1-38.2-38.2v-69.8h106.2v69.8C203.1,691.4,186,708.5,164.9,708.5z      M101.9,605.5v64.8c0,18.3,14.9,33.2,33.2,33.2h29.9c18.3,0,33.2-14.9,33.2-33.2v-64.8H101.9z"
           id="path73" /><path
           class="st2"
           d="M202.4,680.3c-0.3,0-0.6,0-0.9,0l0.1-5c19.3,0.3,30.6-10.5,33.7-32.2c0.7-5.2-0.8-10.4-4.2-14.3     c-3.4-3.9-8.3-6.1-13.4-6.1c0,0,0,0,0,0c-9.2,0-15.1,0-17.6-0.1l0.2-5c2.4,0.1,8.4,0.2,17.4,0.1c0,0,0,0,0.1,0     c6.6,0,12.9,2.9,17.2,7.8c4.4,5,6.3,11.7,5.4,18.3C236,673.8,217.5,680.3,202.4,680.3z"
           id="path75" /></g><rect
         x="88.8"
         y="703.5"
         class="st2"
         width="129.2"
         height="5"
         id="rect77" /><rect
         x="79.9"
         y="715.5"
         class="st2"
         width="150.5"
         height="5"
         id="rect79" /><path
         class="st2"
         d="M127.4,595.8c-0.4-0.2-3.8-1.7-5.1-5.3c-0.9-2.5-0.5-5.3,1-8.2c4.2-7.8,2-9.9,1-11l3.5-3.5    c5.2,5.2,2.4,12.1-0.1,16.9c-0.9,1.6-1.1,3.1-0.7,4.2c0.6,1.6,2.3,2.4,2.3,2.4L127.4,595.8z"
         id="path81" /><path
         class="st2"
         d="M150,595.8c-0.4-0.2-3.8-1.7-5.1-5.3c-0.9-2.5-0.5-5.3,1-8.2c4.2-7.8,2-9.9,1-11l3.5-3.5    c5.2,5.2,2.4,12.1-0.1,16.9c-0.9,1.6-1.1,3-0.7,4.2c0.6,1.6,2.3,2.4,2.3,2.4L150,595.8z"
         id="path83" /><path
         class="st2"
         d="M171.1,595.8c-0.4-0.2-3.8-1.7-5.1-5.3c-0.9-2.5-0.5-5.3,1-8.2c4.2-7.8,2-9.9,1-11l3.5-3.5    c5.2,5.2,2.4,12.1-0.1,16.9c-0.9,1.6-1.1,3-0.7,4.2c0.6,1.6,2.3,2.4,2.3,2.4L171.1,595.8z"
         id="path85" /><path
         class="st2"
         d="M127.4,595.8c-0.4-0.2-3.8-1.7-5.1-5.3c-0.9-2.5-0.5-5.3,1-8.2c4.2-7.8,2-9.9,1-11l3.5-3.5    c5.2,5.2,2.4,12.1-0.1,16.9c-0.9,1.6-1.1,3.1-0.7,4.2c0.6,1.6,2.3,2.4,2.3,2.4L127.4,595.8z"
         id="path87" /><path
         class="st2"
         d="M127.4,595.8c-0.4-0.2-3.8-1.7-5.1-5.3c-0.9-2.5-0.5-5.3,1-8.2c4.2-7.8,2-9.9,1-11l3.5-3.5    c5.2,5.2,2.4,12.1-0.1,16.9c-0.9,1.6-1.1,3.1-0.7,4.2c0.6,1.6,2.3,2.4,2.3,2.4L127.4,595.8z"
         id="path89" /></g><g
       id="g91"><polygon
         class="st0"
         points="980.9,454.2 948.9,454.2 963.2,484.5 966.7,484.5   "
         id="polygon93" /><rect
         x="948.9"
         y="281.3"
         class="st3"
         width="32"
         height="149.5"
         id="rect95" /><path
         class="st2"
         d="M983.4,433.3h-37V278.8h37V433.3z M951.4,428.3h27V283.8h-27V428.3z"
         id="path97" /><path
         class="st2"
         d="M980.9,456.7h-32c-1.4,0-2.5-1.1-2.5-2.5v-23.4c0-1.4,1.1-2.5,2.5-2.5h32c1.4,0,2.5,1.1,2.5,2.5v23.4    C983.4,455.6,982.3,456.7,980.9,456.7z M951.4,451.7h27v-18.4h-27V451.7z"
         id="path99" /><path
         class="st2"
         d="M966.7,487h-3.5c-1,0-1.9-0.6-2.3-1.4l-14.3-30.4c-0.4-0.8-0.3-1.7,0.2-2.4c0.5-0.7,1.3-1.2,2.1-1.2h32    c0.9,0,1.7,0.4,2.1,1.2c0.5,0.7,0.5,1.6,0.2,2.4l-14.3,30.4C968.5,486.5,967.6,487,966.7,487z M964.8,482h0.3l11.9-25.4h-24.2    L964.8,482z"
         id="path101" /><g
         id="g103"><polygon
           class="st2"
           points="955.5,468.3 963.2,484.5 966.7,484.5 974.3,468.3    "
           id="polygon105" /><path
           class="st2"
           d="M966.7,487h-3.5c-1,0-1.9-0.6-2.3-1.4l-7.6-16.2c-0.4-0.8-0.3-1.7,0.2-2.4c0.5-0.7,1.3-1.2,2.1-1.2h18.7     c0.9,0,1.7,0.4,2.1,1.2c0.5,0.7,0.5,1.6,0.2,2.4l-7.6,16.2C968.5,486.5,967.6,487,966.7,487z M964.8,482h0.3l5.3-11.2h-10.9     L964.8,482z"
           id="path107" /></g><path
         class="st2"
         d="M983.4,283.8h-37v-11.6c0-9,7.3-16.3,16.3-16.3h4.4c9,0,16.3,7.3,16.3,16.3V283.8z M951.4,278.8h27v-6.6    c0-6.3-5.1-11.3-11.3-11.3h-4.4c-6.3,0-11.3,5.1-11.3,11.3V278.8z"
         id="path109" /><g
         id="g111"><rect
           x="955.2"
           y="280.8"
           class="st2"
           width="5"
           height="149.5"
           id="rect113" /><rect
           x="969.7"
           y="280.8"
           class="st2"
           width="5"
           height="149.5"
           id="rect115" /></g></g><path
       class="st2"
       d="M302.5,419.8c-0.6,0-1.2-0.2-1.7-0.7L162.7,289.6c-1-0.9-1.1-2.5-0.1-3.5c0.9-1,2.5-1.1,3.5-0.1l138.1,129.6   c1,0.9,1.1,2.5,0.1,3.5C303.8,419.6,303.2,419.8,302.5,419.8z"
       id="path117" /><path
       class="st2"
       d="M238.8,403.6c-0.6,0-1.2-0.2-1.7-0.7L145.5,317c-6.8-6.4-13.7-18-17.6-29.4c-4.6-13.9-4-25,1.8-31.4   c0,0,0.1-0.1,0.1-0.1c0,0,0,0,0.1-0.1c0,0,0.1-0.1,0.1-0.1c6-6.3,17.1-7.7,31.3-3.9c11.7,3.1,23.7,9.2,30.5,15.7l91.6,85.9   c0.6,0.5,0.8,1.3,0.8,2l-3.1,39.4c0.1,0.4,0.1,0.8-0.1,1.2c-0.2,0.6-0.6,1.1-1.2,1.4c-0.1,0.1-0.3,0.2-0.4,0.2   c-0.4,0.1-0.7,0.2-1.1,0.2l-39.2,5.6C239.1,403.6,238.9,403.6,238.8,403.6z M133.6,259.4C133.6,259.4,133.6,259.4,133.6,259.4   c-10.6,11.4,3.8,43.2,15.4,54l90.7,85.1l36.6-5.2l2.9-36.9l-90.7-85.1C176.9,260.4,144.3,248.1,133.6,259.4   C133.6,259.3,133.6,259.4,133.6,259.4z"
       id="path119" /><path
       class="st2"
       d="M160.3,329.2c-0.6,0-1.2-0.2-1.7-0.7c-1-0.9-1.1-2.5-0.1-3.5l10.4-11c0.9-1,2.5-1.1,3.5-0.1   c1,0.9,1.1,2.5,0.1,3.5l-10.4,11C161.7,328.9,161,329.2,160.3,329.2z"
       id="path121" /><path
       class="st2"
       d="M234.8,344c-0.6,0-1.2-0.2-1.7-0.7c-1-0.9-1.1-2.5-0.1-3.5l14.2-15.1c0.9-1,2.5-1.1,3.5-0.1   c1,0.9,1.1,2.5,0.1,3.5l-14.2,15.1C236.1,343.7,235.4,344,234.8,344z"
       id="path123" /><path
       class="st2"
       d="M215.4,318.8c-0.6,0-1.2-0.2-1.7-0.7c-1-0.9-1.1-2.5-0.1-3.5l11.7-12.4c0.9-1,2.5-1.1,3.5-0.1   c1,0.9,1.1,2.5,0.1,3.5L217.2,318C216.7,318.5,216.1,318.8,215.4,318.8z"
       id="path125" /><path
       class="st2"
       d="M192.7,359.5c-0.6,0-1.2-0.2-1.7-0.7c-1-0.9-1.1-2.5-0.1-3.5l14.2-15.1c0.9-1,2.5-1.1,3.5-0.1   c1,0.9,1.1,2.5,0.1,3.5l-14.2,15.1C194,359.3,193.4,359.5,192.7,359.5z"
       id="path127" /><path
       class="st2"
       d="M224.4,388.7c-0.6,0-1.2-0.2-1.7-0.7c-1-0.9-1.1-2.5-0.1-3.5l10.2-10.9c0.9-1,2.5-1.1,3.5-0.1   c1,0.9,1.1,2.5,0.1,3.5l-10.2,10.9C225.7,388.4,225.1,388.7,224.4,388.7z"
       id="path129" /><path
       class="st2"
       d="M266.2,366.2c-0.6,0-1.2-0.2-1.7-0.7c-1-0.9-1.1-2.5-0.1-3.5l11.4-12.1c0.9-1,2.5-1.1,3.5-0.1   c1,0.9,1.1,2.5,0.1,3.5l-11.4,12.1C267.6,366,266.9,366.2,266.2,366.2z"
       id="path131" /><path
       class="st2"
       d="M180.1,286.9c-0.6,0-1.2-0.2-1.7-0.7c-1-0.9-1.1-2.5-0.1-3.5l11.5-12.3c0.9-1,2.5-1.1,3.5-0.1   c1,0.9,1.1,2.5,0.1,3.5l-11.5,12.3C181.4,286.6,180.8,286.9,180.1,286.9z"
       id="path133" /><path
       class="st2"
       d="M136.3,302.8c-0.6,0-1.2-0.2-1.7-0.7c-1-0.9-1.1-2.5-0.1-3.5l10.1-10.7c0.9-1,2.5-1.1,3.5-0.1   c1,0.9,1.1,2.5,0.1,3.5L138.1,302C137.6,302.5,136.9,302.8,136.3,302.8z"
       id="path135" /><path
       class="st2"
       d="M146.4,271.4c-0.6,0-1.2-0.2-1.7-0.7c-1-0.9-1.1-2.5-0.1-3.5l12.8-13.7c0.9-1,2.5-1.1,3.5-0.1   c1,0.9,1.1,2.5,0.1,3.5l-12.8,13.7C147.8,271.1,147.1,271.4,146.4,271.4z"
       id="path137" /><path
       class="st2"
       d="M205.7,299.8c-0.6,0-1.2-0.2-1.7-0.7c-1-0.9-1.1-2.5-0.1-3.5l5.3-5.6c0.9-1,2.5-1.1,3.5-0.1   c1,0.9,1.1,2.5,0.1,3.5l-5.3,5.6C207.1,299.5,206.4,299.8,205.7,299.8z"
       id="path139" /><path
       class="st2"
       d="M211.2,375.7c-0.6,0-1.2-0.2-1.7-0.7c-1-0.9-1.1-2.5-0.1-3.5l5-5.3c0.9-1,2.5-1.1,3.5-0.1   c1,0.9,1.1,2.5,0.1,3.5l-5,5.3C212.5,375.4,211.8,375.7,211.2,375.7z"
       id="path141" /><path
       class="st2"
       d="M259.8,350.3c-0.6,0-1.2-0.2-1.7-0.7c-1-0.9-1.1-2.5-0.1-3.5l6-6.4c0.9-1,2.5-1.1,3.5-0.1   c1,0.9,1.1,2.5,0.1,3.5l-6,6.4C261.1,350,260.4,350.3,259.8,350.3z"
       id="path143" /><path
       class="st2"
       d="M253.4,339.4c-0.6,0-1.2-0.2-1.7-0.7c-1-0.9-1.1-2.5-0.1-3.5l3.8-4c0.9-1,2.5-1.1,3.5-0.1   c1,0.9,1.1,2.5,0.1,3.5l-3.8,4C254.7,339.2,254,339.4,253.4,339.4z"
       id="path145" /><path
       class="st2"
       d="M235,398.5c-0.6,0-1.2-0.2-1.7-0.7c-1-0.9-1.1-2.5-0.1-3.5l5.4-5.7c0.9-1,2.5-1.1,3.5-0.1   c1,0.9,1.1,2.5,0.1,3.5l-5.4,5.7C236.4,398.2,235.7,398.5,235,398.5z"
       id="path147" /><path
       class="st2"
       d="M178.6,346.1c-0.6,0-1.2-0.2-1.7-0.7c-1-0.9-1.1-2.5-0.1-3.5l4.9-5.2c0.9-1,2.5-1.1,3.5-0.1   c1,0.9,1.1,2.5,0.1,3.5l-4.9,5.2C180,345.9,179.3,346.1,178.6,346.1z"
       id="path149" /><path
       class="st2"
       d="M147.2,317.7c-0.6,0-1.2-0.2-1.7-0.7c-1-0.9-1.1-2.5-0.1-3.5l13.3-14.2c0.9-1,2.5-1.1,3.5-0.1   c1,0.9,1.1,2.5,0.1,3.5l-13.3,14.2C148.6,317.4,147.9,317.7,147.2,317.7z"
       id="path151" /><path
       class="st2"
       d="M172.9,274.9c-0.6,0-1.2-0.2-1.7-0.7c-1-0.9-1.1-2.5-0.1-3.5l8.8-9.3c0.9-1,2.5-1.1,3.5-0.1   c1,0.9,1.1,2.5,0.1,3.5l-8.8,9.3C174.3,274.6,173.6,274.9,172.9,274.9z"
       id="path153" /><path
       class="st2"
       d="M233.6,323.3c-0.6,0-1.2-0.2-1.7-0.7c-1-0.9-1.1-2.5-0.1-3.5l3.7-3.9c0.9-1,2.5-1.1,3.5-0.1   c1,0.9,1.1,2.5,0.1,3.5l-3.7,3.9C235,323,234.3,323.3,233.6,323.3z"
       id="path155" /><g
       id="g157"><path
         class="st3"
         d="M1150.3,422.2v194.8h191V399.1h-167.9C1160.7,399.1,1150.3,409.5,1150.3,422.2z"
         id="path159" /><path
         class="st2"
         d="M1343.8,619.6h-196V422.2c0-14.1,11.5-25.6,25.6-25.6h170.4V619.6z M1152.8,614.6h186V401.6h-165.4    c-11.4,0-20.6,9.3-20.6,20.6V614.6z"
         id="path161" /><g
         id="g163"><path
           class="st1"
           d="M1150.3,619.1L1150.3,619.1c0-10.1,8.2-18.3,18.3-18.3h172.7v36.6h-172.7     C1158.5,637.4,1150.3,629.2,1150.3,619.1z"
           id="path165" /><path
           class="st2"
           d="M1343.8,639.9h-175.2c-11.5,0-20.8-9.3-20.8-20.8c0-11.5,9.3-20.8,20.8-20.8h175.2V639.9z M1168.6,603.3     c-8.7,0-15.8,7.1-15.8,15.8c0,8.7,7.1,15.8,15.8,15.8h170.2v-31.6H1168.6z"
           id="path167" /></g><rect
         x="1154.5"
         y="628.3"
         class="st2"
         width="186.1"
         height="5"
         id="rect169" /><rect
         x="1151.2"
         y="620.9"
         class="st2"
         width="189.4"
         height="5"
         id="rect171" /><rect
         x="1151.2"
         y="613.6"
         class="st2"
         width="189.4"
         height="5"
         id="rect173" /><polygon
         class="st0"
         points="1324.3,616.1 1287.6,616.1 1287.6,656.7 1306.3,652 1324.3,656.7   "
         id="polygon175" /><rect
         x="1181.4"
         y="425.3"
         class="st1"
         width="137"
         height="51.9"
         id="rect177" /><rect
         x="1153.4"
         y="606.3"
         class="st2"
         width="187.2"
         height="5"
         id="rect179" /><path
         class="st2"
         d="M1326.8,659.9l-20.5-5.3l-21.2,5.3v-46.3h41.7V659.9z M1290.1,618.6v34.9l16.2-4.1l15.4,4v-34.8H1290.1z"
         id="path181" /><path
         class="st2"
         d="M1320.9,479.7h-142v-56.9h142V479.7z M1183.9,474.7h132v-46.9h-132V474.7z"
         id="path183" /><rect
         x="1188.1"
         y="543.5"
         class="st2"
         width="76"
         height="5"
         id="rect185" /><rect
         x="1191.1"
         y="565.9"
         class="st2"
         width="95.3"
         height="5"
         id="rect187" /></g><g
       id="g189"><rect
         x="1048.6"
         y="358.2"
         class="st0"
         width="32"
         height="145.8"
         id="rect191" /><path
         class="st2"
         d="M1065,540.5l-18.8-20.4V355.7h37v164.5L1065,540.5z M1051.1,518.2l13.7,14.9l13.3-14.9V360.7h-27V518.2z"
         id="path193" /><path
         class="st2"
         d="M1083.2,360.7h-37v-26.5h37V360.7z M1051.1,355.7h27v-16.5h-27V355.7z"
         id="path195" /><polygon
         class="st2"
         points="1095.8,397.9 1090.8,397.9 1090.8,360.7 1040.8,360.7 1040.8,355.7 1095.8,355.7   "
         id="polygon197" /><rect
         x="1050.9"
         y="501.7"
         class="st2"
         width="29.3"
         height="5"
         id="rect199" /><rect
         x="1062.4"
         y="536.8"
         class="st2"
         width="5"
         height="15"
         id="rect201" /></g><g
       id="g203"><path
         class="st0"
         d="M335.2,771.3c-19.7,0-38.2,1-53.9,2.8v33.4c15.7,1.8,34.2,2.8,53.9,2.8c25.5,0,48.8-1.7,66.9-4.6v-29.9    C384.1,773,360.7,771.3,335.2,771.3z"
         id="path205" /><path
         class="st2"
         d="M283.8,810.3l-2.8-0.3c-43.2-4.9-52.3-13.2-52.3-19.2s9.1-14.3,52.3-19.2l2.8-0.3V810.3z M278.8,776.9    c-33,4-45.1,10.5-45.1,13.9c0,3.4,12.1,9.9,45.1,13.9V776.9z"
         id="path207" /><path
         class="st2"
         d="M335.2,812.9c-19.2,0-37.9-1-54.2-2.8l-2.2-0.3v-37.9l2.2-0.3c16.3-1.9,35-2.8,54.2-2.8    c24.6,0,48.5,1.6,67.3,4.6l2.1,0.3v34.2l-2.1,0.3C383.7,811.2,359.8,812.9,335.2,812.9z M283.8,805.3c15.6,1.7,33.3,2.6,51.4,2.6    c23.4,0,46.2-1.5,64.4-4.2V778c-18.2-2.7-41-4.2-64.4-4.2c-18.1,0-35.8,0.9-51.4,2.6V805.3z"
         id="path209" /><path
         class="st2"
         d="M399.6,808.7V773l2.9,0.5c3.1,0.5,6.1,1,8.9,1.6c4,0.8,7,4.4,7,8.5v14.7c0,4.1-2.9,7.7-7,8.5    c-2.8,0.6-5.8,1.1-8.9,1.6L399.6,808.7z M404.6,778.8v24c2-0.3,4-0.7,5.9-1.1c1.7-0.3,2.9-1.9,2.9-3.6v-14.7    c0-1.7-1.2-3.3-2.9-3.6l0,0C408.6,779.5,406.7,779.2,404.6,778.8z"
         id="path211" /><g
         id="g213"><circle
           class="st1"
           cx="281.7"
           cy="791.2"
           r="9.8"
           id="circle215" /><path
           class="st2"
           d="M281.7,803.4c-6.8,0-12.3-5.5-12.3-12.3c0-6.8,5.5-12.3,12.3-12.3c6.8,0,12.3,5.5,12.3,12.3     C294,797.9,288.5,803.4,281.7,803.4z M281.7,783.9c-4,0-7.3,3.3-7.3,7.3c0,4,3.3,7.3,7.3,7.3c4,0,7.3-3.3,7.3-7.3     C289,787.2,285.7,783.9,281.7,783.9z"
           id="path217" /></g></g><path
       class="st2"
       d="M875.3,323.1l-7.4-13.5c-1.5-2.7-3.7-4.9-6.3-6.3l-13.5-7.4l13.5-7.4c2.7-1.5,4.9-3.7,6.3-6.3l7.4-13.5   l7.4,13.5c1.5,2.7,3.7,4.9,6.3,6.3l13.5,7.4l-13.5,7.4c-2.7,1.5-4.9,3.7-6.3,6.3L875.3,323.1z M858.5,295.9l5.5,3   c3.5,1.9,6.4,4.8,8.3,8.3l3,5.5l3-5.5c1.9-3.5,4.8-6.4,8.3-8.3l5.5-3l-5.5-3c-3.5-1.9-6.4-4.8-8.3-8.3l-3-5.5l-3,5.5   c-1.9,3.5-4.8,6.4-8.3,8.3L858.5,295.9z"
       id="path219" /><path
       class="st2"
       d="M1232.1,365.8l-6.7-12.3c-1.2-2.3-3.1-4.1-5.4-5.4l-12.3-6.7l12.3-6.7c2.3-1.2,4.1-3.1,5.4-5.4l6.7-12.3   l6.7,12.3c1.2,2.3,3.1,4.1,5.4,5.4l12.3,6.7l-12.3,6.7c-2.3,1.2-4.1,3.1-5.4,5.4L1232.1,365.8z M1218.2,341.4l4.3,2.3   c3.1,1.7,5.7,4.3,7.4,7.4l2.3,4.3l2.3-4.3c1.7-3.1,4.3-5.7,7.4-7.4l4.3-2.3l-4.3-2.3c-3.1-1.7-5.7-4.3-7.4-7.4l-2.3-4.3l-2.3,4.3   c-1.7,3.1-4.3,5.7-7.4,7.4L1218.2,341.4z"
       id="path221" /><path
       class="st2"
       d="M960.4,597.5l-4.8-8.7c-0.6-1.1-1.5-2-2.6-2.6l-8.7-4.8l8.7-4.8c1.1-0.6,2-1.5,2.6-2.6l4.8-8.7l4.8,8.7   c0.6,1.1,1.5,2,2.6,2.6l8.7,4.8l-8.7,4.8c-1.1,0.6-2,1.5-2.6,2.6L960.4,597.5z M954.7,581.4l0.7,0.4c2,1.1,3.6,2.7,4.6,4.6l0.4,0.7   l0.4-0.7c1.1-2,2.7-3.6,4.6-4.6l0.7-0.4l-0.7-0.4c-2-1.1-3.6-2.7-4.6-4.6l-0.4-0.7l-0.4,0.7c-1.1,2-2.7,3.6-4.6,4.6L954.7,581.4z"
       id="path223" /><path
       class="st2"
       d="M1189.7,791.2l-7.2-13.3c-1.4-2.6-3.5-4.7-6.1-6.1l-13.3-7.2l13.3-7.2c2.6-1.4,4.7-3.5,6.1-6.1l7.2-13.3   l7.2,13.3c1.4,2.6,3.5,4.7,6.1,6.1l13.3,7.2l-13.3,7.2c-2.6,1.4-4.7,3.5-6.1,6.1L1189.7,791.2z M1173.5,764.6l5.2,2.9   c3.4,1.9,6.2,4.7,8.1,8.1l2.9,5.2l2.9-5.2c1.9-3.4,4.7-6.2,8.1-8.1l5.2-2.9l-5.2-2.9c-3.4-1.9-6.2-4.7-8.1-8.1l-2.9-5.2l-2.9,5.2   c-1.9,3.4-4.7,6.2-8.1,8.1L1173.5,764.6z"
       id="path225" /><path
       class="st2"
       d="M133.4,808l-6.2-11.4c-1.1-2-2.7-3.6-4.7-4.7l-11.4-6.2l11.4-6.2c2-1.1,3.6-2.7,4.7-4.7l6.2-11.4l6.2,11.4   c1.1,2,2.7,3.6,4.7,4.7l11.4,6.2l-11.4,6.2c-2,1.1-3.6,2.7-4.7,4.7L133.4,808z M121.6,785.7l3.3,1.8c2.8,1.5,5.1,3.8,6.7,6.7   l1.8,3.3l1.8-3.3c1.5-2.8,3.8-5.1,6.7-6.7l3.3-1.8l-3.3-1.8c-2.8-1.5-5.1-3.8-6.7-6.7l-1.8-3.3l-1.8,3.3c-1.5,2.8-3.8,5.1-6.7,6.7   L121.6,785.7z"
       id="path227" /><path
       class="st2"
       d="M464.9,624.5l-6.3-11.5c-1.1-2-2.8-3.7-4.8-4.8l-11.5-6.3l11.5-6.3c2-1.1,3.7-2.8,4.8-4.8l6.3-11.5l6.3,11.5   c1.1,2,2.8,3.7,4.8,4.8l11.5,6.3l-11.5,6.3c-2,1.1-3.7,2.8-4.8,4.8L464.9,624.5z M452.7,601.8l3.5,1.9c2.9,1.6,5.2,3.9,6.8,6.8   l1.9,3.5l1.9-3.5c1.6-2.9,3.9-5.2,6.8-6.8l3.5-1.9l-3.5-1.9c-2.9-1.6-5.2-3.9-6.8-6.8l-1.9-3.5l-1.9,3.5c-1.6,2.9-3.9,5.2-6.8,6.8   L452.7,601.8z"
       id="path229" /><path
       class="st2"
       d="M184.6,514.8l-4.8-8.8c-0.6-1.1-1.6-2.1-2.7-2.7l-8.8-4.8l8.8-4.8c1.1-0.6,2.1-1.6,2.7-2.7l4.8-8.8l4.8,8.8   c0.6,1.1,1.6,2.1,2.7,2.7l8.8,4.8l-8.8,4.8c-1.1,0.6-2.1,1.6-2.7,2.7L184.6,514.8z M178.8,498.5l0.8,0.4c2,1.1,3.6,2.7,4.7,4.7   l0.4,0.8l0.4-0.8c1.1-2,2.7-3.6,4.7-4.7l0.8-0.4l-0.8-0.4c-2-1.1-3.6-2.7-4.7-4.7l-0.4-0.8l-0.4,0.8c-1.1,2-2.7,3.6-4.7,4.7   L178.8,498.5z"
       id="path231" /><path
       class="st2"
       d="M538,296.9l-5.4-9.8c-0.8-1.5-2-2.7-3.5-3.5l-9.8-5.4l9.8-5.4c1.5-0.8,2.7-2,3.5-3.5l5.4-9.8l5.4,9.8   c0.8,1.5,2,2.7,3.5,3.5l9.8,5.4l-9.8,5.4c-1.5,0.8-2.7,2-3.5,3.5L538,296.9z M529.9,278.3l1.8,1c2.3,1.3,4.2,3.1,5.4,5.4l1,1.8   l1-1.8c1.3-2.3,3.1-4.2,5.4-5.4l1.8-1l-1.8-1c-2.3-1.3-4.2-3.1-5.4-5.4l-1-1.8l-1,1.8c-1.3,2.3-3.1,4.2-5.4,5.4L529.9,278.3z"
       id="path233" /><g
       id="g235"><g
         id="g237"><rect
           x="262.4"
           y="159.6"
           class="st2"
           width="5"
           height="9.5"
           id="rect239" /><rect
           x="262.4"
           y="220.8"
           class="st2"
           width="5"
           height="9.5"
           id="rect241" /></g><g
         id="g243"><rect
           x="247.1"
           y="163.7"
           transform="matrix(0.866 -0.5 0.5 0.866 -50.7632 147.3517)"
           class="st2"
           width="5"
           height="9.5"
           id="rect245" /><rect
           x="277.7"
           y="216.7"
           transform="matrix(0.866 -0.5 0.5 0.866 -73.1901 169.7918)"
           class="st2"
           width="5"
           height="9.5"
           id="rect247" /></g><g
         id="g249"><rect
           x="235.9"
           y="174.9"
           transform="matrix(0.5 -0.866 0.866 0.5 -36.36 296.2629)"
           class="st2"
           width="5"
           height="9.5"
           id="rect251" /><rect
           x="288.9"
           y="205.5"
           transform="matrix(0.5 -0.866 0.866 0.5 -36.3658 357.5167)"
           class="st2"
           width="5"
           height="9.5"
           id="rect253" /></g><g
         id="g255"><rect
           x="229.5"
           y="192.4"
           class="st2"
           width="9.5"
           height="5"
           id="rect257" /><rect
           x="290.8"
           y="192.4"
           class="st2"
           width="9.5"
           height="5"
           id="rect259" /></g><g
         id="g261"><rect
           x="233.6"
           y="207.8"
           transform="matrix(0.866 -0.5 0.5 0.866 -73.1892 147.3609)"
           class="st2"
           width="9.5"
           height="5"
           id="rect263" /><rect
           x="286.7"
           y="177.1"
           transform="matrix(0.866 -0.5 0.5 0.866 -50.7638 169.7864)"
           class="st2"
           width="9.5"
           height="5"
           id="rect265" /></g><g
         id="g267"><rect
           x="244.9"
           y="219"
           transform="matrix(0.5 -0.866 0.866 0.5 -66.9973 326.8882)"
           class="st2"
           width="9.5"
           height="5"
           id="rect269" /><rect
           x="275.5"
           y="165.9"
           transform="matrix(0.5 -0.866 0.866 0.5 -5.7301 326.8881)"
           class="st2"
           width="9.5"
           height="5"
           id="rect271" /></g></g><g
       id="g273"><g
         id="g275"><rect
           x="1109.1"
           y="222.4"
           class="st2"
           width="5"
           height="10.9"
           id="rect277" /><rect
           x="1109.1"
           y="292.8"
           class="st2"
           width="5"
           height="10.9"
           id="rect279" /></g><g
         id="g281"><rect
           x="1091.4"
           y="227.1"
           transform="matrix(0.866 -0.5 0.5 0.866 30.3001 578.1643)"
           class="st2"
           width="5"
           height="10.9"
           id="rect283" /><rect
           x="1126.7"
           y="288.1"
           transform="matrix(0.866 -0.5 0.5 0.866 4.5146 603.9393)"
           class="st2"
           width="5"
           height="10.9"
           id="rect285" /></g><g
         id="g287"><rect
           x="1078.6"
           y="240"
           transform="matrix(0.5 -0.866 0.866 0.5 327.9344 1058.9031)"
           class="st2"
           width="5"
           height="10.9"
           id="rect289" /><rect
           x="1139.6"
           y="275.2"
           transform="matrix(0.5 -0.866 0.866 0.5 327.9988 1129.4005)"
           class="st2"
           width="5"
           height="10.9"
           id="rect291" /></g><g
         id="g293"><rect
           x="1070.9"
           y="260.5"
           class="st2"
           width="10.9"
           height="5"
           id="rect295" /><rect
           x="1141.3"
           y="260.5"
           class="st2"
           width="10.9"
           height="5"
           id="rect297" /></g><g
         id="g299"><rect
           x="1075.6"
           y="278.2"
           transform="matrix(0.866 -0.5 0.5 0.866 4.5075 578.1313)"
           class="st2"
           width="10.9"
           height="5"
           id="rect301" /><rect
           x="1136.6"
           y="242.9"
           transform="matrix(0.866 -0.5 0.5 0.866 30.2931 603.9244)"
           class="st2"
           width="10.9"
           height="5"
           id="rect303" /></g><g
         id="g305"><rect
           x="1088.5"
           y="291"
           transform="matrix(0.5 -0.866 0.866 0.5 292.7532 1094.1564)"
           class="st2"
           width="10.9"
           height="5"
           id="rect307" /><rect
           x="1123.7"
           y="230"
           transform="matrix(0.5 -0.866 0.866 0.5 363.1818 1094.1489)"
           class="st2"
           width="10.9"
           height="5"
           id="rect309" /></g></g><g
       id="g311"><g
         id="g313"><rect
           x="709.4"
           y="198.9"
           class="st2"
           width="5"
           height="9"
           id="rect315" /><rect
           x="709.4"
           y="256.8"
           class="st2"
           width="5"
           height="9"
           id="rect317" /></g><g
         id="g319"><rect
           x="695"
           y="202.8"
           transform="matrix(0.866 -0.5 0.5 0.866 -10.1905 376.5361)"
           class="st2"
           width="5"
           height="9"
           id="rect321" /><rect
           x="723.9"
           y="252.9"
           transform="matrix(0.866 -0.5 0.5 0.866 -31.3703 397.7187)"
           class="st2"
           width="5"
           height="9"
           id="rect323" /></g><g
         id="g325"><rect
           x="684.4"
           y="213.4"
           transform="matrix(0.5 -0.866 0.866 0.5 154.7247 703.7499)"
           class="st2"
           width="5"
           height="9"
           id="rect327" /><rect
           x="734.5"
           y="242.3"
           transform="matrix(0.5 -0.8661 0.8661 0.5 154.7768 761.6687)"
           class="st2"
           width="5"
           height="9"
           id="rect329" /></g><g
         id="g331"><rect
           x="678.5"
           y="229.8"
           class="st2"
           width="9"
           height="5"
           id="rect333" /><rect
           x="736.4"
           y="229.8"
           class="st2"
           width="9"
           height="5"
           id="rect335" /></g><g
         id="g337"><rect
           x="682.4"
           y="244.3"
           transform="matrix(0.866 -0.5 0.5 0.866 -31.3766 376.5071)"
           class="st2"
           width="9"
           height="5"
           id="rect339" /><rect
           x="732.5"
           y="215.4"
           transform="matrix(0.866 -0.5 0.5 0.866 -10.1992 397.6785)"
           class="st2"
           width="9"
           height="5"
           id="rect341" /></g><g
         id="g343"><rect
           x="693"
           y="254.9"
           transform="matrix(0.5 -0.866 0.866 0.5 125.8193 732.7075)"
           class="st2"
           width="9"
           height="5"
           id="rect345" /><rect
           x="721.9"
           y="204.8"
           transform="matrix(0.5 -0.866 0.866 0.5 183.6799 732.7075)"
           class="st2"
           width="9"
           height="5"
           id="rect347" /></g></g><g
       id="g349"><g
         id="g351"><rect
           x="86.2"
           y="410.2"
           class="st2"
           width="5"
           height="9.1"
           id="rect353" /><rect
           x="86.2"
           y="468.7"
           class="st2"
           width="5"
           height="9.1"
           id="rect355" /></g><g
         id="g357"><rect
           x="71.5"
           y="414.1"
           transform="matrix(0.866 -0.5 0.5 0.866 -199.3863 93.0902)"
           class="st2"
           width="5"
           height="9.1"
           id="rect359" /><rect
           x="100.8"
           y="464.8"
           transform="matrix(0.866 -0.5 0.5 0.866 -220.8523 114.5533)"
           class="st2"
           width="5"
           height="9.1"
           id="rect361" /></g><g
         id="g363"><rect
           x="60.8"
           y="424.8"
           transform="matrix(0.5 -0.866 0.866 0.5 -340.1773 269.511)"
           class="st2"
           width="5"
           height="9.1"
           id="rect365" /><rect
           x="111.5"
           y="454.1"
           transform="matrix(0.5001 -0.866 0.866 0.5001 -340.1628 328.0425)"
           class="st2"
           width="5"
           height="9.1"
           id="rect367" /></g><g
         id="g369"><rect
           x="54.9"
           y="441.5"
           class="st2"
           width="9.1"
           height="5"
           id="rect371" /><rect
           x="113.4"
           y="441.5"
           class="st2"
           width="9.1"
           height="5"
           id="rect373" /></g><g
         id="g375"><rect
           x="58.8"
           y="456.1"
           transform="matrix(0.866 -0.5 0.5 0.866 -220.8361 93.0984)"
           class="st2"
           width="9.1"
           height="5"
           id="rect377" /><rect
           x="109.5"
           y="426.8"
           transform="matrix(0.866 -0.5 0.5 0.866 -199.3991 114.5418)"
           class="st2"
           width="9.1"
           height="5"
           id="rect379" /></g><g
         id="g381"><rect
           x="69.5"
           y="466.9"
           transform="matrix(0.5 -0.866 0.866 0.5 -369.4587 298.7827)"
           class="st2"
           width="9.1"
           height="5"
           id="rect383" /><rect
           x="98.8"
           y="416.1"
           transform="matrix(0.5001 -0.866 0.866 0.5001 -310.8729 298.7469)"
           class="st2"
           width="9.1"
           height="5"
           id="rect385" /></g></g><g
       id="g387"><g
         id="g389"><rect
           x="1305.2"
           y="697.5"
           class="st2"
           width="5"
           height="10"
           id="rect391" /><rect
           x="1305.2"
           y="762.3"
           class="st2"
           width="5"
           height="10"
           id="rect393" /></g><g
         id="g395"><rect
           x="1289"
           y="701.9"
           transform="matrix(0.866 -0.5 0.5 0.866 -180.4022 740.4331)"
           class="st2"
           width="5"
           height="10"
           id="rect397" /><rect
           x="1321.4"
           y="758"
           transform="matrix(0.866 -0.5 0.5 0.866 -204.1238 764.1624)"
           class="st2"
           width="5"
           height="10"
           id="rect399" /></g><g
         id="g401"><rect
           x="1277.2"
           y="713.7"
           transform="matrix(0.5 -0.866 0.866 0.5 17.3724 1467.5471)"
           class="st2"
           width="5"
           height="10"
           id="rect403" /><rect
           x="1333.3"
           y="746.1"
           transform="matrix(0.5 -0.866 0.866 0.5 17.4108 1532.4224)"
           class="st2"
           width="5"
           height="10"
           id="rect405" /></g><g
         id="g407"><rect
           x="1270.3"
           y="732.4"
           class="st2"
           width="10"
           height="5"
           id="rect409" /><rect
           x="1335.1"
           y="732.4"
           class="st2"
           width="10"
           height="5"
           id="rect411" /></g><g
         id="g413"><rect
           x="1274.7"
           y="748.6"
           transform="matrix(0.866 -0.5 0.5 0.866 -204.1239 740.4851)"
           class="st2"
           width="10"
           height="5"
           id="rect415" /><rect
           x="1330.8"
           y="716.2"
           transform="matrix(0.866 -0.5 0.5 0.866 -180.4013 764.1931)"
           class="st2"
           width="10"
           height="5"
           id="rect417" /></g><g
         id="g419"><rect
           x="1286.5"
           y="760.5"
           transform="matrix(0.5 -0.866 0.866 0.5 -15.0108 1499.9896)"
           class="st2"
           width="10"
           height="5"
           id="rect421" /><rect
           x="1318.9"
           y="704.4"
           transform="matrix(0.5 -0.866 0.866 0.5 49.8004 1499.9905)"
           class="st2"
           width="10"
           height="5"
           id="rect423" /></g></g><g
       id="g425"><path
         class="st0"
         d="M385.5,631.4c17.2-24.1,10.6-56.7-15.1-73.2c-7.8-5-17.5-8.4-28.8-8.2c-11.7,0.3-22,4.3-30.1,9.8    c-24.5,16.6-30.5,48.1-13.8,71.5c1.1,1.6,1.8,2.4,1.8,2.4c5.1,5.2,9.7,15.2,9,21.9c-0.4,3.3,4.3,8.8,10.9,10h21.9h0.5h23.7    c4.9-1.4,9.5-6.6,9.2-10c-0.7-6.7,3.9-16.7,9-21.9C383.6,633.8,384.3,632.9,385.5,631.4z"
         id="path427" /><path
         class="st2"
         d="M365.8,668.2l-46.9,0c-7.9-1.4-13.5-8-13-12.7c0.6-5.5-3.3-14.8-8.3-19.9l-0.1-0.1c0,0-0.8-1-2-2.6    c-8.3-11.7-11.6-25.7-9.1-39.6c2.6-14.3,10.9-26.9,23.5-35.5c9.5-6.5,20.4-10,31.5-10.3c10.8-0.2,21.3,2.8,30.3,8.6    c13.2,8.5,22,21.3,24.9,36c2.7,14.2-0.5,28.7-9.1,40.7v0c-1.2,1.6-1.9,2.5-2,2.6l-0.1,0.1c-5,5.1-8.9,14.4-8.3,19.9    c0.5,4.6-4.9,10.9-10.9,12.6L365.8,668.2z M319.6,663.2h45.4c4.1-1.3,7.2-5.6,7-7.2c-0.8-7.8,4.4-18.4,9.7-23.9    c0.2-0.2,0.8-0.9,1.7-2.2v0c7.8-10.9,10.7-24,8.3-36.9c-2.6-13.4-10.6-25-22.7-32.8c-8.1-5.2-17.7-8-27.5-7.8    c-12.7,0.3-22.7,5.3-28.8,9.4c-11.5,7.8-19.1,19.3-21.4,32.3c-2.2,12.5,0.7,25.2,8.2,35.8c0.9,1.2,1.5,2,1.7,2.2    c5.3,5.4,10.5,16.1,9.7,23.9C310.8,657.5,314,662.1,319.6,663.2z"
         id="path429" /><path
         class="st2"
         d="M353.9,665.3h-5v-48.7h-14.7v48.7h-5v-48.7h-3c-4.4,0-8-3.6-8-8c0-4.4,3.6-8,8-8c4.4,0,8,3.6,8,8v3h14.7v-3    c0-4.4,3.6-8,8-8c4.4,0,8,3.6,8,8c0,4.4-3.6,8-8,8h-3V665.3z M353.9,611.6h3c1.6,0,3-1.3,3-3c0-1.6-1.3-3-3-3c-1.6,0-3,1.3-3,3    V611.6z M326.3,605.6c-1.6,0-3,1.3-3,3c0,1.6,1.3,3,3,3h3v-3C329.2,606.9,327.9,605.6,326.3,605.6z"
         id="path431" /><path
         class="st2"
         d="M366.8,684.9h-50.5c-4.9,0-8.9-4-8.9-8.9v-3.7c0-4.9,4-8.9,8.9-8.9h50.5c4.9,0,8.9,4,8.9,8.9v3.7    C375.7,680.9,371.7,684.9,366.8,684.9z M316.3,668.4c-2.1,0-3.9,1.7-3.9,3.9v3.7c0,2.1,1.7,3.9,3.9,3.9h50.5    c2.1,0,3.9-1.7,3.9-3.9v-3.7c0-2.1-1.7-3.9-3.9-3.9H316.3z"
         id="path433" /><path
         class="st2"
         d="M366.8,701.2h-50.5c-4.9,0-8.9-4-8.9-8.9v-3.7c0-4.9,4-8.9,8.9-8.9h50.5c4.9,0,8.9,4,8.9,8.9v3.7    C375.7,697.3,371.7,701.2,366.8,701.2z M316.3,684.8c-2.1,0-3.9,1.7-3.9,3.9v3.7c0,2.1,1.7,3.9,3.9,3.9h50.5    c2.1,0,3.9-1.7,3.9-3.9v-3.7c0-2.1-1.7-3.9-3.9-3.9H316.3z"
         id="path435" /><path
         class="st2"
         d="M359.4,718.2h-35.6c-4.4,0-8-3.6-8-8v-5.5c0-4.4,3.6-8,8-8h35.6c4.4,0,8,3.6,8,8v5.5    C367.4,714.6,363.8,718.2,359.4,718.2z M323.8,701.7c-1.6,0-3,1.3-3,3v5.5c0,1.6,1.3,3,3,3h35.6c1.6,0,3-1.3,3-3v-5.5    c0-1.6-1.3-3-3-3H323.8z"
         id="path437" /></g><g
       id="g439"><path
         class="st0"
         d="M1047.3,661c-40.9,0-74,33.1-74,74c0,40.9,33.1,74,74,74s74-33.1,74-74C1121.3,694.2,1088.2,661,1047.3,661z     M1047.3,797.2c-34.3,0-62.1-27.8-62.1-62.1c0-34.3,27.8-62.1,62.1-62.1c34.3,0,62.1,27.8,62.1,62.1    C1109.5,769.3,1081.7,797.2,1047.3,797.2z"
         id="path441" /><path
         class="st2"
         d="M1047.3,811.5c-42.2,0-76.5-34.3-76.5-76.5c0-42.2,34.3-76.5,76.5-76.5s76.5,34.3,76.5,76.5    C1123.8,777.2,1089.5,811.5,1047.3,811.5z M1047.3,663.5c-39.4,0-71.5,32.1-71.5,71.5s32.1,71.5,71.5,71.5s71.5-32.1,71.5-71.5    S1086.8,663.5,1047.3,663.5z"
         id="path443" /><g
         id="g445"><circle
           class="st1"
           cx="1047.3"
           cy="735"
           r="62.1"
           id="circle447" /><path
           class="st2"
           d="M1047.3,799.7c-35.6,0-64.6-29-64.6-64.6c0-35.6,29-64.6,64.6-64.6c35.6,0,64.6,29,64.6,64.6     C1112,770.7,1083,799.7,1047.3,799.7z M1047.3,675.4c-32.9,0-59.6,26.8-59.6,59.6c0,32.9,26.8,59.6,59.6,59.6     c32.9,0,59.6-26.8,59.6-59.6C1107,702.1,1080.2,675.4,1047.3,675.4z"
           id="path449" /></g><g
         id="g451"><rect
           x="1044.8"
           y="680.2"
           class="st2"
           width="5"
           height="16.1"
           id="rect453" /><rect
           x="1044.8"
           y="773.7"
           class="st2"
           width="5"
           height="16.1"
           id="rect455" /></g><g
         id="g457"><rect
           x="1021.5"
           y="686.5"
           transform="matrix(0.866 -0.5 0.5 0.866 -210.0875 605.0341)"
           class="st2"
           width="5"
           height="16.1"
           id="rect459" /><rect
           x="1068.2"
           y="767.4"
           transform="matrix(0.866 -0.5 0.5 0.866 -244.3026 639.2494)"
           class="st2"
           width="5"
           height="16.1"
           id="rect461" /></g><g
         id="g463"><rect
           x="1004.4"
           y="703.6"
           transform="matrix(0.5 -0.866 0.866 0.5 -112.8788 1227.7972)"
           class="st2"
           width="5"
           height="16.1"
           id="rect465" /><rect
           x="1085.3"
           y="750.3"
           transform="matrix(0.5 -0.866 0.866 0.5 -112.8795 1321.2744)"
           class="st2"
           width="5"
           height="16.1"
           id="rect467" /></g><g
         id="g469"><rect
           x="992.5"
           y="732.5"
           class="st2"
           width="16.1"
           height="5"
           id="rect471" /><rect
           x="1086"
           y="732.5"
           class="st2"
           width="16.1"
           height="5"
           id="rect473" /></g><g
         id="g475"><rect
           x="998.8"
           y="755.9"
           transform="matrix(0.866 -0.5 0.5 0.866 -244.304 605.045)"
           class="st2"
           width="16.1"
           height="5"
           id="rect477" /><rect
           x="1079.8"
           y="709.2"
           transform="matrix(0.866 -0.5 0.5 0.866 -210.0877 639.2548)"
           class="st2"
           width="16.1"
           height="5"
           id="rect479" /></g><g
         id="g481"><rect
           x="1015.9"
           y="773"
           transform="matrix(0.5 -0.866 0.866 0.5 -159.6255 1274.5184)"
           class="st2"
           width="16.1"
           height="5"
           id="rect483" /><rect
           x="1062.7"
           y="692"
           transform="matrix(0.5 -0.866 0.866 0.5 -66.1428 1274.5306)"
           class="st2"
           width="16.1"
           height="5"
           id="rect485" /></g><circle
         class="st4"
         cx="1047.3"
         cy="735"
         r="5.6"
         id="circle487" /><path
         class="st2"
         d="M1047.3,650.8c-16,0-29-13-29-29c0-16,13-29,29-29c16,0,29,13,29,29C1076.3,637.8,1063.3,650.8,1047.3,650.8z     M1047.3,597.8c-13.2,0-24,10.8-24,24c0,13.2,10.8,24,24,24c13.2,0,24-10.8,24-24C1071.3,608.6,1060.6,597.8,1047.3,597.8z"
         id="path489" /><rect
         x="1044.8"
         y="638.6"
         class="st2"
         width="5"
         height="22.4"
         id="rect491" /><rect
         x="1050.6"
         y="733.9"
         transform="matrix(0.7071 -0.7071 0.7071 0.7071 -216.1399 961.9694)"
         class="st2"
         width="5"
         height="15.9"
         id="rect493" /><rect
         x="1044.7"
         y="701.4"
         class="st2"
         width="5"
         height="32.3"
         id="rect495" /></g><g
       id="g497"><g
         id="g499"><rect
           x="513.9"
           y="465.8"
           class="st3"
           width="364.9"
           height="17"
           id="rect501" /></g><g
         id="g503"><path
           class="st0"
           d="M878.8,507.1V651H513.9V507.1h115.9v32.1l-24.4,23.6h-19v14.6c0,0,23.5,38.9,110,36.5     c86.5,2.4,110-36.5,110-36.5v-14.6h-19l-24.4-23.6v-32.1H878.8z"
           id="path505" /></g><g
         id="g507"><path
           class="st3"
           d="M878.8,651H513.9l12.4,136.6c1.6,17.2,16,30.3,33.2,30.3h273.7c17.2,0,31.6-13.1,33.2-30.3L878.8,651z"
           id="path509" /></g><g
         id="g511"><polygon
           class="st1"
           points="545.1,788 533.4,668.7 859.3,668.7 847.5,788    "
           id="polygon513" /></g><g
         id="g515"><g
           id="g517"><polygon
             class="st1"
             points="545.1,788 533.4,668.7 859.3,668.7 847.5,788     "
             id="polygon519" /><path
             class="st2"
             d="M849.8,790.5H542.9l-12.2-124.3H862L849.8,790.5z M547.4,785.5h297.9l11.2-114.3H536.2L547.4,785.5z"
             id="path521" /></g></g><g
         id="g523"><path
           class="st2"
           d="M881.3,653.5H511.4V504.6h369.9V653.5z M516.4,648.5h359.9V509.6H516.4V648.5z"
           id="path525" /></g><g
         id="g527"><path
           class="st2"
           d="M833.2,820.4H559.5c-18.7,0-34-14-35.7-32.6l-12.7-139.4h370.4l-12.7,139.4     C867.2,806.4,851.8,820.4,833.2,820.4z M516.6,653.5l12.2,133.9c1.5,16,14.7,28,30.7,28h273.7c16.1,0,29.3-12.1,30.7-28     l12.2-133.9H516.6z"
           id="path529" /></g><g
         id="g531"><path
           class="st2"
           d="M580.5,704.2h-5.9c-4.2,0-7.6-3.4-7.6-7.6v-12.8h21.1v12.8C588.1,700.8,584.7,704.2,580.5,704.2z M572,688.7     v7.8c0,1.4,1.2,2.6,2.6,2.6h5.9c1.4,0,2.6-1.2,2.6-2.6v-7.8H572z"
           id="path533" /></g><g
         id="g535"><g
           id="g537"><path
             class="st2"
             d="M569.7,727h-5.9c-4.2,0-7.6-3.4-7.6-7.6v-12.8h21.1v12.8C577.4,723.6,573.9,727,569.7,727z M561.3,711.6      v7.8c0,1.4,1.2,2.6,2.6,2.6h5.9c1.4,0,2.6-1.2,2.6-2.6v-7.8H561.3z"
             id="path539" /></g><g
           id="g541"><path
             class="st2"
             d="M595.1,727h-5.9c-4.2,0-7.6-3.4-7.6-7.6v-12.8h21.1v12.8C602.7,723.6,599.3,727,595.1,727z M586.6,711.6      v7.8c0,1.4,1.2,2.6,2.6,2.6h5.9c1.4,0,2.6-1.2,2.6-2.6v-7.8H586.6z"
             id="path543" /></g><g
           id="g545"><path
             class="st2"
             d="M620.5,727h-5.9c-4.2,0-7.6-3.4-7.6-7.6v-12.8h21.1v12.8C628.1,723.6,624.7,727,620.5,727z M612,711.6v7.8      c0,1.4,1.2,2.6,2.6,2.6h5.9c1.4,0,2.6-1.2,2.6-2.6v-7.8H612z"
             id="path547" /></g><g
           id="g549"><path
             class="st2"
             d="M645.9,727H640c-4.2,0-7.6-3.4-7.6-7.6v-12.8h21.1v12.8C653.5,723.6,650.1,727,645.9,727z M637.4,711.6v7.8      c0,1.4,1.2,2.6,2.6,2.6h5.9c1.4,0,2.6-1.2,2.6-2.6v-7.8H637.4z"
             id="path551" /></g><g
           id="g553"><path
             class="st2"
             d="M671.2,727h-5.9c-4.2,0-7.6-3.4-7.6-7.6v-12.8h21.1v12.8C678.8,723.6,675.4,727,671.2,727z M662.7,711.6      v7.8c0,1.4,1.2,2.6,2.6,2.6h5.9c1.4,0,2.6-1.2,2.6-2.6v-7.8H662.7z"
             id="path555" /></g><g
           id="g557"><path
             class="st2"
             d="M696.6,727h-5.9c-4.2,0-7.6-3.4-7.6-7.6v-12.8h21.1v12.8C704.2,723.6,700.8,727,696.6,727z M688.1,711.6      v7.8c0,1.4,1.2,2.6,2.6,2.6h5.9c1.4,0,2.6-1.2,2.6-2.6v-7.8H688.1z"
             id="path559" /></g><g
           id="g561"><path
             class="st2"
             d="M722,727h-5.9c-4.2,0-7.6-3.4-7.6-7.6v-12.8h21.1v12.8C729.6,723.6,726.2,727,722,727z M713.5,711.6v7.8      c0,1.4,1.2,2.6,2.6,2.6h5.9c1.4,0,2.6-1.2,2.6-2.6v-7.8H713.5z"
             id="path563" /></g><g
           id="g565"><path
             class="st2"
             d="M747.3,727h-5.9c-4.2,0-7.6-3.4-7.6-7.6v-12.8h21.1v12.8C754.9,723.6,751.5,727,747.3,727z M738.8,711.6      v7.8c0,1.4,1.2,2.6,2.6,2.6h5.9c1.4,0,2.6-1.2,2.6-2.6v-7.8H738.8z"
             id="path567" /></g><g
           id="g569"><path
             class="st2"
             d="M772.7,727h-5.9c-4.2,0-7.6-3.4-7.6-7.6v-12.8h21.1v12.8C780.3,723.6,776.9,727,772.7,727z M764.2,711.6      v7.8c0,1.4,1.2,2.6,2.6,2.6h5.9c1.4,0,2.6-1.2,2.6-2.6v-7.8H764.2z"
             id="path571" /></g><g
           id="g573"><path
             class="st2"
             d="M798.1,727h-5.9c-4.2,0-7.6-3.4-7.6-7.6v-12.8h21.1v12.8C805.7,723.6,802.3,727,798.1,727z M789.6,711.6      v7.8c0,1.4,1.2,2.6,2.6,2.6h5.9c1.4,0,2.6-1.2,2.6-2.6v-7.8H789.6z"
             id="path575" /></g><g
           id="g577"><path
             class="st2"
             d="M823.4,727h-5.9c-4.2,0-7.6-3.4-7.6-7.6v-12.8h21.1v12.8C831.1,723.6,827.6,727,823.4,727z M814.9,711.6      v7.8c0,1.4,1.2,2.6,2.6,2.6h5.9c1.4,0,2.6-1.2,2.6-2.6v-7.8H814.9z"
             id="path579" /></g></g><g
         id="g581"><path
           class="st2"
           d="M606.1,704.2h-5.9c-4.2,0-7.6-3.4-7.6-7.6v-12.8h21.1v12.8C613.7,700.8,610.3,704.2,606.1,704.2z      M597.6,688.7v7.8c0,1.4,1.2,2.6,2.6,2.6h5.9c1.4,0,2.6-1.2,2.6-2.6v-7.8H597.6z"
           id="path583" /></g><g
         id="g585"><path
           class="st2"
           d="M631.6,704.2h-5.9c-4.2,0-7.6-3.4-7.6-7.6v-12.8h21.1v12.8C639.3,700.8,635.8,704.2,631.6,704.2z      M623.1,688.7v7.8c0,1.4,1.2,2.6,2.6,2.6h5.9c1.4,0,2.6-1.2,2.6-2.6v-7.8H623.1z"
           id="path587" /></g><g
         id="g589"><path
           class="st2"
           d="M657.2,704.2h-5.9c-4.2,0-7.6-3.4-7.6-7.6v-12.8h21.1v12.8C664.8,700.8,661.4,704.2,657.2,704.2z      M648.7,688.7v7.8c0,1.4,1.2,2.6,2.6,2.6h5.9c1.4,0,2.6-1.2,2.6-2.6v-7.8H648.7z"
           id="path591" /></g><g
         id="g593"><path
           class="st2"
           d="M682.8,704.2h-5.9c-4.2,0-7.6-3.4-7.6-7.6v-12.8h21.1v12.8C690.4,700.8,687,704.2,682.8,704.2z M674.3,688.7     v7.8c0,1.4,1.2,2.6,2.6,2.6h5.9c1.4,0,2.6-1.2,2.6-2.6v-7.8H674.3z"
           id="path595" /></g><g
         id="g597"><path
           class="st2"
           d="M708.4,704.2h-5.9c-4.2,0-7.6-3.4-7.6-7.6v-12.8H716v12.8C716,700.8,712.6,704.2,708.4,704.2z M699.9,688.7     v7.8c0,1.4,1.2,2.6,2.6,2.6h5.9c1.4,0,2.6-1.2,2.6-2.6v-7.8H699.9z"
           id="path599" /></g><g
         id="g601"><path
           class="st2"
           d="M734,704.2h-5.9c-4.2,0-7.6-3.4-7.6-7.6v-12.8h21.1v12.8C741.6,700.8,738.2,704.2,734,704.2z M725.5,688.7     v7.8c0,1.4,1.2,2.6,2.6,2.6h5.9c1.4,0,2.6-1.2,2.6-2.6v-7.8H725.5z"
           id="path603" /></g><g
         id="g605"><path
           class="st2"
           d="M759.5,704.2h-5.9c-4.2,0-7.6-3.4-7.6-7.6v-12.8h21.1v12.8C767.1,700.8,763.7,704.2,759.5,704.2z M751,688.7     v7.8c0,1.4,1.2,2.6,2.6,2.6h5.9c1.4,0,2.6-1.2,2.6-2.6v-7.8H751z"
           id="path607" /></g><g
         id="g609"><path
           class="st2"
           d="M785.1,704.2h-5.9c-4.2,0-7.6-3.4-7.6-7.6v-12.8h21.1v12.8C792.7,700.8,789.3,704.2,785.1,704.2z      M776.6,688.7v7.8c0,1.4,1.2,2.6,2.6,2.6h5.9c1.4,0,2.6-1.2,2.6-2.6v-7.8H776.6z"
           id="path611" /></g><g
         id="g613"><path
           class="st2"
           d="M810.7,704.2h-5.9c-4.2,0-7.6-3.4-7.6-7.6v-12.8h21.1v12.8C818.3,700.8,814.9,704.2,810.7,704.2z      M802.2,688.7v7.8c0,1.4,1.2,2.6,2.6,2.6h5.9c1.4,0,2.6-1.2,2.6-2.6v-7.8H802.2z"
           id="path615" /></g><g
         id="g617"><path
           class="st2"
           d="M573.1,749.2h-5.9c-4.2,0-7.6-3.4-7.6-7.6v-12.8h21.1v12.8C580.7,745.7,577.3,749.2,573.1,749.2z      M564.6,733.7v7.8c0,1.4,1.2,2.6,2.6,2.6h5.9c1.4,0,2.6-1.2,2.6-2.6v-7.8H564.6z"
           id="path619" /></g><g
         id="g621"><path
           class="st2"
           d="M577.9,776.6h-7.3c-4.9,0-8.9-4-8.9-8.9v-15.4h25.1v15.4C586.8,772.6,582.8,776.6,577.9,776.6z M566.6,757.3     v10.4c0,2.1,1.7,3.9,3.9,3.9h7.3c2.1,0,3.9-1.7,3.9-3.9v-10.4H566.6z"
           id="path623" /></g><g
         id="g625"><path
           class="st2"
           d="M825.5,776.6h-7.3c-4.9,0-8.9-4-8.9-8.9v-15.4h25.1v15.4C834.4,772.6,830.4,776.6,825.5,776.6z M814.3,757.3     v10.4c0,2.1,1.7,3.9,3.9,3.9h7.3c2.1,0,3.9-1.7,3.9-3.9v-10.4H814.3z"
           id="path627" /></g><g
         id="g629"><path
           class="st2"
           d="M598.7,749.2h-5.9c-4.2,0-7.6-3.4-7.6-7.6v-12.8h21.1v12.8C606.3,745.7,602.9,749.2,598.7,749.2z      M590.2,733.7v7.8c0,1.4,1.2,2.6,2.6,2.6h5.9c1.4,0,2.6-1.2,2.6-2.6v-7.8H590.2z"
           id="path631" /></g><g
         id="g633"><g
           id="g635"><path
             class="st2"
             d="M797.9,772h-5.9c-4.2,0-7.6-3.4-7.6-7.6v-12.8h21.1v12.8C805.5,768.6,802.1,772,797.9,772z M789.4,756.5      v7.8c0,1.4,1.2,2.6,2.6,2.6h5.9c1.4,0,2.6-1.2,2.6-2.6v-7.8H789.4z"
             id="path637" /></g><g
           id="g639"><path
             class="st2"
             d="M770.8,772h-5.9c-4.2,0-7.6-3.4-7.6-7.6v-12.8h21.1v12.8C778.4,768.6,775,772,770.8,772z M762.3,756.5v7.8      c0,1.4,1.2,2.6,2.6,2.6h5.9c1.4,0,2.6-1.2,2.6-2.6v-7.8H762.3z"
             id="path641" /></g><g
           id="g643"><path
             class="st2"
             d="M743.7,772h-5.9c-4.2,0-7.6-3.4-7.6-7.6v-12.8h21.1v12.8C751.3,768.6,747.9,772,743.7,772z M735.2,756.5      v7.8c0,1.4,1.2,2.6,2.6,2.6h5.9c1.4,0,2.6-1.2,2.6-2.6v-7.8H735.2z"
             id="path645" /></g><g
           id="g647"><path
             class="st2"
             d="M716.5,772h-5.9c-4.2,0-7.6-3.4-7.6-7.6v-12.8h21.1v12.8C724.2,768.6,720.7,772,716.5,772z M708,756.5v7.8      c0,1.4,1.2,2.6,2.6,2.6h5.9c1.4,0,2.6-1.2,2.6-2.6v-7.8H708z"
             id="path649" /></g><g
           id="g651"><path
             class="st2"
             d="M689.4,772h-5.9c-4.2,0-7.6-3.4-7.6-7.6v-12.8H697v12.8C697,768.6,693.6,772,689.4,772z M680.9,756.5v7.8      c0,1.4,1.2,2.6,2.6,2.6h5.9c1.4,0,2.6-1.2,2.6-2.6v-7.8H680.9z"
             id="path653" /></g><g
           id="g655"><path
             class="st2"
             d="M662.3,772h-5.9c-4.2,0-7.6-3.4-7.6-7.6v-12.8h21.1v12.8C669.9,768.6,666.5,772,662.3,772z M653.8,756.5      v7.8c0,1.4,1.2,2.6,2.6,2.6h5.9c1.4,0,2.6-1.2,2.6-2.6v-7.8H653.8z"
             id="path657" /></g><g
           id="g659"><path
             class="st2"
             d="M635.1,772h-5.9c-4.2,0-7.6-3.4-7.6-7.6v-12.8h21.1v12.8C642.8,768.6,639.3,772,635.1,772z M626.6,756.5      v7.8c0,1.4,1.2,2.6,2.6,2.6h5.9c1.4,0,2.6-1.2,2.6-2.6v-7.8H626.6z"
             id="path661" /></g><g
           id="g663"><path
             class="st2"
             d="M608,772h-5.9c-4.2,0-7.6-3.4-7.6-7.6v-12.8h21.1v12.8C615.6,768.6,612.2,772,608,772z M599.5,756.5v7.8      c0,1.4,1.2,2.6,2.6,2.6h5.9c1.4,0,2.6-1.2,2.6-2.6v-7.8H599.5z"
             id="path665" /></g></g><g
         id="g667"><path
           class="st2"
           d="M624.3,749.2h-5.9c-4.2,0-7.6-3.4-7.6-7.6v-12.8h21.1v12.8C631.9,745.7,628.5,749.2,624.3,749.2z      M615.8,733.7v7.8c0,1.4,1.2,2.6,2.6,2.6h5.9c1.4,0,2.6-1.2,2.6-2.6v-7.8H615.8z"
           id="path669" /></g><g
         id="g671"><path
           class="st2"
           d="M649.8,749.2H644c-4.2,0-7.6-3.4-7.6-7.6v-12.8h21.1v12.8C657.5,745.7,654,749.2,649.8,749.2z M641.3,733.7     v7.8c0,1.4,1.2,2.6,2.6,2.6h5.9c1.4,0,2.6-1.2,2.6-2.6v-7.8H641.3z"
           id="path673" /></g><g
         id="g675"><path
           class="st2"
           d="M675.4,749.2h-5.9c-4.2,0-7.6-3.4-7.6-7.6v-12.8H683v12.8C683,745.7,679.6,749.2,675.4,749.2z M666.9,733.7     v7.8c0,1.4,1.2,2.6,2.6,2.6h5.9c1.4,0,2.6-1.2,2.6-2.6v-7.8H666.9z"
           id="path677" /></g><g
         id="g679"><path
           class="st2"
           d="M701,749.2h-5.9c-4.2,0-7.6-3.4-7.6-7.6v-12.8h21.1v12.8C708.6,745.7,705.2,749.2,701,749.2z M692.5,733.7     v7.8c0,1.4,1.2,2.6,2.6,2.6h5.9c1.4,0,2.6-1.2,2.6-2.6v-7.8H692.5z"
           id="path681" /></g><g
         id="g683"><path
           class="st2"
           d="M726.6,749.2h-5.9c-4.2,0-7.6-3.4-7.6-7.6v-12.8h21.1v12.8C734.2,745.7,730.8,749.2,726.6,749.2z      M718.1,733.7v7.8c0,1.4,1.2,2.6,2.6,2.6h5.9c1.4,0,2.6-1.2,2.6-2.6v-7.8H718.1z"
           id="path685" /></g><g
         id="g687"><path
           class="st2"
           d="M752.1,749.2h-5.9c-4.2,0-7.6-3.4-7.6-7.6v-12.8h21.1v12.8C759.8,745.7,756.3,749.2,752.1,749.2z      M743.7,733.7v7.8c0,1.4,1.2,2.6,2.6,2.6h5.9c1.4,0,2.6-1.2,2.6-2.6v-7.8H743.7z"
           id="path689" /></g><g
         id="g691"><path
           class="st2"
           d="M777.7,749.2h-5.9c-4.2,0-7.6-3.4-7.6-7.6v-12.8h21.1v12.8C785.3,745.7,781.9,749.2,777.7,749.2z      M769.2,733.7v7.8c0,1.4,1.2,2.6,2.6,2.6h5.9c1.4,0,2.6-1.2,2.6-2.6v-7.8H769.2z"
           id="path693" /></g><g
         id="g695"><path
           class="st2"
           d="M803.3,749.2h-5.9c-4.2,0-7.6-3.4-7.6-7.6v-12.8h21.1v12.8C810.9,745.7,807.5,749.2,803.3,749.2z      M794.8,733.7v7.8c0,1.4,1.2,2.6,2.6,2.6h5.9c1.4,0,2.6-1.2,2.6-2.6v-7.8H794.8z"
           id="path697" /></g><g
         id="g699"><path
           class="st2"
           d="M828.8,749.2h-5.9c-4.2,0-7.6-3.4-7.6-7.6v-12.8h21.1v12.8C836.4,745.7,833,749.2,828.8,749.2z M820.3,733.7     v7.8c0,1.4,1.2,2.6,2.6,2.6h5.9c1.4,0,2.6-1.2,2.6-2.6v-7.8H820.3z"
           id="path701" /></g><g
         id="g703"><path
           class="st2"
           d="M881.3,653.5H511.4V504.6h369.9V653.5z M516.4,648.5h359.9V509.6H516.4V648.5z"
           id="path705" /></g><g
         id="g707"><path
           class="st2"
           d="M881.3,509.6H511.4v-60.3c0-12.6,10.3-22.9,22.9-22.9h324.1c12.6,0,22.9,10.3,22.9,22.9V509.6z M516.4,504.6     h359.9v-55.3c0-9.9-8-17.9-17.9-17.9H534.3c-9.9,0-17.9,8-17.9,17.9V504.6z"
           id="path709" /></g><g
         id="g711"><path
           class="st2"
           d="M703.7,616.5c-2.5,0-5,0-7.4-0.1c-25,0.7-60.6-1.8-88.6-17.6c-17.1-9.6-23.2-19.6-23.5-20l-0.4-0.6v-17.8     h20.5l23-22.2v-33.6h138v33.6l23,22.2h20.5v17.8l-0.4,0.6c-0.3,0.4-6.4,10.4-23.5,20C759.6,613.1,728,616.5,703.7,616.5z      M696.3,611.4L696.3,611.4c24.3,0.7,58.8-1.7,85.8-16.8c13.9-7.8,20.2-15.8,21.7-17.9v-11.4h-17.5l-25.9-25.1v-30.7h-128v30.7     l-25.9,25.1h-17.5v11.4c1.5,2.1,7.8,10.2,21.7,17.9C637.6,609.8,672.1,612.1,696.3,611.4L696.3,611.4z"
           id="path713" /></g><g
         id="g715"><path
           class="st2"
           d="M711.8,524.6h-30.9v-20h30.9V524.6z M685.9,519.6h20.9v-10h-20.9V519.6z"
           id="path717" /></g><g
         id="g719"><path
           class="st2"
           d="M881.3,485.3H511.4v-22h369.9V485.3z M516.4,480.3h359.9v-12H516.4V480.3z"
           id="path721" /></g><g
         id="g723"><g
           id="g725"><g
             id="g727"><path
               class="st1"
               d="M563.9,456.9h-9.7c-3.6,0-6.6,2.9-6.6,6.6v25.9h16.2V456.9z"
               id="path729" /><path
               class="st2"
               d="M566.4,491.8h-21.2v-28.4c0-5,4.1-9.1,9.1-9.1h12.2V491.8z M550.2,486.8h11.2v-27.4h-7.2       c-2.2,0-4.1,1.8-4.1,4.1V486.8z"
               id="path731" /></g></g><g
           id="g733"><g
             id="g735"><path
               class="st1"
               d="M828.8,456.9h9.7c3.6,0,6.6,2.9,6.6,6.6v25.9h-16.2V456.9z"
               id="path737" /><path
               class="st2"
               d="M847.5,491.8h-21.2v-37.4h12.2c5,0,9.1,4.1,9.1,9.1V491.8z M831.3,486.8h11.2v-23.4c0-2.2-1.8-4.1-4.1-4.1       h-7.2V486.8z"
               id="path739" /></g></g></g><g
         id="g741"><g
           id="g743"><rect
             x="583.7"
             y="313.4"
             class="st1"
             width="225.3"
             height="159.6"
             id="rect745" /><path
             class="st2"
             d="M811.5,475.6H581.2V310.9h230.3V475.6z M586.2,470.6h220.3V315.9H586.2V470.6z"
             id="path747" /></g></g><g
         id="g749"><g
           id="g751"><path
             class="st1"
             d="M790.3,778.2H603.7c-5.2,0-7.1,4.5-4.5,9.8l0,0c2.5,5,8.3,8.9,13,8.9h169.5c4.7,0,10.5-3.9,13-8.9h0      C797.4,782.7,795.5,778.2,790.3,778.2z"
             id="path753" /><path
             class="st2"
             d="M781.8,799.5H612.3c-5.7,0-12.3-4.4-15.2-10.3c-1.8-3.7-1.9-7.3-0.3-9.9c1.4-2.3,3.9-3.5,7-3.5h186.6      c3.1,0,5.6,1.3,7,3.5c1.6,2.7,1.5,6.3-0.3,9.9C794.1,795,787.5,799.5,781.8,799.5z M603.7,780.7c-0.9,0-2.2,0.2-2.8,1.2      c-0.7,1.1-0.5,3,0.5,5.1c2.1,4.1,7,7.6,10.8,7.6h169.5c3.8,0,8.7-3.5,10.8-7.6c1-2,1.2-3.9,0.5-5.1c-0.6-1-1.8-1.2-2.8-1.2      H603.7z"
             id="path755" /></g></g><g
         id="g757"><rect
           x="693.8"
           y="536"
           class="st2"
           width="5"
           height="68.1"
           id="rect759" /><rect
           x="702.4"
           y="535.8"
           transform="matrix(0.9914 -0.1305 0.1305 0.9914 -68.3209 96.8816)"
           class="st2"
           width="5"
           height="67.7"
           id="rect761" /><rect
           x="711.1"
           y="533.3"
           transform="matrix(0.9659 -0.2588 0.2588 0.9659 -122.9069 204.0635)"
           class="st2"
           width="5"
           height="71"
           id="rect763" /><rect
           x="719.9"
           y="530.8"
           transform="matrix(0.9239 -0.3827 0.3827 0.9239 -162.1767 319.6535)"
           class="st2"
           width="5"
           height="73.3"
           id="rect765" /><rect
           x="728.6"
           y="527.4"
           transform="matrix(0.866 -0.5 0.5 0.866 -184.4393 441.2324)"
           class="st2"
           width="5"
           height="74.8"
           id="rect767" /><rect
           x="737.9"
           y="524.1"
           transform="matrix(0.7934 -0.6088 0.6088 0.7934 -189.0633 566.8256)"
           class="st2"
           width="5"
           height="75.5"
           id="rect769" /><rect
           x="746.5"
           y="518.5"
           transform="matrix(0.7071 -0.7071 0.7071 0.7071 -174.6022 692.846)"
           class="st2"
           width="5"
           height="77.4"
           id="rect771" /><rect
           x="605.2"
           y="553.9"
           transform="matrix(0.7071 -0.7071 0.7071 0.7071 -204.6806 618.6443)"
           class="st2"
           width="78.5"
           height="5"
           id="rect773" /><rect
           x="614.1"
           y="558.7"
           transform="matrix(0.6087 -0.7934 0.7934 0.6087 -189.8505 737.5794)"
           class="st2"
           width="77.3"
           height="5"
           id="rect775" /><rect
           x="623.6"
           y="562"
           transform="matrix(0.5 -0.866 0.866 0.5 -157.9823 855.2847)"
           class="st2"
           width="76.2"
           height="5"
           id="rect777" /><rect
           x="633.2"
           y="564.8"
           transform="matrix(0.3828 -0.9238 0.9238 0.3828 -110.3186 969.3893)"
           class="st2"
           width="74.4"
           height="5"
           id="rect779" /><rect
           x="643.1"
           y="566.4"
           transform="matrix(0.2589 -0.9659 0.9659 0.2589 -46.2562 1077.4946)"
           class="st2"
           width="72"
           height="5"
           id="rect781" /><rect
           x="652.9"
           y="566.3"
           transform="matrix(0.1305 -0.9915 0.9915 0.1305 34.1807 1176.5619)"
           class="st2"
           width="70"
           height="5"
           id="rect783" /></g><g
         id="g785"><path
           class="st5"
           d="M661.9,522.1c1.3,12.7,16.2,22.6,34.4,22.6c18.2,0,33.1-10,34.4-22.6H661.9z"
           id="path787" /></g><g
         id="g789"><path
           class="st2"
           d="M696.3,547.3c-19.5,0-35.4-10.7-36.9-24.9l-0.3-2.8h74.4l-0.3,2.8C731.8,536.6,715.9,547.3,696.3,547.3z      M664.9,524.6c3,10.1,16.1,17.6,31.4,17.6c15.3,0,28.4-7.6,31.4-17.6H664.9z"
           id="path791" /></g></g></g></svg>